<?xml version="1.0" encoding="us-ascii" standalone="no"?><svg xmlns="http://www.w3.org/2000/svg" xmlns:xlink="http://www.w3.org/1999/xlink" contentStyleType="text/css" height="1208.384px" preserveAspectRatio="none" style="width:891px;height:1208px;" version="1.1" viewBox="0 0 891 1208" width="891.2293px" zoomAndPan="magnify"><defs><linearGradient id="g1k7g91lp7whqv0" x1="50%" x2="50%" y1="0%" y2="100%"><stop offset="0%" stop-color="#F4F4F4"/><stop offset="100%" stop-color="#F4F4F4"/></linearGradient></defs><g><text fill="#262626" font-family="sans-serif" font-size="24.5856" font-weight="bold" lengthAdjust="spacing" textLength="481.8785" x="196.0704" y="47.4066">Class Diagram: User Management</text><!--cluster freemoney--><g id="cluster_freemoney"><polygon fill="#FFFFFF" points="19.6685,86.3955,148.7431,86.3955,157.3481,135.5283,870.3315,135.5283,870.3315,1200.1247,19.6685,1200.1247,19.6685,86.3955" style="stroke:#C6C6C6;stroke-width:1.229281767955801;"/><line style="stroke:#C6C6C6;stroke-width:1.229281767955801;" x1="19.6685" x2="157.3481" y1="135.5283" y2="135.5283"/><text fill="#262626" font-family="sans-serif" font-size="14.7514" font-weight="bold" lengthAdjust="spacing" textLength="97.1133" x="36.8785" y="114.8394">freemoney</text></g><!--cluster disturbsment--><g id="cluster_disturbsment"><polygon fill="#FFFFFF" points="49.1713,160.1524,201.6022,160.1524,210.2072,209.2852,840.8287,209.2852,840.8287,1170.622,49.1713,1170.622,49.1713,160.1524" style="stroke:#C6C6C6;stroke-width:1.229281767955801;"/><line style="stroke:#C6C6C6;stroke-width:1.229281767955801;" x1="49.1713" x2="210.2072" y1="209.2852" y2="209.2852"/><text fill="#262626" font-family="sans-serif" font-size="14.7514" font-weight="bold" lengthAdjust="spacing" textLength="120.4696" x="66.3812" y="188.5963">disturbsment</text></g><!--cluster usermanagement--><g id="cluster_usermanagement"><polygon fill="#FFFFFF" points="78.674,233.9093,266.7541,233.9093,275.3591,283.0421,811.326,283.0421,811.326,1141.1192,78.674,1141.1192,78.674,233.9093" style="stroke:#C6C6C6;stroke-width:1.229281767955801;"/><line style="stroke:#C6C6C6;stroke-width:1.229281767955801;" x1="78.674" x2="275.3591" y1="283.0421" y2="283.0421"/><text fill="#262626" font-family="sans-serif" font-size="14.7514" font-weight="bold" lengthAdjust="spacing" textLength="156.1188" x="95.884" y="262.3532">usermanagement</text></g><!--class Role--><g id="elem_Role"><rect codeLine="5" fill="url(#g1k7g91lp7whqv0)" height="152.9399" id="Role" style="stroke:#C6C6C6;stroke-width:1.229281767955801;" width="145.0552" x="229.8757" y="378.9645"/><rect fill="url(#g1k7g91lp7whqv0)" height="52.619" style="stroke:#C6C6C6;stroke-width:1.229281767955801;" width="145.0552" x="229.8757" y="378.9645"/><ellipse cx="270.8722" cy="405.274" fill="#ADD1B2" rx="12.2928" ry="12.2928" style="stroke:#181818;stroke-width:1.229281767955801;"/><path d="M273.1579,401.2789 C272.3512,400.8947 271.8326,400.7795 271.0643,400.7795 C268.7978,400.7795 267.0499,402.5658 267.0499,404.9283 L267.0499,405.9079 C267.0499,408.1552 268.8939,409.7878 271.3908,409.7878 C272.4473,409.7878 273.4653,409.5189 274.0991,409.0387 C274.6177,408.693 274.8866,408.3088 274.8866,407.9631 C274.8866,407.5789 274.5409,407.2332 274.1567,407.2332 C273.9646,407.2332 273.7918,407.31 273.6189,407.4637 C273.2156,407.8863 273.2156,407.8863 273.0619,407.9631 C272.697,408.1936 272.1015,408.3088 271.4293,408.3088 C269.6622,408.3088 268.5289,407.3484 268.5289,405.8695 L268.5289,404.9283 C268.5289,403.3725 269.6237,402.2392 271.1219,402.2392 C271.6213,402.2392 272.1591,402.3737 272.5625,402.6042 C272.9851,402.8347 273.1387,403.0268 273.2156,403.3725 C273.2732,403.7374 273.2924,403.8335 273.4076,403.9487 C273.5229,404.0832 273.7342,404.16 273.9262,404.16 C274.1759,404.16 274.3872,404.0447 274.5409,403.8527 C274.6369,403.7182 274.6753,403.5646 274.6753,403.1804 L274.6753,401.9511 C274.6753,401.5862 274.6561,401.4709 274.5601,401.3365 C274.4256,401.106 274.1951,400.9715 273.9262,400.9715 C273.6765,400.9715 273.5037,401.0676 273.3116,401.3365 L273.1579,401.2789 Z " fill="#000000"/><text fill="#262626" font-family="sans-serif" font-size="13.5221" lengthAdjust="spacing" textLength="30.732" x="304.4316" y="409.9553">Role</text><line style="stroke:#C6C6C6;stroke-width:1.229281767955801;" x1="231.105" x2="373.7017" y1="431.5835" y2="431.5835"/><rect fill="none" height="7.3757" style="stroke:#C82930;stroke-width:1.229281767955801;" width="7.3757" x="239.7099" y="454.8198"/><text fill="#262626" font-family="sans-serif" font-size="13.5221" lengthAdjust="spacing" textLength="71.2983" x="265.5249" y="461.345">id: Integer</text><rect fill="none" height="7.3757" style="stroke:#C82930;stroke-width:1.229281767955801;" width="7.3757" x="239.7099" y="495.1461"/><text fill="#262626" font-family="sans-serif" font-size="13.5221" lengthAdjust="spacing" textLength="89.7376" x="265.5249" y="501.6712">name: String</text><line style="stroke:#C6C6C6;stroke-width:1.229281767955801;" x1="231.105" x2="373.7017" y1="522.0702" y2="522.0702"/></g><!--class Permissions--><g id="elem_Permissions"><rect codeLine="9" fill="url(#g1k7g91lp7whqv0)" height="314.2448" id="Permissions" style="stroke:#C6C6C6;stroke-width:1.229281767955801;" width="206.5193" x="98.3425" y="746.5198"/><rect fill="url(#g1k7g91lp7whqv0)" height="52.619" style="stroke:#C6C6C6;stroke-width:1.229281767955801;" width="206.5193" x="98.3425" y="746.5198"/><ellipse cx="143.7645" cy="772.8293" fill="#ADD1B2" rx="12.2928" ry="12.2928" style="stroke:#181818;stroke-width:1.229281767955801;"/><path d="M146.0502,768.8341 C145.2435,768.45 144.7249,768.3347 143.9566,768.3347 C141.6901,768.3347 139.9422,770.121 139.9422,772.4835 L139.9422,773.4631 C139.9422,775.7104 141.7861,777.343 144.2831,777.343 C145.3395,777.343 146.3575,777.0741 146.9914,776.594 C147.51,776.2482 147.7789,775.8641 147.7789,775.5183 C147.7789,775.1342 147.4331,774.7884 147.049,774.7884 C146.8569,774.7884 146.684,774.8653 146.5112,775.0189 C146.1078,775.4415 146.1078,775.4415 145.9542,775.5183 C145.5892,775.7488 144.9938,775.8641 144.3215,775.8641 C142.5544,775.8641 141.4212,774.9037 141.4212,773.4247 L141.4212,772.4835 C141.4212,770.9277 142.516,769.7945 144.0142,769.7945 C144.5136,769.7945 145.0514,769.9289 145.4548,770.1594 C145.8773,770.3899 146.031,770.582 146.1078,770.9277 C146.1654,771.2927 146.1847,771.3887 146.2999,771.504 C146.4151,771.6384 146.6264,771.7152 146.8185,771.7152 C147.0682,771.7152 147.2795,771.6 147.4331,771.4079 C147.5292,771.2735 147.5676,771.1198 147.5676,770.7357 L147.5676,769.5064 C147.5676,769.1414 147.5484,769.0262 147.4523,768.8917 C147.3179,768.6612 147.0874,768.5268 146.8185,768.5268 C146.5688,768.5268 146.3959,768.6228 146.2039,768.8917 L146.0502,768.8341 Z " fill="#000000"/><text fill="#262626" font-family="sans-serif" font-size="13.5221" lengthAdjust="spacing" textLength="82.3619" x="178.3073" y="777.5105">Permissions</text><line style="stroke:#C6C6C6;stroke-width:1.229281767955801;" x1="99.5718" x2="303.6326" y1="799.1388" y2="799.1388"/><rect fill="none" height="7.3757" style="stroke:#C82930;stroke-width:1.229281767955801;" width="7.3757" x="108.1768" y="822.3751"/><text fill="#262626" font-family="sans-serif" font-size="13.5221" lengthAdjust="spacing" textLength="71.2983" x="133.9917" y="828.9003">id: Integer</text><rect fill="none" height="7.3757" style="stroke:#C82930;stroke-width:1.229281767955801;" width="7.3757" x="108.1768" y="862.7013"/><text fill="#262626" font-family="sans-serif" font-size="13.5221" lengthAdjust="spacing" textLength="89.7376" x="133.9917" y="869.2265">name: String</text><rect fill="none" height="7.3757" style="stroke:#C82930;stroke-width:1.229281767955801;" width="7.3757" x="108.1768" y="903.0275"/><text fill="#262626" font-family="sans-serif" font-size="13.5221" lengthAdjust="spacing" textLength="83.5912" x="133.9917" y="909.5527">label: String</text><rect fill="none" height="7.3757" style="stroke:#C82930;stroke-width:1.229281767955801;" width="7.3757" x="108.1768" y="943.3537"/><text fill="#262626" font-family="sans-serif" font-size="13.5221" lengthAdjust="spacing" textLength="147.5138" x="133.9917" y="949.8789">createdAt: DateTime</text><rect fill="none" height="7.3757" style="stroke:#C82930;stroke-width:1.229281767955801;" width="7.3757" x="108.1768" y="983.6799"/><text fill="#262626" font-family="sans-serif" font-size="13.5221" lengthAdjust="spacing" textLength="151.2017" x="133.9917" y="990.2051">updatedAt: DateTime</text><rect fill="none" height="7.3757" style="stroke:#C82930;stroke-width:1.229281767955801;" width="7.3757" x="108.1768" y="1024.0061"/><text fill="#262626" font-family="sans-serif" font-size="13.5221" lengthAdjust="spacing" textLength="148.7431" x="133.9917" y="1030.5313">deletedAt: DateTime</text><line style="stroke:#C6C6C6;stroke-width:1.229281767955801;" x1="99.5718" x2="303.6326" y1="1050.9303" y2="1050.9303"/></g><!--class passwordHistory--><g id="elem_passwordHistory"><rect codeLine="17" fill="url(#g1k7g91lp7whqv0)" height="152.9399" id="passwordHistory" style="stroke:#C6C6C6;stroke-width:1.229281767955801;" width="192.9972" x="348.5014" y="827.6524"/><rect fill="url(#g1k7g91lp7whqv0)" height="52.619" style="stroke:#C6C6C6;stroke-width:1.229281767955801;" width="192.9972" x="348.5014" y="827.6524"/><ellipse cx="374.009" cy="853.9619" fill="#ADD1B2" rx="12.2928" ry="12.2928" style="stroke:#181818;stroke-width:1.229281767955801;"/><path d="M376.2947,849.9667 C375.488,849.5826 374.9694,849.4673 374.2011,849.4673 C371.9346,849.4673 370.1867,851.2536 370.1867,853.6161 L370.1867,854.5957 C370.1867,856.843 372.0306,858.4756 374.5276,858.4756 C375.584,858.4756 376.602,858.2067 377.2358,857.7266 C377.7544,857.3808 378.0234,856.9967 378.0234,856.6509 C378.0234,856.2668 377.6776,855.921 377.2935,855.921 C377.1014,855.921 376.9285,855.9979 376.7557,856.1515 C376.3523,856.5741 376.3523,856.5741 376.1986,856.6509 C375.8337,856.8814 375.2383,856.9967 374.566,856.9967 C372.7989,856.9967 371.6657,856.0363 371.6657,854.5573 L371.6657,853.6161 C371.6657,852.0603 372.7605,850.9271 374.2587,850.9271 C374.7581,850.9271 375.2959,851.0615 375.6992,851.292 C376.1218,851.5225 376.2755,851.7146 376.3523,852.0603 C376.4099,852.4253 376.4291,852.5213 376.5444,852.6366 C376.6596,852.771 376.8709,852.8478 377.063,852.8478 C377.3127,852.8478 377.524,852.7326 377.6776,852.5405 C377.7737,852.4061 377.8121,852.2524 377.8121,851.8683 L377.8121,850.639 C377.8121,850.274 377.7929,850.1588 377.6968,850.0243 C377.5624,849.7938 377.3319,849.6594 377.063,849.6594 C376.8133,849.6594 376.6404,849.7554 376.4483,850.0243 L376.2947,849.9667 Z " fill="#000000"/><text fill="#262626" font-family="sans-serif" font-size="13.5221" lengthAdjust="spacing" textLength="113.0939" x="404.1264" y="858.6431">passwordHistory</text><line style="stroke:#C6C6C6;stroke-width:1.229281767955801;" x1="349.7307" x2="540.2693" y1="880.2714" y2="880.2714"/><rect fill="none" height="7.3757" style="stroke:#C82930;stroke-width:1.229281767955801;" width="7.3757" x="358.3356" y="903.5077"/><text fill="#262626" font-family="sans-serif" font-size="13.5221" lengthAdjust="spacing" textLength="71.2983" x="384.1506" y="910.0329">id: Integer</text><rect fill="none" height="7.3757" style="stroke:#C82930;stroke-width:1.229281767955801;" width="7.3757" x="358.3356" y="943.8339"/><text fill="#262626" font-family="sans-serif" font-size="13.5221" lengthAdjust="spacing" textLength="137.6796" x="384.1506" y="950.3591">hasPassword: String</text><line style="stroke:#C6C6C6;stroke-width:1.229281767955801;" x1="349.7307" x2="540.2693" y1="970.758" y2="970.758"/></g><!--class passwordSecurity--><g id="elem_passwordSecurity"><rect codeLine="21" fill="url(#g1k7g91lp7whqv0)" height="314.2448" id="passwordSecurity" style="stroke:#C6C6C6;stroke-width:1.229281767955801;" width="272.9006" x="518.7569" y="297.8319"/><rect fill="url(#g1k7g91lp7whqv0)" height="52.619" style="stroke:#C6C6C6;stroke-width:1.229281767955801;" width="272.9006" x="518.7569" y="297.8319"/><ellipse cx="576.5331" cy="324.1414" fill="#ADD1B2" rx="12.2928" ry="12.2928" style="stroke:#181818;stroke-width:1.229281767955801;"/><path d="M578.8188,320.1463 C578.0121,319.7621 577.4935,319.6469 576.7252,319.6469 C574.4587,319.6469 572.7109,321.4332 572.7109,323.7957 L572.7109,324.7753 C572.7109,327.0226 574.5548,328.6552 577.0518,328.6552 C578.1082,328.6552 579.1262,328.3863 579.76,327.9061 C580.2786,327.5604 580.5475,327.1762 580.5475,326.8305 C580.5475,326.4463 580.2018,326.1006 579.8176,326.1006 C579.6256,326.1006 579.4527,326.1774 579.2798,326.3311 C578.8765,326.7537 578.8765,326.7537 578.7228,326.8305 C578.3579,327.061 577.7624,327.1762 577.0902,327.1762 C575.3231,327.1762 574.1898,326.2158 574.1898,324.7369 L574.1898,323.7957 C574.1898,322.2399 575.2847,321.1066 576.7828,321.1066 C577.2822,321.1066 577.8201,321.2411 578.2234,321.4716 C578.646,321.7021 578.7996,321.8942 578.8765,322.2399 C578.9341,322.6048 578.9533,322.7009 579.0685,322.8161 C579.1838,322.9506 579.3951,323.0274 579.5871,323.0274 C579.8368,323.0274 580.0481,322.9122 580.2018,322.7201 C580.2978,322.5856 580.3362,322.432 580.3362,322.0478 L580.3362,320.8185 C580.3362,320.4536 580.317,320.3383 580.221,320.2039 C580.0865,319.9734 579.8561,319.8389 579.5871,319.8389 C579.3374,319.8389 579.1646,319.935 578.9725,320.2039 L578.8188,320.1463 Z " fill="#000000"/><text fill="#262626" font-family="sans-serif" font-size="13.5221" lengthAdjust="spacing" textLength="122.9282" x="612.1823" y="328.8227">passwordSecurity</text><line style="stroke:#C6C6C6;stroke-width:1.229281767955801;" x1="519.9862" x2="790.4282" y1="350.4509" y2="350.4509"/><rect fill="none" height="7.3757" style="stroke:#C82930;stroke-width:1.229281767955801;" width="7.3757" x="528.5912" y="373.6873"/><text fill="#262626" font-family="sans-serif" font-size="13.5221" lengthAdjust="spacing" textLength="71.2983" x="554.4061" y="380.2124">id: Integer</text><rect fill="none" height="7.3757" style="stroke:#C82930;stroke-width:1.229281767955801;" width="7.3757" x="528.5912" y="414.0135"/><text fill="#262626" font-family="sans-serif" font-size="13.5221" lengthAdjust="spacing" textLength="195.4558" x="554.4061" y="420.5386">passwordExpiryDay: Integer</text><rect fill="none" height="7.3757" style="stroke:#C82930;stroke-width:1.229281767955801;" width="7.3757" x="528.5912" y="454.3397"/><text fill="#262626" font-family="sans-serif" font-size="13.5221" lengthAdjust="spacing" textLength="217.5829" x="554.4061" y="460.8648">passwordUpdatedAt: DateTime</text><rect fill="none" height="7.3757" style="stroke:#C82930;stroke-width:1.229281767955801;" width="7.3757" x="528.5912" y="494.6659"/><text fill="#262626" font-family="sans-serif" font-size="13.5221" lengthAdjust="spacing" textLength="147.5138" x="554.4061" y="501.191">createdAt: DateTime</text><rect fill="none" height="7.3757" style="stroke:#C82930;stroke-width:1.229281767955801;" width="7.3757" x="528.5912" y="534.9921"/><text fill="#262626" font-family="sans-serif" font-size="13.5221" lengthAdjust="spacing" textLength="151.2017" x="554.4061" y="541.5172">updatedAt: DateTime</text><rect fill="none" height="7.3757" style="stroke:#C82930;stroke-width:1.229281767955801;" width="7.3757" x="528.5912" y="575.3183"/><text fill="#262626" font-family="sans-serif" font-size="13.5221" lengthAdjust="spacing" textLength="148.7431" x="554.4061" y="581.8434">deletedAt: DateTime</text><line style="stroke:#C6C6C6;stroke-width:1.229281767955801;" x1="519.9862" x2="790.4282" y1="602.2424" y2="602.2424"/></g><!--class User--><g id="elem_User"><rect codeLine="29" fill="url(#g1k7g91lp7whqv0)" height="435.2234" id="User" style="stroke:#C6C6C6;stroke-width:1.229281767955801;" width="206.5193" x="585.1381" y="686.285"/><rect fill="url(#g1k7g91lp7whqv0)" height="52.619" style="stroke:#C6C6C6;stroke-width:1.229281767955801;" width="206.5193" x="585.1381" y="686.285"/><ellipse cx="655.2072" cy="712.5945" fill="#ADD1B2" rx="12.2928" ry="12.2928" style="stroke:#181818;stroke-width:1.229281767955801;"/><path d="M657.4929,708.5993 C656.6862,708.2152 656.1676,708.0999 655.3993,708.0999 C653.1328,708.0999 651.3849,709.8862 651.3849,712.2487 L651.3849,713.2283 C651.3849,715.4756 653.2288,717.1082 655.7258,717.1082 C656.7822,717.1082 657.8002,716.8393 658.434,716.3591 C658.9527,716.0134 659.2216,715.6293 659.2216,715.2835 C659.2216,714.8994 658.8758,714.5536 658.4917,714.5536 C658.2996,714.5536 658.1267,714.6305 657.9539,714.7841 C657.5505,715.2067 657.5505,715.2067 657.3968,715.2835 C657.0319,715.514 656.4365,715.6293 655.7642,715.6293 C653.9971,715.6293 652.8639,714.6689 652.8639,713.1899 L652.8639,712.2487 C652.8639,710.6929 653.9587,709.5597 655.4569,709.5597 C655.9563,709.5597 656.4941,709.6941 656.8974,709.9246 C657.32,710.1551 657.4737,710.3472 657.5505,710.6929 C657.6081,711.0579 657.6273,711.1539 657.7426,711.2692 C657.8578,711.4036 658.0691,711.4804 658.2612,711.4804 C658.5109,711.4804 658.7222,711.3652 658.8758,711.1731 C658.9719,711.0387 659.0103,710.885 659.0103,710.5009 L659.0103,709.2716 C659.0103,708.9066 658.9911,708.7914 658.895,708.6569 C658.7606,708.4264 658.5301,708.292 658.2612,708.292 C658.0115,708.292 657.8386,708.388 657.6465,708.6569 L657.4929,708.5993 Z " fill="#000000"/><text fill="#262626" font-family="sans-serif" font-size="13.5221" lengthAdjust="spacing" textLength="31.9613" x="690.8564" y="717.2757">User</text><line style="stroke:#C6C6C6;stroke-width:1.229281767955801;" x1="586.3674" x2="790.4282" y1="738.904" y2="738.904"/><rect fill="none" height="7.3757" style="stroke:#C82930;stroke-width:1.229281767955801;" width="7.3757" x="594.9724" y="762.1403"/><text fill="#262626" font-family="sans-serif" font-size="13.5221" lengthAdjust="spacing" textLength="71.2983" x="620.7873" y="768.6654">id: Integer</text><rect fill="none" height="7.3757" style="stroke:#C82930;stroke-width:1.229281767955801;" width="7.3757" x="594.9724" y="802.4665"/><text fill="#262626" font-family="sans-serif" font-size="13.5221" lengthAdjust="spacing" textLength="115.5525" x="620.7873" y="808.9917">firstname: String</text><rect fill="none" height="7.3757" style="stroke:#C82930;stroke-width:1.229281767955801;" width="7.3757" x="594.9724" y="842.7927"/><text fill="#262626" font-family="sans-serif" font-size="13.5221" lengthAdjust="spacing" textLength="114.3232" x="620.7873" y="849.3179">lastname: String</text><rect fill="none" height="7.3757" style="stroke:#C82930;stroke-width:1.229281767955801;" width="7.3757" x="594.9724" y="883.1189"/><text fill="#262626" font-family="sans-serif" font-size="13.5221" lengthAdjust="spacing" textLength="88.5083" x="620.7873" y="889.6441">email: String</text><rect fill="none" height="7.3757" style="stroke:#C82930;stroke-width:1.229281767955801;" width="7.3757" x="594.9724" y="923.4451"/><text fill="#262626" font-family="sans-serif" font-size="13.5221" lengthAdjust="spacing" textLength="93.4254" x="620.7873" y="929.9703">phone: String</text><rect fill="none" height="7.3757" style="stroke:#C82930;stroke-width:1.229281767955801;" width="7.3757" x="594.9724" y="963.7713"/><text fill="#262626" font-family="sans-serif" font-size="13.5221" lengthAdjust="spacing" textLength="114.3232" x="620.7873" y="970.2965">password: String</text><rect fill="none" height="7.3757" style="stroke:#C82930;stroke-width:1.229281767955801;" width="7.3757" x="594.9724" y="1004.0975"/><text fill="#262626" font-family="sans-serif" font-size="13.5221" lengthAdjust="spacing" textLength="147.5138" x="620.7873" y="1010.6227">createdAt: DateTime</text><rect fill="none" height="7.3757" style="stroke:#C82930;stroke-width:1.229281767955801;" width="7.3757" x="594.9724" y="1044.4237"/><text fill="#262626" font-family="sans-serif" font-size="13.5221" lengthAdjust="spacing" textLength="151.2017" x="620.7873" y="1050.9489">updatedAt: DateTime</text><rect fill="none" height="7.3757" style="stroke:#C82930;stroke-width:1.229281767955801;" width="7.3757" x="594.9724" y="1084.7499"/><text fill="#262626" font-family="sans-serif" font-size="13.5221" lengthAdjust="spacing" textLength="148.7431" x="620.7873" y="1091.2751">deletedAt: DateTime</text><line style="stroke:#C6C6C6;stroke-width:1.229281767955801;" x1="586.3674" x2="790.4282" y1="1111.6741" y2="1111.6741"/></g><!--link passwordSecurity to User--><g id="link_passwordSecurity_User"><path codeLine="41" d="M666.8386,612.7924 C668.6051,636.5335 669.3579,646.6739 671.1993,671.4157 " fill="none" id="passwordSecurity-to-User" style="stroke:#C6C6C6;stroke-width:1.229281767955801;"/><polygon fill="#C6C6C6" points="672.2942,686.1264,676.6503,678.4061,671.1993,671.4157,666.8432,679.136,672.2942,686.1264" style="stroke:#C6C6C6;stroke-width:1.229281767955801;"/><text fill="#262626" font-family="sans-serif" font-size="14.7514" lengthAdjust="spacing" textLength="8.605" x="645.6849" y="647.9928">*</text><text fill="#262626" font-family="sans-serif" font-size="14.7514" lengthAdjust="spacing" textLength="8.605" x="684.6093" y="660.7857">1</text></g><!--link passwordHistory to User--><g id="link_passwordHistory_User"><path codeLine="42" d="M541.5035,903.8678 C556.0398,903.8678 555.8247,903.8678 570.3609,903.8678 " fill="none" id="passwordHistory-to-User" style="stroke:#C6C6C6;stroke-width:1.229281767955801;"/><polygon fill="#C6C6C6" points="585.1123,903.8678,577.7366,898.9507,570.3609,903.8678,577.7366,908.785,585.1123,903.8678" style="stroke:#C6C6C6;stroke-width:1.229281767955801;"/><text fill="#262626" font-family="sans-serif" font-size="14.7514" lengthAdjust="spacing" textLength="8.605" x="554.2839" y="885.9324">*</text><text fill="#262626" font-family="sans-serif" font-size="14.7514" lengthAdjust="spacing" textLength="8.605" x="554.2869" y="931.5798">1</text></g><!--reverse link Role to User--><g id="link_Role_User"><path codeLine="43" d="M386.6839,519.0446 C442.4232,562.4874 507.3652,618.3954 563.011,686.285 C570.5797,695.5181 577.9677,705.2651 585.1295,715.3071 " fill="none" id="Role-backto-User" style="stroke:#C6C6C6;stroke-width:1.229281767955801;"/><polygon fill="#C6C6C6" points="375.049,509.9765,377.8437,518.3888,386.6839,519.0446,383.8891,510.6322,375.049,509.9765" style="stroke:#C6C6C6;stroke-width:1.229281767955801;"/><text fill="#262626" font-family="sans-serif" font-size="14.7514" lengthAdjust="spacing" textLength="8.605" x="397.1025" y="499.2077">1</text><text fill="#262626" font-family="sans-serif" font-size="14.7514" lengthAdjust="spacing" textLength="8.605" x="554.3055" y="683.4782">*</text></g><!--link Role to Permissions--><g id="link_Role_Permissions"><path codeLine="44" d="M283.7931,538.7964 C270.5796,597.2893 255.0392,666.0835 238.5975,738.8668 " fill="none" id="Role-Permissions" style="stroke:#C6C6C6;stroke-width:1.229281767955801;"/><polygon fill="#C6C6C6" points="285.4183,531.602,278.1842,541.3101,284.064,537.5973,287.7768,543.4771,285.4183,531.602" style="stroke:#C6C6C6;stroke-width:1.229281767955801;"/><polygon fill="#C6C6C6" points="236.9723,746.0612,244.2064,736.3531,238.3267,740.0659,234.6139,734.1862,236.9723,746.0612" style="stroke:#C6C6C6;stroke-width:1.229281767955801;"/><text fill="#262626" font-family="sans-serif" font-size="14.7514" lengthAdjust="spacing" textLength="25.8149" x="242.9602" y="567.5952">0..*</text><text fill="#262626" font-family="sans-serif" font-size="14.7514" lengthAdjust="spacing" textLength="25.8149" x="199.4843" y="720.678">0..*</text></g><!--SRC=[hPB1IiD048Rl-nHZBceneTuqY21Mq8DGh3x0D3jD5dStONT33QNlxYPfj6cxuC5BIBxv_s7-p9ovWXH1XcPPwZWts30dd2Hub6Wjp0HwfbBui6JW5JNcNguTinbwqStj5DQ2ku9Lc7tw6gmCaIerDGaNrjLcQLjvKdkx-d73XcLT-xVIDzamW1X0y1HUjAESJ0yqAafXuOpGETlk77FVHrWhIct_Pko8n2N9CSeCeIF-u5AO-PTteQWlr1K_NU0awR0mZ5Nvnxeq_Dc7BaqJ7Ar0Ezz9Zw8DFHQKrKQuS9D1-FHL2TFCi0dKFq99_ZTxUnf-rCD9_VTA6El6s-YMSGAIGY57f2hy6Ot9uPyBPWb52IPX_O57rn5CuhgA8Pf4HmiPYIIjt5YsspthhxfNzOhMDk1fadXo5yVtm_lUIJCulsXbLtli4fAay_uojlq6]--></g></svg>