<?xml version="1.0" encoding="us-ascii" standalone="no"?><svg xmlns="http://www.w3.org/2000/svg" xmlns:xlink="http://www.w3.org/1999/xlink" contentStyleType="text/css" height="986.7498px" preserveAspectRatio="none" style="width:1024px;height:986px;" version="1.1" viewBox="0 0 1024 986" width="1024.7602px" zoomAndPan="magnify"><defs><linearGradient id="g1mss0g77hm7yb0" x1="50%" x2="50%" y1="0%" y2="100%"><stop offset="0%" stop-color="#F4F4F4"/><stop offset="100%" stop-color="#F4F4F4"/></linearGradient></defs><g><text fill="#262626" font-family="sans-serif" font-size="15.2042" font-weight="bold" lengthAdjust="spacing" textLength="285.8382" x="364.1396" y="29.317">Class Diagram: Payment Service</text><!--cluster freemoney--><g id="cluster_freemoney"><polygon fill="#FFFFFF" points="12.1633,53.4284,91.9852,53.4284,97.3066,83.8129,1011.8367,83.8129,1011.8367,981.6422,12.1633,981.6422,12.1633,53.4284" style="stroke:#C6C6C6;stroke-width:0.7602078693392724;"/><line style="stroke:#C6C6C6;stroke-width:0.7602078693392724;" x1="12.1633" x2="97.3066" y1="83.8129" y2="83.8129"/><text fill="#262626" font-family="sans-serif" font-size="9.1225" font-weight="bold" lengthAdjust="spacing" textLength="60.0564" x="22.8062" y="71.0186">freemoney</text></g><!--cluster disturbsment--><g id="cluster_disturbsment"><polygon fill="#FFFFFF" points="30.4083,99.0408,124.6741,99.0408,129.9955,129.4254,993.5917,129.4254,993.5917,963.3972,30.4083,963.3972,30.4083,99.0408" style="stroke:#C6C6C6;stroke-width:0.7602078693392724;"/><line style="stroke:#C6C6C6;stroke-width:0.7602078693392724;" x1="30.4083" x2="129.9955" y1="129.4254" y2="129.4254"/><text fill="#262626" font-family="sans-serif" font-size="9.1225" font-weight="bold" lengthAdjust="spacing" textLength="74.5004" x="41.0512" y="116.631">disturbsment</text></g><!--cluster paymentservice--><g id="cluster_paymentservice"><polygon fill="#FFFFFF" points="48.6533,144.6533,156.6028,144.6533,161.9243,175.0379,975.3467,175.0379,975.3467,945.1522,48.6533,945.1522,48.6533,144.6533" style="stroke:#C6C6C6;stroke-width:0.7602078693392724;"/><line style="stroke:#C6C6C6;stroke-width:0.7602078693392724;" x1="48.6533" x2="161.9243" y1="175.0379" y2="175.0379"/><text fill="#262626" font-family="sans-serif" font-size="9.1225" font-weight="bold" lengthAdjust="spacing" textLength="88.1841" x="59.2962" y="162.2435">paymentservice</text></g><!--class Company--><g id="elem_Company"><rect codeLine="6" fill="url(#g1mss0g77hm7yb0)" height="169.3957" id="Company" style="stroke:#C6C6C6;stroke-width:0.7602078693392724;" width="127.7149" x="835.4684" y="452.1574"/><rect fill="url(#g1mss0g77hm7yb0)" height="32.5405" style="stroke:#C6C6C6;stroke-width:0.7602078693392724;" width="127.7149" x="835.4684" y="452.1574"/><ellipse cx="868.1574" cy="468.4276" fill="#ADD1B2" rx="7.6021" ry="7.6021" style="stroke:#181818;stroke-width:0.7602078693392724;"/><path d="M869.5709,465.9569 C869.072,465.7194 868.7513,465.6481 868.2762,465.6481 C866.8745,465.6481 865.7936,466.7528 865.7936,468.2138 L865.7936,468.8196 C865.7936,470.2094 866.9339,471.219 868.4781,471.219 C869.1314,471.219 869.761,471.0527 870.1529,470.7558 C870.4736,470.5419 870.6399,470.3044 870.6399,470.0906 C870.6399,469.853 870.4261,469.6392 870.1886,469.6392 C870.0698,469.6392 869.9629,469.6867 869.856,469.7817 C869.6065,470.0431 869.6065,470.0431 869.5115,470.0906 C869.2858,470.2331 868.9176,470.3044 868.5019,470.3044 C867.4091,470.3044 866.7082,469.7105 866.7082,468.7958 L866.7082,468.2138 C866.7082,467.2517 867.3853,466.5509 868.3118,466.5509 C868.6206,466.5509 868.9532,466.634 869.2027,466.7765 C869.464,466.9191 869.559,467.0379 869.6065,467.2517 C869.6422,467.4774 869.654,467.5367 869.7253,467.608 C869.7966,467.6912 869.9272,467.7387 870.046,467.7387 C870.2004,467.7387 870.3311,467.6674 870.4261,467.5486 C870.4855,467.4655 870.5093,467.3705 870.5093,467.1329 L870.5093,466.3727 C870.5093,466.147 870.4974,466.0757 870.438,465.9926 C870.3549,465.85 870.2123,465.7669 870.046,465.7669 C869.8916,465.7669 869.7847,465.8263 869.6659,465.9926 L869.5709,465.9569 Z " fill="#000000"/><text fill="#262626" font-family="sans-serif" font-size="8.3623" lengthAdjust="spacing" textLength="41.0512" x="890.2034" y="471.3226">Company</text><line style="stroke:#C6C6C6;stroke-width:0.7602078693392724;" x1="836.2287" x2="962.4232" y1="484.6978" y2="484.6978"/><rect fill="none" height="4.5612" style="stroke:#C82930;stroke-width:0.7602078693392724;" width="4.5612" x="841.5501" y="499.0676"/><text fill="#262626" font-family="sans-serif" font-size="8.3623" lengthAdjust="spacing" textLength="44.0921" x="857.5145" y="503.1028">id: Integer</text><rect fill="none" height="4.5612" style="stroke:#C82930;stroke-width:0.7602078693392724;" width="4.5612" x="841.5501" y="524.0059"/><text fill="#262626" font-family="sans-serif" font-size="8.3623" lengthAdjust="spacing" textLength="55.4952" x="857.5145" y="528.0412">name: String</text><rect fill="none" height="4.5612" style="stroke:#C82930;stroke-width:0.7602078693392724;" width="4.5612" x="841.5501" y="548.9443"/><text fill="#262626" font-family="sans-serif" font-size="8.3623" lengthAdjust="spacing" textLength="91.2249" x="857.5145" y="552.9796">createdAt: DateTime</text><rect fill="none" height="4.5612" style="stroke:#C82930;stroke-width:0.7602078693392724;" width="4.5612" x="841.5501" y="573.8827"/><text fill="#262626" font-family="sans-serif" font-size="8.3623" lengthAdjust="spacing" textLength="93.5056" x="857.5145" y="577.918">updatedAt: DateTime</text><rect fill="none" height="4.5612" style="stroke:#C82930;stroke-width:0.7602078693392724;" width="4.5612" x="841.5501" y="598.8211"/><text fill="#262626" font-family="sans-serif" font-size="8.3623" lengthAdjust="spacing" textLength="91.9852" x="857.5145" y="602.8563">deletedAt: DateTime</text><line style="stroke:#C6C6C6;stroke-width:0.7602078693392724;" x1="836.2287" x2="962.4232" y1="615.4714" y2="615.4714"/></g><!--class Service--><g id="elem_Service"><rect codeLine="14" fill="url(#g1mss0g77hm7yb0)" height="194.3341" id="Service" style="stroke:#C6C6C6;stroke-width:0.7602078693392724;" width="127.7149" x="488.8137" y="339.2665"/><rect fill="url(#g1mss0g77hm7yb0)" height="32.5405" style="stroke:#C6C6C6;stroke-width:0.7602078693392724;" width="127.7149" x="488.8137" y="339.2665"/><ellipse cx="525.3036" cy="355.5367" fill="#ADD1B2" rx="7.6021" ry="7.6021" style="stroke:#181818;stroke-width:0.7602078693392724;"/><path d="M526.7171,353.0661 C526.2183,352.8285 525.8976,352.7572 525.4224,352.7572 C524.0208,352.7572 522.9399,353.8619 522.9399,355.3229 L522.9399,355.9287 C522.9399,357.3185 524.0802,358.3281 525.6244,358.3281 C526.2777,358.3281 526.9072,358.1618 527.2992,357.8649 C527.6199,357.6511 527.7862,357.4135 527.7862,357.1997 C527.7862,356.9621 527.5724,356.7483 527.3348,356.7483 C527.216,356.7483 527.1091,356.7958 527.0022,356.8909 C526.7528,357.1522 526.7528,357.1522 526.6578,357.1997 C526.4321,357.3422 526.0638,357.4135 525.6481,357.4135 C524.5553,357.4135 523.8545,356.8196 523.8545,355.905 L523.8545,355.3229 C523.8545,354.3608 524.5316,353.66 525.4581,353.66 C525.7669,353.66 526.0995,353.7431 526.3489,353.8857 C526.6102,354.0282 526.7053,354.147 526.7528,354.3608 C526.7884,354.5865 526.8003,354.6459 526.8716,354.7171 C526.9428,354.8003 527.0735,354.8478 527.1923,354.8478 C527.3467,354.8478 527.4774,354.7765 527.5724,354.6578 C527.6318,354.5746 527.6555,354.4796 527.6555,354.242 L527.6555,353.4818 C527.6555,353.2561 527.6437,353.1849 527.5843,353.1017 C527.5011,352.9592 527.3586,352.876 527.1923,352.876 C527.0379,352.876 526.931,352.9354 526.8122,353.1017 L526.7171,353.0661 Z " fill="#000000"/><text fill="#262626" font-family="sans-serif" font-size="8.3623" lengthAdjust="spacing" textLength="33.4491" x="547.3497" y="358.4317">Service</text><line style="stroke:#C6C6C6;stroke-width:0.7602078693392724;" x1="489.5739" x2="615.7684" y1="371.807" y2="371.807"/><rect fill="none" height="4.5612" style="stroke:#C82930;stroke-width:0.7602078693392724;" width="4.5612" x="494.8953" y="386.1767"/><text fill="#262626" font-family="sans-serif" font-size="8.3623" lengthAdjust="spacing" textLength="44.0921" x="510.8597" y="390.212">id: Integer</text><rect fill="none" height="4.5612" style="stroke:#C82930;stroke-width:0.7602078693392724;" width="4.5612" x="494.8953" y="411.1151"/><text fill="#262626" font-family="sans-serif" font-size="8.3623" lengthAdjust="spacing" textLength="55.4952" x="510.8597" y="415.1503">name: String</text><rect fill="none" height="4.5612" style="stroke:#C82930;stroke-width:0.7602078693392724;" width="4.5612" x="494.8953" y="436.0535"/><text fill="#262626" font-family="sans-serif" font-size="8.3623" lengthAdjust="spacing" textLength="51.6941" x="510.8597" y="440.0887">code: String</text><rect fill="none" height="4.5612" style="stroke:#C82930;stroke-width:0.7602078693392724;" width="4.5612" x="494.8953" y="460.9918"/><text fill="#262626" font-family="sans-serif" font-size="8.3623" lengthAdjust="spacing" textLength="91.2249" x="510.8597" y="465.0271">createdAt: DateTime</text><rect fill="none" height="4.5612" style="stroke:#C82930;stroke-width:0.7602078693392724;" width="4.5612" x="494.8953" y="485.9302"/><text fill="#262626" font-family="sans-serif" font-size="8.3623" lengthAdjust="spacing" textLength="93.5056" x="510.8597" y="489.9655">updatedAt: DateTime</text><rect fill="none" height="4.5612" style="stroke:#C82930;stroke-width:0.7602078693392724;" width="4.5612" x="494.8953" y="510.8686"/><text fill="#262626" font-family="sans-serif" font-size="8.3623" lengthAdjust="spacing" textLength="91.9852" x="510.8597" y="514.9039">deletedAt: DateTime</text><line style="stroke:#C6C6C6;stroke-width:0.7602078693392724;" x1="489.5739" x2="615.7684" y1="527.5189" y2="527.5189"/></g><!--class Campaign--><g id="elem_Campaign"><rect codeLine="23" fill="url(#g1mss0g77hm7yb0)" height="269.1492" id="Campaign" style="stroke:#C6C6C6;stroke-width:0.7602078693392724;" width="127.7149" x="274.8151" y="530.0787"/><rect fill="url(#g1mss0g77hm7yb0)" height="32.5405" style="stroke:#C6C6C6;stroke-width:0.7602078693392724;" width="127.7149" x="274.8151" y="530.0787"/><ellipse cx="306.3638" cy="546.3489" fill="#ADD1B2" rx="7.6021" ry="7.6021" style="stroke:#181818;stroke-width:0.7602078693392724;"/><path d="M307.7773,543.8782 C307.2784,543.6407 306.9577,543.5694 306.4826,543.5694 C305.0809,543.5694 304,544.6741 304,546.1351 L304,546.7409 C304,548.1307 305.1403,549.1403 306.6845,549.1403 C307.3378,549.1403 307.9673,548.974 308.3593,548.6771 C308.68,548.4633 308.8463,548.2257 308.8463,548.0119 C308.8463,547.7743 308.6325,547.5605 308.395,547.5605 C308.2762,547.5605 308.1693,547.608 308.0624,547.703 C307.8129,547.9644 307.8129,547.9644 307.7179,548.0119 C307.4922,548.1544 307.124,548.2257 306.7082,548.2257 C305.6154,548.2257 304.9146,547.6318 304.9146,546.7171 L304.9146,546.1351 C304.9146,545.173 305.5917,544.4722 306.5182,544.4722 C306.827,544.4722 307.1596,544.5553 307.4091,544.6978 C307.6704,544.8404 307.7654,544.9592 307.8129,545.173 C307.8486,545.3987 307.8604,545.4581 307.9317,545.5293 C308.003,545.6125 308.1336,545.66 308.2524,545.66 C308.4068,545.66 308.5375,545.5887 308.6325,545.4699 C308.6919,545.3868 308.7157,545.2918 308.7157,545.0542 L308.7157,544.294 C308.7157,544.0683 308.7038,543.997 308.6444,543.9139 C308.5612,543.7713 308.4187,543.6882 308.2524,543.6882 C308.098,543.6882 307.9911,543.7476 307.8723,543.9139 L307.7773,543.8782 Z " fill="#000000"/><text fill="#262626" font-family="sans-serif" font-size="8.3623" lengthAdjust="spacing" textLength="43.3318" x="328.4098" y="549.2439">Campaign</text><line style="stroke:#C6C6C6;stroke-width:0.7602078693392724;" x1="275.5754" x2="401.7699" y1="562.6192" y2="562.6192"/><rect fill="none" height="4.5612" style="stroke:#C82930;stroke-width:0.7602078693392724;" width="4.5612" x="280.8968" y="576.9889"/><text fill="#262626" font-family="sans-serif" font-size="8.3623" lengthAdjust="spacing" textLength="44.0921" x="296.8612" y="581.0241">id: Integer</text><rect fill="none" height="4.5612" style="stroke:#C82930;stroke-width:0.7602078693392724;" width="4.5612" x="280.8968" y="601.9272"/><text fill="#262626" font-family="sans-serif" font-size="8.3623" lengthAdjust="spacing" textLength="55.4952" x="296.8612" y="605.9625">name: String</text><rect fill="none" height="4.5612" style="stroke:#C82930;stroke-width:0.7602078693392724;" width="4.5612" x="280.8968" y="626.8656"/><text fill="#262626" font-family="sans-serif" font-size="8.3623" lengthAdjust="spacing" textLength="51.6941" x="296.8612" y="630.9009">code: String</text><rect fill="none" height="4.5612" style="stroke:#C82930;stroke-width:0.7602078693392724;" width="4.5612" x="280.8968" y="651.804"/><text fill="#262626" font-family="sans-serif" font-size="8.3623" lengthAdjust="spacing" textLength="54.735" x="296.8612" y="655.8393">startAt: Date</text><rect fill="none" height="4.5612" style="stroke:#C82930;stroke-width:0.7602078693392724;" width="4.5612" x="280.8968" y="676.7424"/><text fill="#262626" font-family="sans-serif" font-size="8.3623" lengthAdjust="spacing" textLength="79.8218" x="296.8612" y="680.7777">amountTotal: Float</text><rect fill="none" height="4.5612" style="stroke:#C82930;stroke-width:0.7602078693392724;" width="4.5612" x="280.8968" y="701.6808"/><text fill="#262626" font-family="sans-serif" font-size="8.3623" lengthAdjust="spacing" textLength="75.2606" x="296.8612" y="705.716">totalItem: Integer</text><rect fill="none" height="4.5612" style="stroke:#C82930;stroke-width:0.7602078693392724;" width="4.5612" x="280.8968" y="726.6192"/><text fill="#262626" font-family="sans-serif" font-size="8.3623" lengthAdjust="spacing" textLength="91.2249" x="296.8612" y="730.6544">createdAt: DateTime</text><rect fill="none" height="4.5612" style="stroke:#C82930;stroke-width:0.7602078693392724;" width="4.5612" x="280.8968" y="751.5575"/><text fill="#262626" font-family="sans-serif" font-size="8.3623" lengthAdjust="spacing" textLength="93.5056" x="296.8612" y="755.5928">updatedAt: DateTime</text><rect fill="none" height="4.5612" style="stroke:#C82930;stroke-width:0.7602078693392724;" width="4.5612" x="280.8968" y="776.4959"/><text fill="#262626" font-family="sans-serif" font-size="8.3623" lengthAdjust="spacing" textLength="91.9852" x="296.8612" y="780.5312">deletedAt: DateTime</text><line style="stroke:#C6C6C6;stroke-width:0.7602078693392724;" x1="275.5754" x2="401.7699" y1="793.1463" y2="793.1463"/></g><!--class Beneficiary--><g id="elem_Beneficiary"><rect codeLine="35" fill="url(#g1mss0g77hm7yb0)" height="194.3341" id="Beneficiary" style="stroke:#C6C6C6;stroke-width:0.7602078693392724;" width="127.7149" x="60.8166" y="406.925"/><rect fill="url(#g1mss0g77hm7yb0)" height="32.5405" style="stroke:#C6C6C6;stroke-width:0.7602078693392724;" width="127.7149" x="60.8166" y="406.925"/><ellipse cx="89.5905" cy="423.1952" fill="#ADD1B2" rx="7.6021" ry="7.6021" style="stroke:#181818;stroke-width:0.7602078693392724;"/><path d="M91.004,420.7246 C90.5051,420.487 90.1844,420.4157 89.7093,420.4157 C88.3076,420.4157 87.2267,421.5204 87.2267,422.9814 L87.2267,423.5872 C87.2267,424.977 88.367,425.9866 89.9112,425.9866 C90.5645,425.9866 91.1941,425.8203 91.586,425.5234 C91.9068,425.3096 92.0731,425.072 92.0731,424.8582 C92.0731,424.6206 91.8592,424.4068 91.6217,424.4068 C91.5029,424.4068 91.396,424.4543 91.2891,424.5494 C91.0396,424.8107 91.0396,424.8107 90.9446,424.8582 C90.7189,425.0007 90.3507,425.072 89.935,425.072 C88.8422,425.072 88.1414,424.4781 88.1414,423.5635 L88.1414,422.9814 C88.1414,422.0193 88.8184,421.3185 89.7449,421.3185 C90.0537,421.3185 90.3863,421.4016 90.6358,421.5442 C90.8971,421.6867 90.9921,421.8055 91.0396,422.0193 C91.0753,422.245 91.0872,422.3044 91.1584,422.3756 C91.2297,422.4588 91.3604,422.5063 91.4791,422.5063 C91.6336,422.5063 91.7642,422.435 91.8592,422.3163 C91.9186,422.2331 91.9424,422.1381 91.9424,421.9005 L91.9424,421.1403 C91.9424,420.9146 91.9305,420.8434 91.8711,420.7602 C91.788,420.6177 91.6454,420.5345 91.4791,420.5345 C91.3247,420.5345 91.2178,420.5939 91.099,420.7602 L91.004,420.7246 Z " fill="#000000"/><text fill="#262626" font-family="sans-serif" font-size="8.3623" lengthAdjust="spacing" textLength="49.4135" x="111.1044" y="426.0902">Beneficiary</text><line style="stroke:#C6C6C6;stroke-width:0.7602078693392724;" x1="61.5768" x2="187.7713" y1="439.4655" y2="439.4655"/><rect fill="none" height="4.5612" style="stroke:#C82930;stroke-width:0.7602078693392724;" width="4.5612" x="66.8983" y="453.8352"/><text fill="#262626" font-family="sans-serif" font-size="8.3623" lengthAdjust="spacing" textLength="55.4952" x="82.8627" y="457.8705">name: String</text><rect fill="none" height="4.5612" style="stroke:#C82930;stroke-width:0.7602078693392724;" width="4.5612" x="66.8983" y="478.7736"/><text fill="#262626" font-family="sans-serif" font-size="8.3623" lengthAdjust="spacing" textLength="69.1789" x="82.8627" y="482.8088">amount: Double</text><rect fill="none" height="4.5612" style="stroke:#C82930;stroke-width:0.7602078693392724;" width="4.5612" x="66.8983" y="503.712"/><text fill="#262626" font-family="sans-serif" font-size="8.3623" lengthAdjust="spacing" textLength="55.4952" x="82.8627" y="507.7472">msisd: String</text><rect fill="none" height="4.5612" style="stroke:#C82930;stroke-width:0.7602078693392724;" width="4.5612" x="66.8983" y="528.6503"/><text fill="#262626" font-family="sans-serif" font-size="8.3623" lengthAdjust="spacing" textLength="91.2249" x="82.8627" y="532.6856">createdAt: DateTime</text><rect fill="none" height="4.5612" style="stroke:#C82930;stroke-width:0.7602078693392724;" width="4.5612" x="66.8983" y="553.5887"/><text fill="#262626" font-family="sans-serif" font-size="8.3623" lengthAdjust="spacing" textLength="93.5056" x="82.8627" y="557.624">updatedAt: DateTime</text><rect fill="none" height="4.5612" style="stroke:#C82930;stroke-width:0.7602078693392724;" width="4.5612" x="66.8983" y="578.5271"/><text fill="#262626" font-family="sans-serif" font-size="8.3623" lengthAdjust="spacing" textLength="91.9852" x="82.8627" y="582.5624">deletedAt: DateTime</text><line style="stroke:#C6C6C6;stroke-width:0.7602078693392724;" x1="61.5768" x2="187.7713" y1="595.1774" y2="595.1774"/></g><!--class Transaction--><g id="elem_Transaction"><rect codeLine="44" fill="url(#g1mss0g77hm7yb0)" height="319.026" id="Transaction" style="stroke:#C6C6C6;stroke-width:0.7602078693392724;" width="209.0572" x="234.144" y="184.1841"/><rect fill="url(#g1mss0g77hm7yb0)" height="32.5405" style="stroke:#C6C6C6;stroke-width:0.7602078693392724;" width="209.0572" x="234.144" y="184.1841"/><ellipse cx="303.3229" cy="200.4543" fill="#ADD1B2" rx="7.6021" ry="7.6021" style="stroke:#181818;stroke-width:0.7602078693392724;"/><path d="M304.7365,197.9837 C304.2376,197.7461 303.9169,197.6748 303.4417,197.6748 C302.0401,197.6748 300.9592,198.7795 300.9592,200.2405 L300.9592,200.8463 C300.9592,202.2361 302.0995,203.2457 303.6437,203.2457 C304.297,203.2457 304.9265,203.0794 305.3185,202.7825 C305.6392,202.5687 305.8055,202.3311 305.8055,202.1173 C305.8055,201.8797 305.5917,201.6659 305.3541,201.6659 C305.2353,201.6659 305.1284,201.7134 305.0215,201.8085 C304.7721,202.0698 304.7721,202.0698 304.6771,202.1173 C304.4514,202.2598 304.0831,202.3311 303.6674,202.3311 C302.5746,202.3311 301.8738,201.7372 301.8738,200.8226 L301.8738,200.2405 C301.8738,199.2784 302.5509,198.5776 303.4774,198.5776 C303.7862,198.5776 304.1188,198.6607 304.3682,198.8033 C304.6295,198.9458 304.7246,199.0646 304.7721,199.2784 C304.8077,199.5041 304.8196,199.5635 304.8909,199.6347 C304.9621,199.7179 305.0928,199.7654 305.2116,199.7654 C305.366,199.7654 305.4967,199.6941 305.5917,199.5754 C305.6511,199.4922 305.6748,199.3972 305.6748,199.1596 L305.6748,198.3994 C305.6748,198.1737 305.663,198.1024 305.6036,198.0193 C305.5204,197.8768 305.3779,197.7936 305.2116,197.7936 C305.0572,197.7936 304.9503,197.853 304.8315,198.0193 L304.7365,197.9837 Z " fill="#000000"/><text fill="#262626" font-family="sans-serif" font-size="8.3623" lengthAdjust="spacing" textLength="49.4135" x="325.369" y="203.3493">Transaction</text><line style="stroke:#C6C6C6;stroke-width:0.7602078693392724;" x1="234.9042" x2="442.441" y1="216.7246" y2="216.7246"/><rect fill="none" height="4.5612" style="stroke:#C82930;stroke-width:0.7602078693392724;" width="4.5612" x="240.2257" y="231.0943"/><text fill="#262626" font-family="sans-serif" font-size="8.3623" lengthAdjust="spacing" textLength="44.0921" x="256.1901" y="235.1295">id: Integer</text><rect fill="none" height="4.5612" style="stroke:#C82930;stroke-width:0.7602078693392724;" width="4.5612" x="240.2257" y="256.0327"/><text fill="#262626" font-family="sans-serif" font-size="8.3623" lengthAdjust="spacing" textLength="69.1789" x="256.1901" y="260.0679">amount: Double</text><rect fill="none" height="4.5612" style="stroke:#C82930;stroke-width:0.7602078693392724;" width="4.5612" x="240.2257" y="280.971"/><text fill="#262626" font-family="sans-serif" font-size="8.3623" lengthAdjust="spacing" textLength="60.8166" x="256.1901" y="285.0063">msisdn: String</text><rect fill="none" height="4.5612" style="stroke:#C82930;stroke-width:0.7602078693392724;" width="4.5612" x="240.2257" y="305.9094"/><text fill="#262626" font-family="sans-serif" font-size="8.3623" lengthAdjust="spacing" textLength="85.1433" x="256.1901" y="309.9447">serviceCode: String</text><rect fill="none" height="4.5612" style="stroke:#C82930;stroke-width:0.7602078693392724;" width="4.5612" x="240.2257" y="330.8478"/><text fill="#262626" font-family="sans-serif" font-size="8.3623" lengthAdjust="spacing" textLength="95.026" x="256.1901" y="334.8831">campaignCode: String</text><rect fill="none" height="4.5612" style="stroke:#C82930;stroke-width:0.7602078693392724;" width="4.5612" x="240.2257" y="355.7862"/><text fill="#262626" font-family="sans-serif" font-size="8.3623" lengthAdjust="spacing" textLength="82.1024" x="256.1901" y="359.8215">smsContent: String</text><rect fill="none" height="4.5612" style="stroke:#C82930;stroke-width:0.7602078693392724;" width="4.5612" x="240.2257" y="380.7246"/><text fill="#262626" font-family="sans-serif" font-size="8.3623" lengthAdjust="spacing" textLength="56.2554" x="256.1901" y="384.7598">status: String</text><text fill="#262626" font-family="sans-serif" font-size="8.3623" lengthAdjust="spacing" textLength="174.8478" x="256.1901" y="409.6982">"START","FAILED","RUNNING", "SUCCESS</text><rect fill="none" height="4.5612" style="stroke:#C82930;stroke-width:0.7602078693392724;" width="4.5612" x="240.2257" y="430.6013"/><text fill="#262626" font-family="sans-serif" font-size="8.3623" lengthAdjust="spacing" textLength="91.2249" x="256.1901" y="434.6366">createdAt: DateTime</text><rect fill="none" height="4.5612" style="stroke:#C82930;stroke-width:0.7602078693392724;" width="4.5612" x="240.2257" y="455.5397"/><text fill="#262626" font-family="sans-serif" font-size="8.3623" lengthAdjust="spacing" textLength="93.5056" x="256.1901" y="459.575">updatedAt: DateTime</text><rect fill="none" height="4.5612" style="stroke:#C82930;stroke-width:0.7602078693392724;" width="4.5612" x="240.2257" y="480.4781"/><text fill="#262626" font-family="sans-serif" font-size="8.3623" lengthAdjust="spacing" textLength="91.9852" x="256.1901" y="484.5134">deletedAt: DateTime</text><line style="stroke:#C6C6C6;stroke-width:0.7602078693392724;" x1="234.9042" x2="442.441" y1="497.1284" y2="497.1284"/></g><!--class User--><g id="elem_User"><rect codeLine="57" fill="url(#g1mss0g77hm7yb0)" height="269.1492" id="User" style="stroke:#C6C6C6;stroke-width:0.7602078693392724;" width="127.7149" x="662.1411" y="663.8753"/><rect fill="url(#g1mss0g77hm7yb0)" height="32.5405" style="stroke:#C6C6C6;stroke-width:0.7602078693392724;" width="127.7149" x="662.1411" y="663.8753"/><ellipse cx="705.4729" cy="680.1455" fill="#ADD1B2" rx="7.6021" ry="7.6021" style="stroke:#181818;stroke-width:0.7602078693392724;"/><path d="M706.8864,677.6748 C706.3875,677.4373 706.0668,677.366 705.5917,677.366 C704.1901,677.366 703.1091,678.4707 703.1091,679.9317 L703.1091,680.5375 C703.1091,681.9272 704.2494,682.9369 705.7936,682.9369 C706.4469,682.9369 707.0765,682.7706 707.4684,682.4736 C707.7892,682.2598 707.9555,682.0223 707.9555,681.8085 C707.9555,681.5709 707.7416,681.3571 707.5041,681.3571 C707.3853,681.3571 707.2784,681.4046 707.1715,681.4996 C706.922,681.761 706.922,681.761 706.827,681.8085 C706.6013,681.951 706.2331,682.0223 705.8174,682.0223 C704.7246,682.0223 704.0238,681.4284 704.0238,680.5137 L704.0238,679.9317 C704.0238,678.9696 704.7008,678.2687 705.6273,678.2687 C705.9362,678.2687 706.2687,678.3519 706.5182,678.4944 C706.7795,678.637 706.8745,678.7558 706.922,678.9696 C706.9577,679.1952 706.9696,679.2546 707.0408,679.3259 C707.1121,679.4091 707.2428,679.4566 707.3615,679.4566 C707.516,679.4566 707.6466,679.3853 707.7416,679.2665 C707.801,679.1834 707.8248,679.0883 707.8248,678.8508 L707.8248,678.0906 C707.8248,677.8649 707.8129,677.7936 707.7535,677.7105 C707.6704,677.5679 707.5278,677.4848 707.3615,677.4848 C707.2071,677.4848 707.1002,677.5442 706.9814,677.7105 L706.8864,677.6748 Z " fill="#000000"/><text fill="#262626" font-family="sans-serif" font-size="8.3623" lengthAdjust="spacing" textLength="19.7654" x="727.5189" y="683.0405">User</text><line style="stroke:#C6C6C6;stroke-width:0.7602078693392724;" x1="662.9013" x2="789.0958" y1="696.4157" y2="696.4157"/><rect fill="none" height="4.5612" style="stroke:#C82930;stroke-width:0.7602078693392724;" width="4.5612" x="668.2227" y="710.7854"/><text fill="#262626" font-family="sans-serif" font-size="8.3623" lengthAdjust="spacing" textLength="44.0921" x="684.1871" y="714.8207">id: Integer</text><rect fill="none" height="4.5612" style="stroke:#C82930;stroke-width:0.7602078693392724;" width="4.5612" x="668.2227" y="735.7238"/><text fill="#262626" font-family="sans-serif" font-size="8.3623" lengthAdjust="spacing" textLength="71.4595" x="684.1871" y="739.7591">firstname: String</text><rect fill="none" height="4.5612" style="stroke:#C82930;stroke-width:0.7602078693392724;" width="4.5612" x="668.2227" y="760.6622"/><text fill="#262626" font-family="sans-serif" font-size="8.3623" lengthAdjust="spacing" textLength="70.6993" x="684.1871" y="764.6975">lastname: String</text><rect fill="none" height="4.5612" style="stroke:#C82930;stroke-width:0.7602078693392724;" width="4.5612" x="668.2227" y="785.6006"/><text fill="#262626" font-family="sans-serif" font-size="8.3623" lengthAdjust="spacing" textLength="54.735" x="684.1871" y="789.6359">email: String</text><rect fill="none" height="4.5612" style="stroke:#C82930;stroke-width:0.7602078693392724;" width="4.5612" x="668.2227" y="810.539"/><text fill="#262626" font-family="sans-serif" font-size="8.3623" lengthAdjust="spacing" textLength="57.7758" x="684.1871" y="814.5742">phone: String</text><rect fill="none" height="4.5612" style="stroke:#C82930;stroke-width:0.7602078693392724;" width="4.5612" x="668.2227" y="835.4774"/><text fill="#262626" font-family="sans-serif" font-size="8.3623" lengthAdjust="spacing" textLength="70.6993" x="684.1871" y="839.5126">password: String</text><rect fill="none" height="4.5612" style="stroke:#C82930;stroke-width:0.7602078693392724;" width="4.5612" x="668.2227" y="860.4157"/><text fill="#262626" font-family="sans-serif" font-size="8.3623" lengthAdjust="spacing" textLength="91.2249" x="684.1871" y="864.451">createdAt: DateTime</text><rect fill="none" height="4.5612" style="stroke:#C82930;stroke-width:0.7602078693392724;" width="4.5612" x="668.2227" y="885.3541"/><text fill="#262626" font-family="sans-serif" font-size="8.3623" lengthAdjust="spacing" textLength="93.5056" x="684.1871" y="889.3894">updatedAt: DateTime</text><rect fill="none" height="4.5612" style="stroke:#C82930;stroke-width:0.7602078693392724;" width="4.5612" x="668.2227" y="910.2925"/><text fill="#262626" font-family="sans-serif" font-size="8.3623" lengthAdjust="spacing" textLength="91.9852" x="684.1871" y="914.3278">deletedAt: DateTime</text><line style="stroke:#C6C6C6;stroke-width:0.7602078693392724;" x1="662.9013" x2="789.0958" y1="926.9428" y2="926.9428"/></g><!--class Subscription--><g id="elem_Subscription"><rect codeLine="68" fill="url(#g1mss0g77hm7yb0)" height="144.4573" id="Subscription" style="stroke:#C6C6C6;stroke-width:0.7602078693392724;" width="127.7149" x="662.1411" y="464.7008"/><rect fill="url(#g1mss0g77hm7yb0)" height="32.5405" style="stroke:#C6C6C6;stroke-width:0.7602078693392724;" width="127.7149" x="662.1411" y="464.7008"/><ellipse cx="689.5465" cy="480.971" fill="#ADD1B2" rx="7.6021" ry="7.6021" style="stroke:#181818;stroke-width:0.7602078693392724;"/><path d="M690.9601,478.5004 C690.4612,478.2628 690.1405,478.1915 689.6653,478.1915 C688.2637,478.1915 687.1828,479.2962 687.1828,480.7572 L687.1828,481.363 C687.1828,482.7528 688.3231,483.7624 689.8673,483.7624 C690.5206,483.7624 691.1501,483.5961 691.5421,483.2992 C691.8628,483.0854 692.0291,482.8478 692.0291,482.634 C692.0291,482.3964 691.8153,482.1826 691.5777,482.1826 C691.4589,482.1826 691.352,482.2301 691.2451,482.3252 C690.9957,482.5865 690.9957,482.5865 690.9007,482.634 C690.675,482.7765 690.3068,482.8478 689.891,482.8478 C688.7982,482.8478 688.0974,482.2539 688.0974,481.3393 L688.0974,480.7572 C688.0974,479.7951 688.7745,479.0943 689.701,479.0943 C690.0098,479.0943 690.3424,479.1774 690.5918,479.32 C690.8532,479.4625 690.9482,479.5813 690.9957,479.7951 C691.0313,480.0208 691.0432,480.0802 691.1145,480.1514 C691.1857,480.2346 691.3164,480.2821 691.4352,480.2821 C691.5896,480.2821 691.7203,480.2108 691.8153,480.0921 C691.8747,480.0089 691.8984,479.9139 691.8984,479.6763 L691.8984,478.9161 C691.8984,478.6904 691.8866,478.6192 691.8272,478.536 C691.744,478.3935 691.6015,478.3103 691.4352,478.3103 C691.2808,478.3103 691.1739,478.3697 691.0551,478.536 L690.9601,478.5004 Z " fill="#000000"/><text fill="#262626" font-family="sans-serif" font-size="8.3623" lengthAdjust="spacing" textLength="52.4543" x="710.7563" y="483.866">Subscription</text><line style="stroke:#C6C6C6;stroke-width:0.7602078693392724;" x1="662.9013" x2="789.0958" y1="497.2413" y2="497.2413"/><rect fill="none" height="4.5612" style="stroke:#C82930;stroke-width:0.7602078693392724;" width="4.5612" x="668.2227" y="511.611"/><text fill="#262626" font-family="sans-serif" font-size="8.3623" lengthAdjust="spacing" textLength="44.0921" x="684.1871" y="515.6463">id: Integer</text><rect fill="none" height="4.5612" style="stroke:#C82930;stroke-width:0.7602078693392724;" width="4.5612" x="668.2227" y="536.5494"/><text fill="#262626" font-family="sans-serif" font-size="8.3623" lengthAdjust="spacing" textLength="91.2249" x="684.1871" y="540.5846">createdAt: DateTime</text><rect fill="none" height="4.5612" style="stroke:#C82930;stroke-width:0.7602078693392724;" width="4.5612" x="668.2227" y="561.4878"/><text fill="#262626" font-family="sans-serif" font-size="8.3623" lengthAdjust="spacing" textLength="93.5056" x="684.1871" y="565.523">updatedAt: DateTime</text><rect fill="none" height="4.5612" style="stroke:#C82930;stroke-width:0.7602078693392724;" width="4.5612" x="668.2227" y="586.4261"/><text fill="#262626" font-family="sans-serif" font-size="8.3623" lengthAdjust="spacing" textLength="91.9852" x="684.1871" y="590.4614">deletedAt: DateTime</text><line style="stroke:#C6C6C6;stroke-width:0.7602078693392724;" x1="662.9013" x2="789.0958" y1="603.0765" y2="603.0765"/></g><!--class FeesPlan--><g id="elem_FeesPlan"><rect codeLine="74" fill="url(#g1mss0g77hm7yb0)" height="194.3341" id="FeesPlan" style="stroke:#C6C6C6;stroke-width:0.7602078693392724;" width="127.7149" x="662.1411" y="184.1841"/><rect fill="url(#g1mss0g77hm7yb0)" height="32.5405" style="stroke:#C6C6C6;stroke-width:0.7602078693392724;" width="127.7149" x="662.1411" y="184.1841"/><ellipse cx="695.9703" cy="200.4543" fill="#ADD1B2" rx="7.6021" ry="7.6021" style="stroke:#181818;stroke-width:0.7602078693392724;"/><path d="M697.3838,197.9837 C696.8849,197.7461 696.5642,197.6748 696.0891,197.6748 C694.6875,197.6748 693.6065,198.7795 693.6065,200.2405 L693.6065,200.8463 C693.6065,202.2361 694.7468,203.2457 696.291,203.2457 C696.9443,203.2457 697.5739,203.0794 697.9659,202.7825 C698.2866,202.5687 698.4529,202.3311 698.4529,202.1173 C698.4529,201.8797 698.239,201.6659 698.0015,201.6659 C697.8827,201.6659 697.7758,201.7134 697.6689,201.8085 C697.4195,202.0698 697.4195,202.0698 697.3244,202.1173 C697.0987,202.2598 696.7305,202.3311 696.3148,202.3311 C695.222,202.3311 694.5212,201.7372 694.5212,200.8226 L694.5212,200.2405 C694.5212,199.2784 695.1982,198.5776 696.1247,198.5776 C696.4336,198.5776 696.7661,198.6607 697.0156,198.8033 C697.2769,198.9458 697.3719,199.0646 697.4195,199.2784 C697.4551,199.5041 697.467,199.5635 697.5382,199.6347 C697.6095,199.7179 697.7402,199.7654 697.8589,199.7654 C698.0134,199.7654 698.144,199.6941 698.239,199.5754 C698.2984,199.4922 698.3222,199.3972 698.3222,199.1596 L698.3222,198.3994 C698.3222,198.1737 698.3103,198.1024 698.2509,198.0193 C698.1678,197.8768 698.0252,197.7936 697.8589,197.7936 C697.7045,197.7936 697.5976,197.853 697.4788,198.0193 L697.3838,197.9837 Z " fill="#000000"/><text fill="#262626" font-family="sans-serif" font-size="8.3623" lengthAdjust="spacing" textLength="38.7706" x="718.0163" y="203.3493">FeesPlan</text><line style="stroke:#C6C6C6;stroke-width:0.7602078693392724;" x1="662.9013" x2="789.0958" y1="216.7246" y2="216.7246"/><rect fill="none" height="4.5612" style="stroke:#C82930;stroke-width:0.7602078693392724;" width="4.5612" x="668.2227" y="231.0943"/><text fill="#262626" font-family="sans-serif" font-size="8.3623" lengthAdjust="spacing" textLength="44.0921" x="684.1871" y="235.1295">id: Integer</text><rect fill="none" height="4.5612" style="stroke:#C82930;stroke-width:0.7602078693392724;" width="4.5612" x="668.2227" y="256.0327"/><text fill="#262626" font-family="sans-serif" font-size="8.3623" lengthAdjust="spacing" textLength="71.4595" x="684.1871" y="260.0679">isFixed: Boolean</text><rect fill="none" height="4.5612" style="stroke:#C82930;stroke-width:0.7602078693392724;" width="4.5612" x="668.2227" y="280.971"/><text fill="#262626" font-family="sans-serif" font-size="8.3623" lengthAdjust="spacing" textLength="41.0512" x="684.1871" y="285.0063">fee: Float</text><rect fill="none" height="4.5612" style="stroke:#C82930;stroke-width:0.7602078693392724;" width="4.5612" x="668.2227" y="305.9094"/><text fill="#262626" font-family="sans-serif" font-size="8.3623" lengthAdjust="spacing" textLength="91.2249" x="684.1871" y="309.9447">createdAt: DateTime</text><rect fill="none" height="4.5612" style="stroke:#C82930;stroke-width:0.7602078693392724;" width="4.5612" x="668.2227" y="330.8478"/><text fill="#262626" font-family="sans-serif" font-size="8.3623" lengthAdjust="spacing" textLength="93.5056" x="684.1871" y="334.8831">updatedAt: DateTime</text><rect fill="none" height="4.5612" style="stroke:#C82930;stroke-width:0.7602078693392724;" width="4.5612" x="668.2227" y="355.7862"/><text fill="#262626" font-family="sans-serif" font-size="8.3623" lengthAdjust="spacing" textLength="91.9852" x="684.1871" y="359.8215">deletedAt: DateTime</text><line style="stroke:#C6C6C6;stroke-width:0.7602078693392724;" x1="662.9013" x2="789.0958" y1="372.4365" y2="372.4365"/></g><ellipse cx="725.9985" cy="436.5731" fill="#C6C6C6" rx="1.5204" ry="1.5204" style="stroke:#C6C6C6;stroke-width:0.7602078693392724;"/><ellipse cx="725.9985" cy="406.925" fill="#C6C6C6" rx="1.5204" ry="1.5204" style="stroke:#C6C6C6;stroke-width:0.7602078693392724;"/><!--link User to Company--><g id="link_User_Company"><path codeLine="84" d="M790.0004,702.1692 C807.318,675.809 820.9483,655.058 837.8173,629.388 " fill="none" id="User-to-Company" style="stroke:#C6C6C6;stroke-width:0.7602078693392724;"/><polygon fill="none" points="842.8273,621.7643,837.7811,623.9062,837.8173,629.388,842.8635,627.2461,842.8273,621.7643" style="stroke:#C6C6C6;stroke-width:0.7602078693392724;"/><text fill="#262626" font-family="sans-serif" font-size="9.1225" lengthAdjust="spacing" textLength="5.3215" x="803.5205" y="711.5955">*</text><text fill="#262626" font-family="sans-serif" font-size="9.1225" lengthAdjust="spacing" textLength="5.3215" x="825.8355" y="643.7951">1</text></g><!--link Campaign to Company--><g id="link_Campaign_Company"><path codeLine="86" d="M402.733,663.0276 C509.6624,659.5885 721.1339,649.4587 789.856,622.0638 C805.7747,615.7169 813.9228,611.6632 828.0095,601.3479 " fill="none" id="Campaign-to-Company" style="stroke:#C6C6C6;stroke-width:0.7602078693392724;"/><polygon fill="none" points="835.3696,595.9583,829.893,596.1997,828.0095,601.3479,833.4861,601.1065,835.3696,595.9583" style="stroke:#C6C6C6;stroke-width:0.7602078693392724;"/><text fill="#262626" font-family="sans-serif" font-size="9.1225" lengthAdjust="spacing" textLength="5.3215" x="416.2578" y="679.9968">*</text><text fill="#262626" font-family="sans-serif" font-size="9.1225" lengthAdjust="spacing" textLength="5.3215" x="816.5318" y="617.7668">1</text></g><!--link Campaign to Service--><g id="link_Campaign_Service"><path codeLine="88" d="M402.6076,596.8265 C429.8261,567.6124 455.3652,540.1992 482.5776,510.992 " fill="none" id="Campaign-to-Service" style="stroke:#C6C6C6;stroke-width:0.7602078693392724;"/><polygon fill="none" points="488.7962,504.3175,483.462,505.5819,482.5776,510.992,487.9117,509.7276,488.7962,504.3175" style="stroke:#C6C6C6;stroke-width:0.7602078693392724;"/><text fill="#262626" font-family="sans-serif" font-size="9.1225" lengthAdjust="spacing" textLength="5.3215" x="416.1223" y="608.5202">*</text><text fill="#262626" font-family="sans-serif" font-size="9.1225" lengthAdjust="spacing" textLength="5.3215" x="469.7331" y="527.0782">1</text></g><!--link Service to apoint17--><g id="link_Service_apoint17"><path d="M616.6738,436.5731 C662.2171,436.5731 716.9125,436.5731 724.3793,436.5731 " fill="none" id="Service-apoint17" style="stroke:#C6C6C6;stroke-width:0.7602078693392724;"/><text fill="#262626" font-family="sans-serif" font-size="9.1225" lengthAdjust="spacing" textLength="15.9644" x="630.1205" y="453.6014">0..*</text></g><!--link apoint17 to Company--><g id="link_apoint17_Company"><path d="M727.6983,436.6332 C733.6264,437.0422 766.3427,439.75 789.856,451.0171 C805.5847,458.5538 821.1233,468.7117 835.3164,479.401 " fill="none" id="apoint17-Company" style="stroke:#C6C6C6;stroke-width:0.7602078693392724;"/><text fill="#262626" font-family="sans-serif" font-size="9.1225" lengthAdjust="spacing" textLength="15.9644" x="805.9048" y="492.1996">0..*</text></g><!--link Service to apoint23--><g id="link_Service_apoint23"><path d="M616.6738,425.6596 C662.2171,417.8006 716.9125,408.3618 724.3793,407.0733 " fill="none" id="Service-apoint23" style="stroke:#C6C6C6;stroke-width:0.7602078693392724;"/><text fill="#262626" font-family="sans-serif" font-size="9.1225" lengthAdjust="spacing" textLength="15.9644" x="630.1205" y="414.9572">0..*</text></g><!--link apoint23 to Company--><g id="link_apoint23_Company"><path d="M727.7219,406.9402 C733.7937,407.0755 767.2398,408.4036 789.856,421.369 C806.2233,430.7515 821.6175,443.3861 835.3848,456.8608 " fill="none" id="apoint23-Company" style="stroke:#C6C6C6;stroke-width:0.7602078693392724;"/><text fill="#262626" font-family="sans-serif" font-size="9.1225" lengthAdjust="spacing" textLength="15.9644" x="805.7297" y="440.787">0..*</text></g><!--link Subscription to apoint17--><g id="link_Subscription_apoint17"><path d="M725.9985,464.5997 C725.9985,455.7684 725.9985,446.937 725.9985,438.1057 " fill="none" id="Subscription-apoint17" style="stroke:#C6C6C6;stroke-width:0.7602078693392724;stroke-dasharray:7.0,7.0;"/></g><!--link apoint23 to FeesPlan--><g id="link_apoint23_FeesPlan"><path d="M725.9985,405.21 C725.9985,396.4303 725.9985,387.6507 725.9985,378.8711 " fill="none" id="apoint23-FeesPlan" style="stroke:#C6C6C6;stroke-width:0.7602078693392724;stroke-dasharray:7.0,7.0;"/></g><!--link Beneficiary to Campaign--><g id="link_Beneficiary_Campaign"><path codeLine="97" d="M188.6091,551.924 C215.7668,572.4253 240.1624,590.842 267.333,611.3539 " fill="none" id="Beneficiary-to-Campaign" style="stroke:#C6C6C6;stroke-width:0.7602078693392724;"/><polygon fill="none" points="274.6137,616.8503,272.8055,611.6752,267.333,611.3539,269.1412,616.529,274.6137,616.8503" style="stroke:#C6C6C6;stroke-width:0.7602078693392724;"/><text fill="#262626" font-family="sans-serif" font-size="9.1225" lengthAdjust="spacing" textLength="5.3215" x="202.1238" y="572.8343">*</text><text fill="#262626" font-family="sans-serif" font-size="9.1225" lengthAdjust="spacing" textLength="5.3215" x="255.7676" y="630.1397">1</text></g><!--reverse link Beneficiary to Transaction--><g id="link_Beneficiary_Transaction"><path codeLine="99" d="M195.89,451.043 C210.2032,440.2382 218.4898,433.9823 233.992,422.2797 " fill="none" id="Beneficiary-backto-Transaction" style="stroke:#C6C6C6;stroke-width:0.7602078693392724;"/><polygon fill="none" points="188.6091,456.5392,194.0816,456.2181,195.89,451.043,190.4175,451.3641,188.6091,456.5392" style="stroke:#C6C6C6;stroke-width:0.7602078693392724;"/><text fill="#262626" font-family="sans-serif" font-size="9.1225" lengthAdjust="spacing" textLength="5.3215" x="202.1238" y="469.8485">1</text><text fill="#262626" font-family="sans-serif" font-size="9.1225" lengthAdjust="spacing" textLength="5.3215" x="215.1417" y="443.0672">*</text></g><!--SRC=[jLNRZjem47ttLqppqeiWsgtwn1iRbWgfGgiDVC2G3C5gR4Vsf5jKxR_NmGGHij7smhxPPsvdpZYJTxmZHP2XtHWzBYpk1Kik2P8IdOEPH8-f2JpWNf5cICd-a1a9bw5tkhtv_0MUPCux8IhClcD1iBL4ocZQnxbqNDkDQmBZAYHm8Hv-YUnG836gGhttTu0nWCmdiD1C1Ta0Q5GqWPIjr4L0Cal8b4zv0ZD_M4b5mL1N-Sk6d4gwD3oB8u7qHEYF2PZyRIabw3MHXVulJexHSfi_GAXChNbb6Ci9p4k3771ka0MJkYXpvRRkIDDMPXBjQTpzHW977sxgJNdCgfnq-PiglhAe7MOipR3eWypqXV3XGINzLt8SQz_Yb4kChzMalvWXr-uCYzBLz74LZQBvTF7jVkOFZ-lbSh7y6esyRPqazsbwNO62FclVbDVbKXP_tqhhk3j6Z_gWFaWAPTb1gftV4rt4LtioDk-0B_OorCehdQJrncLMLiseXoPzNUtcHEwXnC5gqitbJ_BedJ4beGxebgZpZLwBKqbRzXyyM5di679fwV3gXMX63D6d2CPZun_QRTIkPY5E- -XlpEsFGhGBDhg9uyQXFRJn7uuEenRv277ScTE_vcYL5qASxvvk5qVoGfplW8DBNRLEPz7YVS-lr_7pRm00]--></g></svg>