<?xml version="1.0" encoding="us-ascii" standalone="no"?><svg xmlns="http://www.w3.org/2000/svg" xmlns:xlink="http://www.w3.org/1999/xlink" contentStyleType="text/css" height="902px" preserveAspectRatio="none" style="width:553px;height:902px;background:#FFFFFF;" version="1.1" viewBox="0 0 553 902" width="553px" zoomAndPan="magnify"><defs/><g><!--cluster Syst?me Interop?rabilit?--><g id="cluster_Syst&#232;me Interop&#233;rabilit&#233;"><rect fill="none" height="889" rx="2.5" ry="2.5" style="stroke:#181818;stroke-width:1.0;" width="441" x="106" y="7"/><text fill="#000000" font-family="sans-serif" font-size="14" font-weight="bold" lengthAdjust="spacing" textLength="201" x="226" y="21.9951">Syst&#232;me Interop&#233;rabilit&#233;</text></g><!--cluster Gestion des Alias--><g id="cluster_Gestion des Alias"><rect fill="none" height="183" rx="2.5" ry="2.5" style="stroke:#181818;stroke-width:1.0;" width="253" x="200" y="50"/><text fill="#000000" font-family="sans-serif" font-size="14" font-weight="bold" lengthAdjust="spacing" textLength="141" x="256" y="64.9951">Gestion des Alias</text></g><!--cluster Gestion des \nTransferts--><g id="cluster_Gestion des \nTransferts"><rect fill="none" height="111" rx="2.5" ry="2.5" style="stroke:#181818;stroke-width:1.0;" width="227" x="213" y="257"/><text fill="#000000" font-family="sans-serif" font-size="14" font-weight="bold" lengthAdjust="spacing" textLength="96" x="276" y="271.9951">Gestion des</text><text fill="#000000" font-family="sans-serif" font-size="14" font-weight="bold" lengthAdjust="spacing" textLength="87" x="283" y="288.292">Transferts</text></g><!--cluster Paiement \nMarchand--><g id="cluster_Paiement \nMarchand"><rect fill="none" height="119" rx="2.5" ry="2.5" style="stroke:#181818;stroke-width:1.0;" width="267" x="193" y="392"/><text fill="#000000" font-family="sans-serif" font-size="14" font-weight="bold" lengthAdjust="spacing" textLength="76" x="286" y="406.9951">Paiement</text><text fill="#000000" font-family="sans-serif" font-size="14" font-weight="bold" lengthAdjust="spacing" textLength="80" x="286.5" y="423.292">Marchand</text></g><!--cluster Administration--><g id="cluster_Administration"><rect fill="none" height="337" rx="2.5" ry="2.5" style="stroke:#181818;stroke-width:1.0;" width="393" x="130" y="535"/><text fill="#000000" font-family="sans-serif" font-size="14" font-weight="bold" lengthAdjust="spacing" textLength="123" x="265" y="549.9951">Administration</text></g><g id="elem_UC1"><ellipse cx="326.4086" cy="193.0817" fill="#F1F1F1" rx="105.9086" ry="23.5817" style="stroke:#181818;stroke-width:0.5;"/><text fill="#000000" font-family="sans-serif" font-size="14" lengthAdjust="spacing" textLength="177" x="237.9086" y="195.9284">UC-001 : Cr&#233;ation d&#8217;Alias</text></g><g id="elem_UC2"><ellipse cx="326.5183" cy="110.0037" fill="#F1F1F1" rx="110.5183" ry="24.5037" style="stroke:#181818;stroke-width:0.5;"/><text fill="#000000" font-family="sans-serif" font-size="14" lengthAdjust="spacing" textLength="187" x="233.0183" y="112.8503">UC-002: Recherche d&#8217;Alias</text></g><g id="elem_UC3"><ellipse cx="326.2599" cy="329.852" fill="#F1F1F1" rx="97.2599" ry="21.852" style="stroke:#181818;stroke-width:0.5;"/><text fill="#000000" font-family="sans-serif" font-size="14" lengthAdjust="spacing" textLength="158" x="247.2599" y="332.6987">UC-003: Transfert P2P</text></g><g id="elem_UC4"><ellipse cx="326.4942" cy="468.8988" fill="#F1F1F1" rx="117.4942" ry="25.8988" style="stroke:#181818;stroke-width:0.5;"/><text fill="#000000" font-family="sans-serif" font-size="14" lengthAdjust="spacing" textLength="202" x="225.4942" y="471.7455">UC-004: Paiement Marchand</text></g><g id="elem_UC5"><ellipse cx="326.4091" cy="602.1818" fill="#F1F1F1" rx="146.4091" ry="31.6818" style="stroke:#181818;stroke-width:0.5;"/><text fill="#000000" font-family="sans-serif" font-size="14" lengthAdjust="spacing" textLength="263" x="194.9091" y="605.0285">UC-005: Test de Connectivit&#233; vers PI</text></g><g id="elem_UC6"><ellipse cx="326.7327" cy="707.0465" fill="#F1F1F1" rx="180.7327" ry="38.5465" style="stroke:#181818;stroke-width:0.5;"/><text fill="#000000" font-family="sans-serif" font-size="14" lengthAdjust="spacing" textLength="334" x="159.7327" y="709.8932">UC-006: Sponsorisation de Participant Indirect</text></g><g id="elem_UC7"><ellipse cx="326.398" cy="817.8796" fill="#F1F1F1" rx="174.898" ry="37.3796" style="stroke:#181818;stroke-width:0.5;"/><text fill="#000000" font-family="sans-serif" font-size="14" lengthAdjust="spacing" textLength="322" x="165.398" y="820.7263">UC-007: Gestion de Compte des Participants</text></g><!--entity utilisateur--><g id="elem_utilisateur"><ellipse cx="46" cy="232.5" fill="#F1F1F1" rx="8" ry="8" style="stroke:#181818;stroke-width:0.5;"/><path d="M46,240.5 L46,267.5 M33,248.5 L59,248.5 M46,267.5 L33,282.5 M46,267.5 L59,282.5 " fill="none" style="stroke:#181818;stroke-width:0.5;"/><text fill="#000000" font-family="sans-serif" font-size="14" lengthAdjust="spacing" textLength="73" x="9.5" y="296.9951">Utilisateur</text></g><!--entity participant--><g id="elem_participant"><ellipse cx="46" cy="572.5" fill="#F1F1F1" rx="8" ry="8" style="stroke:#181818;stroke-width:0.5;"/><path d="M46,580.5 L46,607.5 M33,588.5 L59,588.5 M46,607.5 L33,622.5 M46,607.5 L59,622.5 " fill="none" style="stroke:#181818;stroke-width:0.5;"/><text fill="#000000" font-family="sans-serif" font-size="14" lengthAdjust="spacing" textLength="80" x="6" y="636.9951">Participant</text></g><!--entity marchand--><g id="elem_marchand"><ellipse cx="46" cy="439.5" fill="#F1F1F1" rx="8" ry="8" style="stroke:#181818;stroke-width:0.5;"/><path d="M46,447.5 L46,474.5 M33,455.5 L59,455.5 M46,474.5 L33,489.5 M46,474.5 L59,489.5 " fill="none" style="stroke:#181818;stroke-width:0.5;"/><text fill="#000000" font-family="sans-serif" font-size="14" lengthAdjust="spacing" textLength="69" x="11.5" y="503.9951">Marchand</text></g><!--link marchand to UC4--><g id="link_marchand_UC4"><path d="M80.5936,469 C112.494,469 162.341,469 208.76,469 " fill="none" id="marchand-UC4" style="stroke:#181818;stroke-width:1.0;"/></g><!--link utilisateur to UC1--><g id="link_utilisateur_UC1"><path d="M82.5551,253.191 C125.887,242.455 200.126,224.062 255.163,210.426 " fill="none" id="utilisateur-UC1" style="stroke:#181818;stroke-width:1.0;"/></g><!--link utilisateur to UC2--><g id="link_utilisateur_UC2"><path d="M55.1209,223.981 C62.3024,199.712 75.2941,169.608 98,152 C131.246,126.218 175.375,114.503 215.914,109.66 " fill="none" id="utilisateur-UC2" style="stroke:#181818;stroke-width:1.0;"/></g><!--link utilisateur to UC4--><g id="link_utilisateur_UC4"><path d="M57.9596,300.07 C65.9895,322.263 78.8688,349.446 98,368 C139.568,408.314 199.952,434.097 248.064,449.516 " fill="none" id="utilisateur-UC4" style="stroke:#181818;stroke-width:1.0;"/></g><!--link utilisateur to UC3--><g id="link_utilisateur_UC3"><path d="M82.5551,270.681 C127.061,281.548 204.169,300.375 259.589,313.907 " fill="none" id="utilisateur-UC3" style="stroke:#181818;stroke-width:1.0;"/></g><!--link participant to UC3--><g id="link_participant_UC3"><path d="M69.3466,563.796 C75.668,551.458 81.9283,537.479 86,524 C98.5618,482.416 71.8694,461.702 98,427 C133.449,379.923 196.28,355.444 246.942,342.863 " fill="none" id="participant-UC3" style="stroke:#181818;stroke-width:1.0;"/></g><!--link participant to UC4--><g id="link_participant_UC4"><path d="M84.357,563.817 C88.7648,560.246 93.3536,556.889 98,554 C145.262,524.61 204.271,502.929 250.346,488.822 " fill="none" id="participant-UC4" style="stroke:#181818;stroke-width:1.0;"/></g><!--link participant to UC5--><g id="link_participant_UC5"><path d="M86.0175,602 C111.018,602 145.187,602 179.885,602 " fill="none" id="participant-UC5" style="stroke:#181818;stroke-width:1.0;"/></g><!--link participant to UC6--><g id="link_participant_UC6"><path d="M82.1818,640.13 C87.1908,644.217 92.5147,647.979 98,651 C123.832,665.225 153.279,675.885 182.221,683.857 " fill="none" id="participant-UC6" style="stroke:#181818;stroke-width:1.0;"/></g><!--link participant to UC7--><g id="link_participant_UC7"><path d="M48.7341,640.132 C52.4917,676.796 63.9089,731.202 98,763 C117.537,781.223 142.046,793.714 167.683,802.215 " fill="none" id="participant-UC7" style="stroke:#181818;stroke-width:1.0;"/></g><!--SRC=[VL8xReD04Ett52DwI_vWMwApA28NaL0SkZGJcDWhmu9snvQiA5AkaHl4v-0cEKcMdo611D7CspTlVY-X5mREGClzWI6McYAMcHBcA5ME6bF8CJhYddPyIGZAPrJxX8J0Y3CDJiWoaGQPJje1D73gufOIe6OPoHmLLvIyYrlAFUheW2gktjCc4E9M3fpTnN3ncH9i5PFEykAgyTcMukBgmAiG03to7Pbo2eZ9m2QHQ4eAsEzaA49Z6Q4_cKvdu86lYolMvA_tZuPicmZzsKZ6t8C7YWva6wH1mjmclFtJoPDwrAZC2sasJS-_zHSUt3WGp8D6UI56f0EKb99YgzkjRrJLzU16_h7fq7V7b3TnAfKqhAl5_26wjAtQuUnau6TAbRuvbzU0Csa3mROfi1n9NNcmopDbCbqwfLuFz5nYRrmxiT5OZMYiFUXsQpj8SwPgopsTzZ3hPaZxjzw2oQIUlkVN6fiDeVaGSeUGFLBFsIqsWDmHsd88hORG-Xi0]--></g></svg>