<?xml version="1.0" encoding="us-ascii" standalone="no"?><svg xmlns="http://www.w3.org/2000/svg" xmlns:xlink="http://www.w3.org/1999/xlink" contentStyleType="text/css" height="1052px" preserveAspectRatio="none" style="width:1841px;height:1052px;background:#FFFFFF;" version="1.1" viewBox="0 0 1841 1052" width="1841px" zoomAndPan="magnify"><defs/><g><line style="stroke:#181818;stroke-width:0.5;stroke-dasharray:5.0,5.0;" x1="94" x2="94" y1="81.2969" y2="971.9453"/><line style="stroke:#181818;stroke-width:0.5;stroke-dasharray:5.0,5.0;" x1="348.5" x2="348.5" y1="81.2969" y2="971.9453"/><line style="stroke:#181818;stroke-width:0.5;stroke-dasharray:5.0,5.0;" x1="603.5" x2="603.5" y1="81.2969" y2="971.9453"/><line style="stroke:#181818;stroke-width:0.5;stroke-dasharray:5.0,5.0;" x1="838" x2="838" y1="81.2969" y2="971.9453"/><line style="stroke:#181818;stroke-width:0.5;stroke-dasharray:5.0,5.0;" x1="1038.5" x2="1038.5" y1="81.2969" y2="971.9453"/><line style="stroke:#181818;stroke-width:0.5;stroke-dasharray:5.0,5.0;" x1="1162" x2="1162" y1="81.2969" y2="971.9453"/><line style="stroke:#181818;stroke-width:0.5;stroke-dasharray:5.0,5.0;" x1="1526.5" x2="1526.5" y1="81.2969" y2="971.9453"/><line style="stroke:#181818;stroke-width:0.5;stroke-dasharray:5.0,5.0;" x1="1758" x2="1758" y1="81.2969" y2="971.9453"/><text fill="#000000" font-family="sans-serif" font-size="14" lengthAdjust="spacing" textLength="172" x="5" y="77.9951">Client Particulier Payeur</text><ellipse cx="94" cy="13.5" fill="#E2E2F0" rx="8" ry="8" style="stroke:#181818;stroke-width:0.5;"/><path d="M94,21.5 L94,48.5 M81,29.5 L107,29.5 M94,48.5 L81,63.5 M94,48.5 L107,63.5 " fill="none" style="stroke:#181818;stroke-width:0.5;"/><text fill="#000000" font-family="sans-serif" font-size="14" lengthAdjust="spacing" textLength="172" x="5" y="983.9404">Client Particulier Payeur</text><ellipse cx="94" cy="995.7422" fill="#E2E2F0" rx="8" ry="8" style="stroke:#181818;stroke-width:0.5;"/><path d="M94,1003.7422 L94,1030.7422 M81,1011.7422 L107,1011.7422 M94,1030.7422 L81,1045.7422 M94,1030.7422 L107,1045.7422 " fill="none" style="stroke:#181818;stroke-width:0.5;"/><rect fill="#E2E2F0" height="30.2969" rx="2.5" ry="2.5" style="stroke:#181818;stroke-width:0.5;" width="149" x="274.5" y="50"/><text fill="#000000" font-family="sans-serif" font-size="14" lengthAdjust="spacing" textLength="135" x="281.5" y="69.9951">Application Mobile</text><rect fill="#E2E2F0" height="30.2969" rx="2.5" ry="2.5" style="stroke:#181818;stroke-width:0.5;" width="149" x="274.5" y="970.9453"/><text fill="#000000" font-family="sans-serif" font-size="14" lengthAdjust="spacing" textLength="135" x="281.5" y="990.9404">Application Mobile</text><rect fill="#E2E2F0" height="46.5938" rx="2.5" ry="2.5" style="stroke:#181818;stroke-width:0.5;" width="197" x="505.5" y="33.7031"/><text fill="#000000" font-family="sans-serif" font-size="14" lengthAdjust="spacing" textLength="179" x="512.5" y="53.6982">Participant Client Payeur</text><text fill="#000000" font-family="sans-serif" font-size="14" lengthAdjust="spacing" textLength="93" x="559.5" y="69.9951">FREE-MONEY</text><rect fill="#E2E2F0" height="46.5938" rx="2.5" ry="2.5" style="stroke:#181818;stroke-width:0.5;" width="197" x="505.5" y="970.9453"/><text fill="#000000" font-family="sans-serif" font-size="14" lengthAdjust="spacing" textLength="179" x="512.5" y="990.9404">Participant Client Payeur</text><text fill="#000000" font-family="sans-serif" font-size="14" lengthAdjust="spacing" textLength="93" x="559.5" y="1007.2373">FREE-MONEY</text><text fill="#000000" font-family="sans-serif" font-size="14" lengthAdjust="spacing" textLength="23" x="823.5" y="77.9951">AIP</text><path d="M820,29 C820,19 838,19 838,19 C838,19 856,19 856,29 L856,55 C856,65 838,65 838,65 C838,65 820,65 820,55 L820,29 " fill="#E2E2F0" style="stroke:#181818;stroke-width:1.5;"/><path d="M820,29 C820,39 838,39 838,39 C838,39 856,39 856,29 " fill="none" style="stroke:#181818;stroke-width:1.5;"/><text fill="#000000" font-family="sans-serif" font-size="14" lengthAdjust="spacing" textLength="23" x="823.5" y="983.9404">AIP</text><path d="M820,997.2422 C820,987.2422 838,987.2422 838,987.2422 C838,987.2422 856,987.2422 856,997.2422 L856,1023.2422 C856,1033.2422 838,1033.2422 838,1033.2422 C838,1033.2422 820,1033.2422 820,1023.2422 L820,997.2422 " fill="#E2E2F0" style="stroke:#181818;stroke-width:1.5;"/><path d="M820,997.2422 C820,1007.2422 838,1007.2422 838,1007.2422 C838,1007.2422 856,1007.2422 856,997.2422 " fill="none" style="stroke:#181818;stroke-width:1.5;"/><text fill="#000000" font-family="sans-serif" font-size="14" lengthAdjust="spacing" textLength="47" x="1012.5" y="77.9951">PI RAC</text><path d="M1021,29 C1021,19 1039,19 1039,19 C1039,19 1057,19 1057,29 L1057,55 C1057,65 1039,65 1039,65 C1039,65 1021,65 1021,55 L1021,29 " fill="#E2E2F0" style="stroke:#181818;stroke-width:1.5;"/><path d="M1021,29 C1021,39 1039,39 1039,39 C1039,39 1057,39 1057,29 " fill="none" style="stroke:#181818;stroke-width:1.5;"/><text fill="#000000" font-family="sans-serif" font-size="14" lengthAdjust="spacing" textLength="47" x="1012.5" y="983.9404">PI RAC</text><path d="M1021,997.2422 C1021,987.2422 1039,987.2422 1039,987.2422 C1039,987.2422 1057,987.2422 1057,997.2422 L1057,1023.2422 C1057,1033.2422 1039,1033.2422 1039,1033.2422 C1039,1033.2422 1021,1033.2422 1021,1023.2422 L1021,997.2422 " fill="#E2E2F0" style="stroke:#181818;stroke-width:1.5;"/><path d="M1021,997.2422 C1021,1007.2422 1039,1007.2422 1039,1007.2422 C1039,1007.2422 1057,1007.2422 1057,997.2422 " fill="none" style="stroke:#181818;stroke-width:1.5;"/><text fill="#000000" font-family="sans-serif" font-size="14" lengthAdjust="spacing" textLength="106" x="1106" y="77.9951">Syst&#232;me PI SPI</text><path d="M1144,29 C1144,19 1162,19 1162,19 C1162,19 1180,19 1180,29 L1180,55 C1180,65 1162,65 1162,65 C1162,65 1144,65 1144,55 L1144,29 " fill="#E2E2F0" style="stroke:#181818;stroke-width:1.5;"/><path d="M1144,29 C1144,39 1162,39 1162,39 C1162,39 1180,39 1180,29 " fill="none" style="stroke:#181818;stroke-width:1.5;"/><text fill="#000000" font-family="sans-serif" font-size="14" lengthAdjust="spacing" textLength="106" x="1106" y="983.9404">Syst&#232;me PI SPI</text><path d="M1144,997.2422 C1144,987.2422 1162,987.2422 1162,987.2422 C1162,987.2422 1180,987.2422 1180,997.2422 L1180,1023.2422 C1180,1033.2422 1162,1033.2422 1162,1033.2422 C1162,1033.2422 1144,1033.2422 1144,1023.2422 L1144,997.2422 " fill="#E2E2F0" style="stroke:#181818;stroke-width:1.5;"/><path d="M1144,997.2422 C1144,1007.2422 1162,1007.2422 1162,1007.2422 C1162,1007.2422 1180,1007.2422 1180,997.2422 " fill="none" style="stroke:#181818;stroke-width:1.5;"/><rect fill="#E2E2F0" height="46.5938" rx="2.5" ry="2.5" style="stroke:#181818;stroke-width:0.5;" width="179" x="1437.5" y="33.7031"/><text fill="#000000" font-family="sans-serif" font-size="14" lengthAdjust="spacing" textLength="165" x="1444.5" y="53.6982">Participant Client Pay&#233;</text><text fill="#000000" font-family="sans-serif" font-size="14" lengthAdjust="spacing" textLength="58" x="1498" y="69.9951">OTHERS</text><rect fill="#E2E2F0" height="46.5938" rx="2.5" ry="2.5" style="stroke:#181818;stroke-width:0.5;" width="179" x="1437.5" y="970.9453"/><text fill="#000000" font-family="sans-serif" font-size="14" lengthAdjust="spacing" textLength="165" x="1444.5" y="990.9404">Participant Client Pay&#233;</text><text fill="#000000" font-family="sans-serif" font-size="14" lengthAdjust="spacing" textLength="58" x="1498" y="1007.2373">OTHERS</text><text fill="#000000" font-family="sans-serif" font-size="14" lengthAdjust="spacing" textLength="158" x="1676" y="77.9951">Client Particulier Pay&#233;</text><ellipse cx="1758" cy="13.5" fill="#E2E2F0" rx="8" ry="8" style="stroke:#181818;stroke-width:0.5;"/><path d="M1758,21.5 L1758,48.5 M1745,29.5 L1771,29.5 M1758,48.5 L1745,63.5 M1758,48.5 L1771,63.5 " fill="none" style="stroke:#181818;stroke-width:0.5;"/><text fill="#000000" font-family="sans-serif" font-size="14" lengthAdjust="spacing" textLength="158" x="1676" y="983.9404">Client Particulier Pay&#233;</text><ellipse cx="1758" cy="995.7422" fill="#E2E2F0" rx="8" ry="8" style="stroke:#181818;stroke-width:0.5;"/><path d="M1758,1003.7422 L1758,1030.7422 M1745,1011.7422 L1771,1011.7422 M1758,1030.7422 L1745,1045.7422 M1758,1030.7422 L1771,1045.7422 " fill="none" style="stroke:#181818;stroke-width:0.5;"/><polygon fill="#181818" points="337,108.4297,347,112.4297,337,116.4297,341,112.4297" style="stroke:#181818;stroke-width:1.0;"/><line style="stroke:#181818;stroke-width:1.0;" x1="94" x2="343" y1="112.4297" y2="112.4297"/><text fill="#000000" font-family="sans-serif" font-size="13" lengthAdjust="spacing" textLength="133" x="101" y="107.3638">1. Lance l'application</text><polygon fill="#181818" points="337,152.6953,347,156.6953,337,160.6953,341,156.6953" style="stroke:#181818;stroke-width:1.0;"/><line style="stroke:#181818;stroke-width:1.0;" x1="94" x2="343" y1="156.6953" y2="156.6953"/><text fill="#000000" font-family="sans-serif" font-size="13" lengthAdjust="spacing" textLength="134" x="101" y="136.4966">2. Initie transfert P2P</text><text fill="#000000" font-family="sans-serif" font-size="13" lengthAdjust="spacing" textLength="133" x="101" y="151.6294">(alias du client pay&#233;)</text><polygon fill="#181818" points="592,196.9609,602,200.9609,592,204.9609,596,200.9609" style="stroke:#181818;stroke-width:1.0;"/><line style="stroke:#181818;stroke-width:1.0;" x1="349" x2="598" y1="200.9609" y2="200.9609"/><text fill="#000000" font-family="sans-serif" font-size="13" lengthAdjust="spacing" textLength="98" x="356" y="180.7622">3. Interroge AIP</text><text fill="#000000" font-family="sans-serif" font-size="13" lengthAdjust="spacing" textLength="164" x="356" y="195.895">(obtient infos client pay&#233;)</text><polygon fill="#181818" points="826,241.2266,836,245.2266,826,249.2266,830,245.2266" style="stroke:#181818;stroke-width:1.0;"/><line style="stroke:#181818;stroke-width:1.0;" x1="604" x2="832" y1="245.2266" y2="245.2266"/><text fill="#000000" font-family="sans-serif" font-size="13" lengthAdjust="spacing" textLength="98" x="611" y="225.0278">4. Interroge AIP</text><text fill="#000000" font-family="sans-serif" font-size="13" lengthAdjust="spacing" textLength="164" x="611" y="240.1606">(obtient infos client pay&#233;)</text><polygon fill="#181818" points="1027,285.4922,1037,289.4922,1027,293.4922,1031,289.4922" style="stroke:#181818;stroke-width:1.0;"/><line style="stroke:#181818;stroke-width:1.0;" x1="838" x2="1033" y1="289.4922" y2="289.4922"/><text fill="#000000" font-family="sans-serif" font-size="13" lengthAdjust="spacing" textLength="120" x="845" y="269.2935">5. Interroge PI RAC</text><text fill="#000000" font-family="sans-serif" font-size="13" lengthAdjust="spacing" textLength="164" x="845" y="284.4263">(obtient infos client pay&#233;)</text><polygon fill="#181818" points="849,314.625,839,318.625,849,322.625,845,318.625" style="stroke:#181818;stroke-width:1.0;"/><line style="stroke:#181818;stroke-width:1.0;stroke-dasharray:2.0,2.0;" x1="843" x2="1038" y1="318.625" y2="318.625"/><text fill="#000000" font-family="sans-serif" font-size="13" lengthAdjust="spacing" textLength="177" x="855" y="313.5591">6. Renvoie infos client pay&#233;</text><polygon fill="#181818" points="615,343.7578,605,347.7578,615,351.7578,611,347.7578" style="stroke:#181818;stroke-width:1.0;"/><line style="stroke:#181818;stroke-width:1.0;stroke-dasharray:2.0,2.0;" x1="609" x2="837" y1="347.7578" y2="347.7578"/><text fill="#000000" font-family="sans-serif" font-size="13" lengthAdjust="spacing" textLength="177" x="621" y="342.6919">7. Renvoie infos client pay&#233;</text><polygon fill="#181818" points="360,372.8906,350,376.8906,360,380.8906,356,376.8906" style="stroke:#181818;stroke-width:1.0;"/><line style="stroke:#181818;stroke-width:1.0;stroke-dasharray:2.0,2.0;" x1="354" x2="603" y1="376.8906" y2="376.8906"/><text fill="#000000" font-family="sans-serif" font-size="13" lengthAdjust="spacing" textLength="170" x="366" y="371.8247">8. Affiche infos client pay&#233;</text><polygon fill="#181818" points="105,402.0234,95,406.0234,105,410.0234,101,406.0234" style="stroke:#181818;stroke-width:1.0;"/><line style="stroke:#181818;stroke-width:1.0;" x1="99" x2="348" y1="406.0234" y2="406.0234"/><text fill="#000000" font-family="sans-serif" font-size="13" lengthAdjust="spacing" textLength="155" x="111" y="400.9575">9. Confirme le paiement</text><polygon fill="#181818" points="592,431.1563,602,435.1563,592,439.1563,596,435.1563" style="stroke:#181818;stroke-width:1.0;"/><line style="stroke:#181818;stroke-width:1.0;stroke-dasharray:2.0,2.0;" x1="349" x2="598" y1="435.1563" y2="435.1563"/><text fill="#000000" font-family="sans-serif" font-size="13" lengthAdjust="spacing" textLength="127" x="356" y="430.0903">10. Envoie transfert</text><polygon fill="#181818" points="826,460.2891,836,464.2891,826,468.2891,830,464.2891" style="stroke:#181818;stroke-width:1.0;"/><line style="stroke:#181818;stroke-width:1.0;stroke-dasharray:2.0,2.0;" x1="604" x2="832" y1="464.2891" y2="464.2891"/><text fill="#000000" font-family="sans-serif" font-size="13" lengthAdjust="spacing" textLength="127" x="611" y="459.2231">11. Envoie transfert</text><polygon fill="#181818" points="1150,519.6875,1160,523.6875,1150,527.6875,1154,523.6875" style="stroke:#181818;stroke-width:1.0;"/><line style="stroke:#181818;stroke-width:1.0;stroke-dasharray:2.0,2.0;" x1="838" x2="1156" y1="523.6875" y2="523.6875"/><text fill="#000000" font-family="sans-serif" font-size="13" lengthAdjust="spacing" textLength="252" x="845" y="488.356">12. Route transfert au participant client</text><text fill="#000000" font-family="sans-serif" font-size="13" lengthAdjust="spacing" textLength="300" x="845" y="503.4888">pay&#233; Route transfert au participant client pay&#233;</text><text fill="#000000" font-family="sans-serif" font-size="13" lengthAdjust="spacing" textLength="210" x="845" y="518.6216">((message ISO 20022 pacs.008))</text><polygon fill="#181818" points="615,563.9531,605,567.9531,615,571.9531,611,567.9531" style="stroke:#181818;stroke-width:1.0;"/><line style="stroke:#181818;stroke-width:1.0;stroke-dasharray:2.0,2.0;" x1="609" x2="1161" y1="567.9531" y2="567.9531"/><text fill="#000000" font-family="sans-serif" font-size="13" lengthAdjust="spacing" textLength="231" x="621" y="547.7544">13. Renvoie la r&#233;ponse de reception</text><text fill="#000000" font-family="sans-serif" font-size="13" lengthAdjust="spacing" textLength="34" x="621" y="562.8872">(202)</text><polygon fill="#181818" points="360,608.2188,350,612.2188,360,616.2188,356,612.2188" style="stroke:#181818;stroke-width:1.0;"/><line style="stroke:#181818;stroke-width:1.0;stroke-dasharray:2.0,2.0;" x1="354" x2="603" y1="612.2188" y2="612.2188"/><text fill="#000000" font-family="sans-serif" font-size="13" lengthAdjust="spacing" textLength="231" x="366" y="592.02">14. Renvoie la r&#233;ponse de reception</text><text fill="#000000" font-family="sans-serif" font-size="13" lengthAdjust="spacing" textLength="34" x="366" y="607.1528">(202)</text><polygon fill="#181818" points="105,652.4844,95,656.4844,105,660.4844,101,656.4844" style="stroke:#181818;stroke-width:1.0;"/><line style="stroke:#181818;stroke-width:1.0;stroke-dasharray:2.0,2.0;" x1="99" x2="348" y1="656.4844" y2="656.4844"/><text fill="#000000" font-family="sans-serif" font-size="13" lengthAdjust="spacing" textLength="231" x="111" y="636.2856">15. Renvoie la r&#233;ponse de reception</text><text fill="#000000" font-family="sans-serif" font-size="13" lengthAdjust="spacing" textLength="34" x="111" y="651.4185">(202)</text><line style="stroke:#181818;stroke-width:1.0;stroke-dasharray:2.0,2.0;" x1="1162" x2="1204" y1="685.6172" y2="685.6172"/><line style="stroke:#181818;stroke-width:1.0;stroke-dasharray:2.0,2.0;" x1="1204" x2="1204" y1="685.6172" y2="698.6172"/><line style="stroke:#181818;stroke-width:1.0;stroke-dasharray:2.0,2.0;" x1="1163" x2="1204" y1="698.6172" y2="698.6172"/><polygon fill="#181818" points="1173,694.6172,1163,698.6172,1173,702.6172,1169,698.6172" style="stroke:#181818;stroke-width:1.0;"/><text fill="#000000" font-family="sans-serif" font-size="13" lengthAdjust="spacing" textLength="351" x="1169" y="680.5513">Routage du transfert vers le participant du client pay&#233;.</text><polygon fill="#181818" points="1515,723.75,1525,727.75,1515,731.75,1519,727.75" style="stroke:#181818;stroke-width:1.0;"/><line style="stroke:#181818;stroke-width:1.0;" x1="1162" x2="1521" y1="727.75" y2="727.75"/><text fill="#000000" font-family="sans-serif" font-size="13" lengthAdjust="spacing" textLength="288" x="1169" y="722.6841">16. Route transfert au participant client pay&#233;</text><polygon fill="#181818" points="1173,768.0156,1163,772.0156,1173,776.0156,1169,772.0156" style="stroke:#181818;stroke-width:1.0;"/><line style="stroke:#181818;stroke-width:1.0;stroke-dasharray:2.0,2.0;" x1="1167" x2="1526" y1="772.0156" y2="772.0156"/><text fill="#000000" font-family="sans-serif" font-size="13" lengthAdjust="spacing" textLength="141" x="1179" y="751.8169">17. Accepte paiement</text><text fill="#000000" font-family="sans-serif" font-size="13" lengthAdjust="spacing" textLength="200" x="1179" y="766.9497">(message ISO 20022 pacs.002)</text><polygon fill="#181818" points="849,812.2813,839,816.2813,849,820.2813,845,816.2813" style="stroke:#181818;stroke-width:1.0;"/><line style="stroke:#181818;stroke-width:1.0;stroke-dasharray:2.0,2.0;" x1="843" x2="1161" y1="816.2813" y2="816.2813"/><text fill="#000000" font-family="sans-serif" font-size="13" lengthAdjust="spacing" textLength="157" x="855" y="796.0825">16. Notifie l'irr&#233;vocabilit&#233;</text><text fill="#000000" font-family="sans-serif" font-size="13" lengthAdjust="spacing" textLength="113" x="855" y="811.2153">et PI du paiement</text><polygon fill="#181818" points="615,856.5469,605,860.5469,615,864.5469,611,860.5469" style="stroke:#181818;stroke-width:1.0;"/><line style="stroke:#181818;stroke-width:1.0;stroke-dasharray:2.0,2.0;" x1="609" x2="837" y1="860.5469" y2="860.5469"/><text fill="#000000" font-family="sans-serif" font-size="13" lengthAdjust="spacing" textLength="157" x="621" y="840.3481">18. Notifie l'irr&#233;vocabilit&#233;</text><text fill="#000000" font-family="sans-serif" font-size="13" lengthAdjust="spacing" textLength="113" x="621" y="855.481">et PI du paiement</text><polygon fill="#181818" points="826,888.6797,836,892.6797,826,896.6797,830,892.6797" style="stroke:#181818;stroke-width:1.0;"/><line style="stroke:#181818;stroke-width:1.0;stroke-dasharray:2.0,2.0;" x1="604" x2="832" y1="892.6797" y2="892.6797"/><text fill="#000000" font-family="sans-serif" font-size="13" lengthAdjust="spacing" textLength="210" x="611" y="887.6138">19. Accus&#233; de r&#233;ception vers API</text><path d="M843,873.5469 L843,898.5469 L1197,898.5469 L1197,883.5469 L1187,873.5469 L843,873.5469 " fill="#FEFFDD" style="stroke:#181818;stroke-width:0.5;"/><path d="M1187,873.5469 L1187,883.5469 L1197,883.5469 L1187,873.5469 " fill="#FEFFDD" style="stroke:#181818;stroke-width:0.5;"/><text fill="#000000" font-family="sans-serif" font-size="13" lengthAdjust="spacing" textLength="333" x="849" y="890.6138">Accus&#233; de r&#233;ception en parall&#232;le avec la notification</text><polygon fill="#181818" points="360,920.8125,350,924.8125,360,928.8125,356,924.8125" style="stroke:#181818;stroke-width:1.0;"/><line style="stroke:#181818;stroke-width:1.0;stroke-dasharray:2.0,2.0;" x1="354" x2="603" y1="924.8125" y2="924.8125"/><text fill="#000000" font-family="sans-serif" font-size="13" lengthAdjust="spacing" textLength="220" x="366" y="919.7466">20. Notifie succ&#232;s au client payeur</text><polygon fill="#181818" points="1746,949.9453,1756,953.9453,1746,957.9453,1750,953.9453" style="stroke:#181818;stroke-width:1.0;"/><line style="stroke:#181818;stroke-width:1.0;stroke-dasharray:2.0,2.0;" x1="1527" x2="1752" y1="953.9453" y2="953.9453"/><text fill="#000000" font-family="sans-serif" font-size="13" lengthAdjust="spacing" textLength="207" x="1534" y="948.8794">21. Notifie succ&#232;s au client pay&#233;</text><!--SRC=[bLNBZk8m4BpdArfp6JWG9Pd7CXnMGeZL8kqCKTZBIboCCJEMWctP3jBy4Nn7VcpR2KCUmvCJZhkhgwkw4qAjr70tIZaJ5cAYBQSP7ZJ-_sIPlWDYW1QtvGDF5J5S4Oo_6ogLSaeibm9UvOAdh4WWIfMdPdHSEnmgEb2O2_YLZCUzr-dR-5y1uH97zRfBOic268P59t5PXQlQqtW2oN1KvlA4qDhLxDFOVBjcW36pUBAFcIb-3RryDnVJlx_7oUm8Bu-Sqo_VjUJpFC1VNKxe_QpK6a3emnyYA8FqdbJINigAV9W8RZa3guamAwQHIXJFHOUa70aiitqsiaTItGBlaE_0sceFuC5XMgQrV6U0YYEONDW2X8kLD4SGso05Iwu6y7Wx5kOLl9oJ0tYg0vH6NyF79KFlYyMp3maJ6uaoVS-eYXvLuyV5tE_DDptg-p1ShJZzE5szRWXjb7_nOIJ5YckSORnNXBCrNhVJZb8F0n_69VN3T7XdA3kfml1Kpa4YjpuOYAENoCpM9uzaK5-hVPzpKNHwPRGgzwxJMJDZ29e-cKqX2e8emYjg_23eTxzCHYAdMd-eR4i9w7odfC0NmfA1PfGfjrjO90gYxbKUXe-tuJMjQLeQFjt8pVM9C7lXdOnE5rpjIiiDqwQSZqhGrkxxTT7QcY6hP_yMXuwerfWEN9iXTSrKCuizdVGqQbjQ3YDoUfEMhvnIzroZL1j92UhAhHiIPjqhOPbLQ-5v5zOvxDyC2USs1X3ofUWrCpZZpiDyjpUnT6KOJqe88L4CpTy_B2OTJs325I9fcc_HJB9Xr4s8AFZkFmXNZMiKL5sQZD9yQvoPbO7kith2GLeRYYYyW9Fl_WC0]--></g></svg>