<?xml version="1.0" encoding="us-ascii" standalone="no"?><svg xmlns="http://www.w3.org/2000/svg" xmlns:xlink="http://www.w3.org/1999/xlink" contentStyleType="text/css" height="554px" preserveAspectRatio="none" style="width:1277px;height:554px;background:#FFFFFF;" version="1.1" viewBox="0 0 1277 554" width="1277px" zoomAndPan="magnify"><defs/><g><text fill="#000000" font-family="sans-serif" font-size="14" font-weight="bold" lengthAdjust="spacing" textLength="128" x="575.75" y="27.9951">Cr&#233;ation d'Alias</text><line style="stroke:#181818;stroke-width:0.5;stroke-dasharray:5.0,5.0;" x1="29" x2="29" y1="118.5938" y2="473.3203"/><line style="stroke:#181818;stroke-width:0.5;stroke-dasharray:5.0,5.0;" x1="202" x2="202" y1="118.5938" y2="473.3203"/><line style="stroke:#181818;stroke-width:0.5;stroke-dasharray:5.0,5.0;" x1="480" x2="480" y1="118.5938" y2="473.3203"/><line style="stroke:#181818;stroke-width:0.5;stroke-dasharray:5.0,5.0;" x1="758.5" x2="758.5" y1="118.5938" y2="473.3203"/><line style="stroke:#181818;stroke-width:0.5;stroke-dasharray:5.0,5.0;" x1="1022" x2="1022" y1="118.5938" y2="473.3203"/><text fill="#000000" font-family="sans-serif" font-size="14" lengthAdjust="spacing" textLength="43" x="5" y="115.292">Client</text><ellipse cx="29.5" cy="50.7969" fill="#E2E2F0" rx="8" ry="8" style="stroke:#181818;stroke-width:0.5;"/><path d="M29.5,58.7969 L29.5,85.7969 M16.5,66.7969 L42.5,66.7969 M29.5,85.7969 L16.5,100.7969 M29.5,85.7969 L42.5,100.7969 " fill="none" style="stroke:#181818;stroke-width:0.5;"/><text fill="#000000" font-family="sans-serif" font-size="14" lengthAdjust="spacing" textLength="43" x="5" y="485.3154">Client</text><ellipse cx="29.5" cy="497.1172" fill="#E2E2F0" rx="8" ry="8" style="stroke:#181818;stroke-width:0.5;"/><path d="M29.5,505.1172 L29.5,532.1172 M16.5,513.1172 L42.5,513.1172 M29.5,532.1172 L16.5,547.1172 M29.5,532.1172 L42.5,547.1172 " fill="none" style="stroke:#181818;stroke-width:0.5;"/><rect fill="#E2E2F0" height="30.2969" rx="2.5" ry="2.5" style="stroke:#181818;stroke-width:0.5;" width="149" x="128" y="87.2969"/><text fill="#000000" font-family="sans-serif" font-size="14" lengthAdjust="spacing" textLength="135" x="135" y="107.292">Application Mobile</text><rect fill="#E2E2F0" height="30.2969" rx="2.5" ry="2.5" style="stroke:#181818;stroke-width:0.5;" width="149" x="128" y="472.3203"/><text fill="#000000" font-family="sans-serif" font-size="14" lengthAdjust="spacing" textLength="135" x="135" y="492.3154">Application Mobile</text><rect fill="#E2E2F0" height="30.2969" rx="2.5" ry="2.5" style="stroke:#181818;stroke-width:0.5;" width="177" x="392" y="87.2969"/><text fill="#000000" font-family="sans-serif" font-size="14" lengthAdjust="spacing" textLength="163" x="399" y="107.292">Participant FreeMoney</text><rect fill="#E2E2F0" height="30.2969" rx="2.5" ry="2.5" style="stroke:#181818;stroke-width:0.5;" width="177" x="392" y="472.3203"/><text fill="#000000" font-family="sans-serif" font-size="14" lengthAdjust="spacing" textLength="163" x="399" y="492.3154">Participant FreeMoney</text><text fill="#000000" font-family="sans-serif" font-size="14" lengthAdjust="spacing" textLength="23" x="744" y="115.292">AIP</text><path d="M740.5,66.2969 C740.5,56.2969 758.5,56.2969 758.5,56.2969 C758.5,56.2969 776.5,56.2969 776.5,66.2969 L776.5,92.2969 C776.5,102.2969 758.5,102.2969 758.5,102.2969 C758.5,102.2969 740.5,102.2969 740.5,92.2969 L740.5,66.2969 " fill="#E2E2F0" style="stroke:#181818;stroke-width:1.5;"/><path d="M740.5,66.2969 C740.5,76.2969 758.5,76.2969 758.5,76.2969 C758.5,76.2969 776.5,76.2969 776.5,66.2969 " fill="none" style="stroke:#181818;stroke-width:1.5;"/><text fill="#000000" font-family="sans-serif" font-size="14" lengthAdjust="spacing" textLength="23" x="744" y="485.3154">AIP</text><path d="M740.5,498.6172 C740.5,488.6172 758.5,488.6172 758.5,488.6172 C758.5,488.6172 776.5,488.6172 776.5,498.6172 L776.5,524.6172 C776.5,534.6172 758.5,534.6172 758.5,534.6172 C758.5,534.6172 740.5,534.6172 740.5,524.6172 L740.5,498.6172 " fill="#E2E2F0" style="stroke:#181818;stroke-width:1.5;"/><path d="M740.5,498.6172 C740.5,508.6172 758.5,508.6172 758.5,508.6172 C758.5,508.6172 776.5,508.6172 776.5,498.6172 " fill="none" style="stroke:#181818;stroke-width:1.5;"/><text fill="#000000" font-family="sans-serif" font-size="14" lengthAdjust="spacing" textLength="47" x="996" y="115.292">PI RAC</text><path d="M1004.5,66.2969 C1004.5,56.2969 1022.5,56.2969 1022.5,56.2969 C1022.5,56.2969 1040.5,56.2969 1040.5,66.2969 L1040.5,92.2969 C1040.5,102.2969 1022.5,102.2969 1022.5,102.2969 C1022.5,102.2969 1004.5,102.2969 1004.5,92.2969 L1004.5,66.2969 " fill="#E2E2F0" style="stroke:#181818;stroke-width:1.5;"/><path d="M1004.5,66.2969 C1004.5,76.2969 1022.5,76.2969 1022.5,76.2969 C1022.5,76.2969 1040.5,76.2969 1040.5,66.2969 " fill="none" style="stroke:#181818;stroke-width:1.5;"/><text fill="#000000" font-family="sans-serif" font-size="14" lengthAdjust="spacing" textLength="47" x="996" y="485.3154">PI RAC</text><path d="M1004.5,498.6172 C1004.5,488.6172 1022.5,488.6172 1022.5,488.6172 C1022.5,488.6172 1040.5,488.6172 1040.5,498.6172 L1040.5,524.6172 C1040.5,534.6172 1022.5,534.6172 1022.5,534.6172 C1022.5,534.6172 1004.5,534.6172 1004.5,524.6172 L1004.5,498.6172 " fill="#E2E2F0" style="stroke:#181818;stroke-width:1.5;"/><path d="M1004.5,498.6172 C1004.5,508.6172 1022.5,508.6172 1022.5,508.6172 C1022.5,508.6172 1040.5,508.6172 1040.5,498.6172 " fill="none" style="stroke:#181818;stroke-width:1.5;"/><polygon fill="#181818" points="190.5,145.7266,200.5,149.7266,190.5,153.7266,194.5,149.7266" style="stroke:#181818;stroke-width:1.0;"/><line style="stroke:#181818;stroke-width:1.0;" x1="29.5" x2="196.5" y1="149.7266" y2="149.7266"/><text fill="#000000" font-family="sans-serif" font-size="13" lengthAdjust="spacing" textLength="149" x="36.5" y="144.6606">1. Choix du type d'alias</text><polygon fill="#181818" points="468.5,174.8594,478.5,178.8594,468.5,182.8594,472.5,178.8594" style="stroke:#181818;stroke-width:1.0;"/><line style="stroke:#181818;stroke-width:1.0;" x1="202.5" x2="474.5" y1="178.8594" y2="178.8594"/><text fill="#000000" font-family="sans-serif" font-size="13" lengthAdjust="spacing" textLength="254" x="209.5" y="173.7935">2. Lance la demande de cr&#233;ation d'alias</text><polygon fill="#181818" points="746.5,219.125,756.5,223.125,746.5,227.125,750.5,223.125" style="stroke:#181818;stroke-width:1.0;"/><line style="stroke:#181818;stroke-width:1.0;" x1="480.5" x2="752.5" y1="223.125" y2="223.125"/><text fill="#000000" font-family="sans-serif" font-size="13" lengthAdjust="spacing" textLength="194" x="487.5" y="202.9263">3. Transf&#232;re la demande &#224; AIP</text><text fill="#000000" font-family="sans-serif" font-size="13" lengthAdjust="spacing" textLength="148" x="487.5" y="218.0591">(message asynchrone)</text><polygon fill="#181818" points="1010.5,263.3906,1020.5,267.3906,1010.5,271.3906,1014.5,267.3906" style="stroke:#181818;stroke-width:1.0;"/><line style="stroke:#181818;stroke-width:1.0;" x1="758.5" x2="1016.5" y1="267.3906" y2="267.3906"/><text fill="#000000" font-family="sans-serif" font-size="13" lengthAdjust="spacing" textLength="240" x="765.5" y="247.1919">4. Transf&#232;re &#224; PI RAC pour la cr&#233;ation</text><text fill="#000000" font-family="sans-serif" font-size="13" lengthAdjust="spacing" textLength="148" x="765.5" y="262.3247">(message asynchrone)</text><polygon fill="#181818" points="213.5,310.6563,203.5,314.6563,213.5,318.6563,209.5,314.6563" style="stroke:#181818;stroke-width:1.0;"/><line style="stroke:#181818;stroke-width:1.0;stroke-dasharray:2.0,2.0;" x1="207.5" x2="1021.5" y1="314.6563" y2="314.6563"/><text fill="#000000" font-family="sans-serif" font-size="13" lengthAdjust="spacing" textLength="215" x="219.5" y="294.4575">5. Renvoie la r&#233;ponse de cr&#233;ation</text><text fill="#000000" font-family="sans-serif" font-size="13" lengthAdjust="spacing" textLength="34" x="219.5" y="309.5903">(202)</text><path d="M1027,280.3906 L1027,320.3906 L1270,320.3906 L1270,290.3906 L1260,280.3906 L1027,280.3906 " fill="#FEFFDD" style="stroke:#181818;stroke-width:0.5;"/><path d="M1260,280.3906 L1260,290.3906 L1270,290.3906 L1260,280.3906 " fill="#FEFFDD" style="stroke:#181818;stroke-width:0.5;"/><text fill="#000000" font-family="sans-serif" font-size="13" lengthAdjust="spacing" textLength="98" x="1033" y="297.4575">Cr&#233;ation d'alias</text><text fill="#000000" font-family="sans-serif" font-size="13" lengthAdjust="spacing" textLength="222" x="1033" y="312.5903">en attente de r&#233;ponse asynchrone</text><polygon fill="#181818" points="769.5,357.9219,759.5,361.9219,769.5,365.9219,765.5,361.9219" style="stroke:#181818;stroke-width:1.0;"/><line style="stroke:#181818;stroke-width:1.0;" x1="763.5" x2="1021.5" y1="361.9219" y2="361.9219"/><text fill="#000000" font-family="sans-serif" font-size="13" lengthAdjust="spacing" textLength="215" x="775.5" y="341.7231">6. Renvoie la r&#233;ponse de cr&#233;ation</text><text fill="#000000" font-family="sans-serif" font-size="13" lengthAdjust="spacing" textLength="160" x="775.5" y="356.856">(notification asynchrone)</text><polygon fill="#181818" points="491.5,387.0547,481.5,391.0547,491.5,395.0547,487.5,391.0547" style="stroke:#181818;stroke-width:1.0;"/><line style="stroke:#181818;stroke-width:1.0;" x1="485.5" x2="757.5" y1="391.0547" y2="391.0547"/><text fill="#000000" font-family="sans-serif" font-size="13" lengthAdjust="spacing" textLength="254" x="497.5" y="385.9888">7. Transf&#232;re la notification &#224; FreeMoney</text><polygon fill="#181818" points="746.5,419.1875,756.5,423.1875,746.5,427.1875,750.5,423.1875" style="stroke:#181818;stroke-width:1.0;"/><line style="stroke:#181818;stroke-width:1.0;stroke-dasharray:2.0,2.0;" x1="480.5" x2="752.5" y1="423.1875" y2="423.1875"/><text fill="#000000" font-family="sans-serif" font-size="13" lengthAdjust="spacing" textLength="202" x="487.5" y="418.1216">8. Accus&#233; de r&#233;ception vers API</text><path d="M763,404.0547 L763,429.0547 L1117,429.0547 L1117,414.0547 L1107,404.0547 L763,404.0547 " fill="#FEFFDD" style="stroke:#181818;stroke-width:0.5;"/><path d="M1107,404.0547 L1107,414.0547 L1117,414.0547 L1107,404.0547 " fill="#FEFFDD" style="stroke:#181818;stroke-width:0.5;"/><text fill="#000000" font-family="sans-serif" font-size="13" lengthAdjust="spacing" textLength="333" x="769" y="421.1216">Accus&#233; de r&#233;ception en parall&#232;le avec la notification</text><polygon fill="#181818" points="213.5,451.3203,203.5,455.3203,213.5,459.3203,209.5,455.3203" style="stroke:#181818;stroke-width:1.0;"/><line style="stroke:#181818;stroke-width:1.0;" x1="207.5" x2="479.5" y1="455.3203" y2="455.3203"/><text fill="#000000" font-family="sans-serif" font-size="13" lengthAdjust="spacing" textLength="245" x="219.5" y="450.2544">9. Notifie le client de la cr&#233;ation d'alias</text><!--SRC=[ZLFBQiCm4BphAvPSsXnYslJTGy4O2e6ccD1ZBXjvamWSIKXAQFwcn-Gx_6DTstdO9eNUB6bdTcPs7LJ82Ng9A_OObD6GNSMvGjyJ0cKmZfzoHJhq03t8wbDOT459PL47wCNMvahMsB6PgPogKhIsFhMhqyRXtH6DZQPj1IZBJZSYmu0pzAmi7gKreRADstG4apYfWMg2KeXQ6mpUpgtX5MuZI9P6VKEsXh2rnFQmj2VEHOnezMRKC88Fr98WHyXeXJfZ885iX5Ipj85bRsKPVnV1bqFjvyNEjKYA7s0_Ktsz8kznGQn_g-NICRmlIcmfflJ39FSj4aRMdi6QjIivJsh-eAjv1fr07YAOaDuOLUbY2ckqRxjZlk7Di2-q2GHEBPQ1SKdN-rIJ1Wo1Gw_W9wgp1d7KSCpbyL_DkQ-Q7rVgKa2TQJrrqsuHS73djUhCwoJiEO9OohKlzWShaco5tf3p4AUZTXYNQpaFviSyBtOSDMv8TiM82mlJcCrB19zLDRkWmyzMzcWE-nZ_Bm00]--></g></svg>