<?xml version="1.0" encoding="us-ascii" standalone="no"?><svg xmlns="http://www.w3.org/2000/svg" xmlns:xlink="http://www.w3.org/1999/xlink" contentStyleType="text/css" height="412px" preserveAspectRatio="none" style="width:921px;height:412px;background:#FFFFFF;" version="1.1" viewBox="0 0 921 412" width="921px" zoomAndPan="magnify"><defs/><g><line style="stroke:#181818;stroke-width:0.5;stroke-dasharray:5.0,5.0;" x1="93" x2="93" y1="67.2969" y2="334.625"/><line style="stroke:#181818;stroke-width:0.5;stroke-dasharray:5.0,5.0;" x1="377.5" x2="377.5" y1="67.2969" y2="334.625"/><line style="stroke:#181818;stroke-width:0.5;stroke-dasharray:5.0,5.0;" x1="666" x2="666" y1="67.2969" y2="334.625"/><rect fill="#E2E2F0" height="30.2969" rx="2.5" ry="2.5" style="stroke:#181818;stroke-width:0.5;" width="177" x="5" y="36"/><text fill="#000000" font-family="sans-serif" font-size="14" lengthAdjust="spacing" textLength="163" x="12" y="55.9951">Participant FreeMoney</text><rect fill="#E2E2F0" height="30.2969" rx="2.5" ry="2.5" style="stroke:#181818;stroke-width:0.5;" width="177" x="5" y="333.625"/><text fill="#000000" font-family="sans-serif" font-size="14" lengthAdjust="spacing" textLength="163" x="12" y="353.6201">Participant FreeMoney</text><text fill="#000000" font-family="sans-serif" font-size="14" lengthAdjust="spacing" textLength="23" x="363" y="63.9951">AIP</text><path d="M359.5,15 C359.5,5 377.5,5 377.5,5 C377.5,5 395.5,5 395.5,15 L395.5,41 C395.5,51 377.5,51 377.5,51 C377.5,51 359.5,51 359.5,41 L359.5,15 " fill="#E2E2F0" style="stroke:#181818;stroke-width:1.5;"/><path d="M359.5,15 C359.5,25 377.5,25 377.5,25 C377.5,25 395.5,25 395.5,15 " fill="none" style="stroke:#181818;stroke-width:1.5;"/><text fill="#000000" font-family="sans-serif" font-size="14" lengthAdjust="spacing" textLength="23" x="363" y="346.6201">AIP</text><path d="M359.5,359.9219 C359.5,349.9219 377.5,349.9219 377.5,349.9219 C377.5,349.9219 395.5,349.9219 395.5,359.9219 L395.5,385.9219 C395.5,395.9219 377.5,395.9219 377.5,395.9219 C377.5,395.9219 359.5,395.9219 359.5,385.9219 L359.5,359.9219 " fill="#E2E2F0" style="stroke:#181818;stroke-width:1.5;"/><path d="M359.5,359.9219 C359.5,369.9219 377.5,369.9219 377.5,369.9219 C377.5,369.9219 395.5,369.9219 395.5,359.9219 " fill="none" style="stroke:#181818;stroke-width:1.5;"/><text fill="#000000" font-family="sans-serif" font-size="14" lengthAdjust="spacing" textLength="47" x="640" y="63.9951">PI RAC</text><path d="M648.5,15 C648.5,5 666.5,5 666.5,5 C666.5,5 684.5,5 684.5,15 L684.5,41 C684.5,51 666.5,51 666.5,51 C666.5,51 648.5,51 648.5,41 L648.5,15 " fill="#E2E2F0" style="stroke:#181818;stroke-width:1.5;"/><path d="M648.5,15 C648.5,25 666.5,25 666.5,25 C666.5,25 684.5,25 684.5,15 " fill="none" style="stroke:#181818;stroke-width:1.5;"/><text fill="#000000" font-family="sans-serif" font-size="14" lengthAdjust="spacing" textLength="47" x="640" y="346.6201">PI RAC</text><path d="M648.5,359.9219 C648.5,349.9219 666.5,349.9219 666.5,349.9219 C666.5,349.9219 684.5,349.9219 684.5,359.9219 L684.5,385.9219 C684.5,395.9219 666.5,395.9219 666.5,395.9219 C666.5,395.9219 648.5,395.9219 648.5,385.9219 L648.5,359.9219 " fill="#E2E2F0" style="stroke:#181818;stroke-width:1.5;"/><path d="M648.5,359.9219 C648.5,369.9219 666.5,369.9219 666.5,369.9219 C666.5,369.9219 684.5,369.9219 684.5,359.9219 " fill="none" style="stroke:#181818;stroke-width:1.5;"/><polygon fill="#181818" points="365.5,109.5625,375.5,113.5625,365.5,117.5625,369.5,113.5625" style="stroke:#181818;stroke-width:1.0;"/><line style="stroke:#181818;stroke-width:1.0;" x1="93.5" x2="371.5" y1="113.5625" y2="113.5625"/><text fill="#000000" font-family="sans-serif" font-size="13" lengthAdjust="spacing" textLength="260" x="100.5" y="93.3638">1. Demande de suppression d'alias &#224; AIP</text><text fill="#000000" font-family="sans-serif" font-size="13" lengthAdjust="spacing" textLength="148" x="100.5" y="108.4966">(message asynchrone)</text><polygon fill="#181818" points="654.5,153.8281,664.5,157.8281,654.5,161.8281,658.5,157.8281" style="stroke:#181818;stroke-width:1.0;"/><line style="stroke:#181818;stroke-width:1.0;" x1="377.5" x2="660.5" y1="157.8281" y2="157.8281"/><text fill="#000000" font-family="sans-serif" font-size="13" lengthAdjust="spacing" textLength="265" x="384.5" y="137.6294">2. Transf&#232;re &#224; PI RAC pour la suppression</text><text fill="#000000" font-family="sans-serif" font-size="13" lengthAdjust="spacing" textLength="148" x="384.5" y="152.7622">(message asynchrone)</text><polygon fill="#181818" points="104.5,201.0938,94.5,205.0938,104.5,209.0938,100.5,205.0938" style="stroke:#181818;stroke-width:1.0;"/><line style="stroke:#181818;stroke-width:1.0;stroke-dasharray:2.0,2.0;" x1="98.5" x2="665.5" y1="205.0938" y2="205.0938"/><text fill="#000000" font-family="sans-serif" font-size="13" lengthAdjust="spacing" textLength="223" x="110.5" y="184.895">3. Renvoie la r&#233;ponse de reception</text><text fill="#000000" font-family="sans-serif" font-size="13" lengthAdjust="spacing" textLength="34" x="110.5" y="200.0278">(202)</text><path d="M671,170.8281 L671,210.8281 L914,210.8281 L914,180.8281 L904,170.8281 L671,170.8281 " fill="#FEFFDD" style="stroke:#181818;stroke-width:0.5;"/><path d="M904,170.8281 L904,180.8281 L914,180.8281 L904,170.8281 " fill="#FEFFDD" style="stroke:#181818;stroke-width:0.5;"/><text fill="#000000" font-family="sans-serif" font-size="13" lengthAdjust="spacing" textLength="122" x="677" y="187.895">Suppression d'alias</text><text fill="#000000" font-family="sans-serif" font-size="13" lengthAdjust="spacing" textLength="222" x="677" y="203.0278">en attente de r&#233;ponse asynchrone</text><polygon fill="#181818" points="388.5,248.3594,378.5,252.3594,388.5,256.3594,384.5,252.3594" style="stroke:#181818;stroke-width:1.0;"/><line style="stroke:#181818;stroke-width:1.0;stroke-dasharray:2.0,2.0;" x1="382.5" x2="665.5" y1="252.3594" y2="252.3594"/><text fill="#000000" font-family="sans-serif" font-size="13" lengthAdjust="spacing" textLength="240" x="394.5" y="232.1606">4. Renvoie la r&#233;ponse de suppression</text><text fill="#000000" font-family="sans-serif" font-size="13" lengthAdjust="spacing" textLength="160" x="394.5" y="247.2935">(notification asynchrone)</text><polygon fill="#181818" points="104.5,277.4922,94.5,281.4922,104.5,285.4922,100.5,281.4922" style="stroke:#181818;stroke-width:1.0;"/><line style="stroke:#181818;stroke-width:1.0;stroke-dasharray:2.0,2.0;" x1="98.5" x2="376.5" y1="281.4922" y2="281.4922"/><text fill="#000000" font-family="sans-serif" font-size="13" lengthAdjust="spacing" textLength="254" x="110.5" y="276.4263">5. Transf&#232;re la notification &#224; FreeMoney</text><polygon fill="#181818" points="365.5,309.625,375.5,313.625,365.5,317.625,369.5,313.625" style="stroke:#181818;stroke-width:1.0;"/><line style="stroke:#181818;stroke-width:1.0;stroke-dasharray:2.0,2.0;" x1="93.5" x2="371.5" y1="313.625" y2="313.625"/><text fill="#000000" font-family="sans-serif" font-size="13" lengthAdjust="spacing" textLength="202" x="100.5" y="308.5591">6. Accus&#233; de r&#233;ception vers API</text><path d="M382,294.4922 L382,319.4922 L736,319.4922 L736,304.4922 L726,294.4922 L382,294.4922 " fill="#FEFFDD" style="stroke:#181818;stroke-width:0.5;"/><path d="M726,294.4922 L726,304.4922 L736,304.4922 L726,294.4922 " fill="#FEFFDD" style="stroke:#181818;stroke-width:0.5;"/><text fill="#000000" font-family="sans-serif" font-size="13" lengthAdjust="spacing" textLength="333" x="388" y="311.5591">Accus&#233; de r&#233;ception en parall&#232;le avec la notification</text><!--SRC=[TP6_Ri8m4CRtFCM9fMKWQkcV8KEbg5Mb39MYj2FBrHnWAPmjso3nDXtXEV9YlIIq90GaBxxpzxllFbjqGIjjaGECyixbtH5z6ART2D23bSv_9PfZm6_q1ACqovi-QjkfvXaKwMihr0MgAEhfOV9I2nAuZ-6DriXp0Zb-OwqZxxLXcDzWgKLU_O2CcF7jMXgu947kMAsSOCQHC6fKCoA1QGnV3jalghsZMjYw06is3ahiug_m6X1CQcJNRW8FCHJ4MwEf1hdgO0txnhCZHJQqoEdTT1on2LBLorL8u7Euq8o90KCW3gt-ZtNoqR7HXFHuTNX_8vci5rfXxMOOqt2ffrvUWku19B_JVv_zNkiC4dYE8LLguwl3SPTZ6B0bvo7DiquSylpoMmb4-5YMrRwK7BQapity0W00]--></g></svg>