<?xml version="1.0" encoding="us-ascii" standalone="no"?><svg xmlns="http://www.w3.org/2000/svg" xmlns:xlink="http://www.w3.org/1999/xlink" contentStyleType="text/css" height="531px" preserveAspectRatio="none" style="width:1319px;height:531px;background:#FFFFFF;" version="1.1" viewBox="0 0 1319 531" width="1319px" zoomAndPan="magnify"><defs/><g><text fill="#000000" font-family="sans-serif" font-size="14" font-weight="bold" lengthAdjust="spacing" textLength="127" x="594" y="27.9951">Recherche alias</text><line style="stroke:#181818;stroke-width:0.5;stroke-dasharray:5.0,5.0;" x1="29" x2="29" y1="118.5938" y2="451.0547"/><line style="stroke:#181818;stroke-width:0.5;stroke-dasharray:5.0,5.0;" x1="265" x2="265" y1="118.5938" y2="451.0547"/><line style="stroke:#181818;stroke-width:0.5;stroke-dasharray:5.0,5.0;" x1="565" x2="565" y1="118.5938" y2="451.0547"/><line style="stroke:#181818;stroke-width:0.5;stroke-dasharray:5.0,5.0;" x1="860.5" x2="860.5" y1="118.5938" y2="451.0547"/><line style="stroke:#181818;stroke-width:0.5;stroke-dasharray:5.0,5.0;" x1="1284" x2="1284" y1="118.5938" y2="451.0547"/><text fill="#000000" font-family="sans-serif" font-size="14" lengthAdjust="spacing" textLength="43" x="5" y="115.292">Client</text><ellipse cx="29.5" cy="50.7969" fill="#E2E2F0" rx="8" ry="8" style="stroke:#181818;stroke-width:0.5;"/><path d="M29.5,58.7969 L29.5,85.7969 M16.5,66.7969 L42.5,66.7969 M29.5,85.7969 L16.5,100.7969 M29.5,85.7969 L42.5,100.7969 " fill="none" style="stroke:#181818;stroke-width:0.5;"/><text fill="#000000" font-family="sans-serif" font-size="14" lengthAdjust="spacing" textLength="43" x="5" y="463.0498">Client</text><ellipse cx="29.5" cy="474.8516" fill="#E2E2F0" rx="8" ry="8" style="stroke:#181818;stroke-width:0.5;"/><path d="M29.5,482.8516 L29.5,509.8516 M16.5,490.8516 L42.5,490.8516 M29.5,509.8516 L16.5,524.8516 M29.5,509.8516 L42.5,524.8516 " fill="none" style="stroke:#181818;stroke-width:0.5;"/><rect fill="#E2E2F0" height="30.2969" rx="2.5" ry="2.5" style="stroke:#181818;stroke-width:0.5;" width="149" x="191" y="87.2969"/><text fill="#000000" font-family="sans-serif" font-size="14" lengthAdjust="spacing" textLength="135" x="198" y="107.292">Application Mobile</text><rect fill="#E2E2F0" height="30.2969" rx="2.5" ry="2.5" style="stroke:#181818;stroke-width:0.5;" width="149" x="191" y="450.0547"/><text fill="#000000" font-family="sans-serif" font-size="14" lengthAdjust="spacing" textLength="135" x="198" y="470.0498">Application Mobile</text><rect fill="#E2E2F0" height="30.2969" rx="2.5" ry="2.5" style="stroke:#181818;stroke-width:0.5;" width="177" x="477" y="87.2969"/><text fill="#000000" font-family="sans-serif" font-size="14" lengthAdjust="spacing" textLength="163" x="484" y="107.292">Participant FreeMoney</text><rect fill="#E2E2F0" height="30.2969" rx="2.5" ry="2.5" style="stroke:#181818;stroke-width:0.5;" width="177" x="477" y="450.0547"/><text fill="#000000" font-family="sans-serif" font-size="14" lengthAdjust="spacing" textLength="163" x="484" y="470.0498">Participant FreeMoney</text><text fill="#000000" font-family="sans-serif" font-size="14" lengthAdjust="spacing" textLength="23" x="846" y="115.292">AIP</text><path d="M842.5,66.2969 C842.5,56.2969 860.5,56.2969 860.5,56.2969 C860.5,56.2969 878.5,56.2969 878.5,66.2969 L878.5,92.2969 C878.5,102.2969 860.5,102.2969 860.5,102.2969 C860.5,102.2969 842.5,102.2969 842.5,92.2969 L842.5,66.2969 " fill="#E2E2F0" style="stroke:#181818;stroke-width:1.5;"/><path d="M842.5,66.2969 C842.5,76.2969 860.5,76.2969 860.5,76.2969 C860.5,76.2969 878.5,76.2969 878.5,66.2969 " fill="none" style="stroke:#181818;stroke-width:1.5;"/><text fill="#000000" font-family="sans-serif" font-size="14" lengthAdjust="spacing" textLength="23" x="846" y="463.0498">AIP</text><path d="M842.5,476.3516 C842.5,466.3516 860.5,466.3516 860.5,466.3516 C860.5,466.3516 878.5,466.3516 878.5,476.3516 L878.5,502.3516 C878.5,512.3516 860.5,512.3516 860.5,512.3516 C860.5,512.3516 842.5,512.3516 842.5,502.3516 L842.5,476.3516 " fill="#E2E2F0" style="stroke:#181818;stroke-width:1.5;"/><path d="M842.5,476.3516 C842.5,486.3516 860.5,486.3516 860.5,486.3516 C860.5,486.3516 878.5,486.3516 878.5,476.3516 " fill="none" style="stroke:#181818;stroke-width:1.5;"/><text fill="#000000" font-family="sans-serif" font-size="14" lengthAdjust="spacing" textLength="47" x="1258" y="115.292">PI RAC</text><path d="M1266.5,66.2969 C1266.5,56.2969 1284.5,56.2969 1284.5,56.2969 C1284.5,56.2969 1302.5,56.2969 1302.5,66.2969 L1302.5,92.2969 C1302.5,102.2969 1284.5,102.2969 1284.5,102.2969 C1284.5,102.2969 1266.5,102.2969 1266.5,92.2969 L1266.5,66.2969 " fill="#E2E2F0" style="stroke:#181818;stroke-width:1.5;"/><path d="M1266.5,66.2969 C1266.5,76.2969 1284.5,76.2969 1284.5,76.2969 C1284.5,76.2969 1302.5,76.2969 1302.5,66.2969 " fill="none" style="stroke:#181818;stroke-width:1.5;"/><text fill="#000000" font-family="sans-serif" font-size="14" lengthAdjust="spacing" textLength="47" x="1258" y="463.0498">PI RAC</text><path d="M1266.5,476.3516 C1266.5,466.3516 1284.5,466.3516 1284.5,466.3516 C1284.5,466.3516 1302.5,466.3516 1302.5,476.3516 L1302.5,502.3516 C1302.5,512.3516 1284.5,512.3516 1284.5,512.3516 C1284.5,512.3516 1266.5,512.3516 1266.5,502.3516 L1266.5,476.3516 " fill="#E2E2F0" style="stroke:#181818;stroke-width:1.5;"/><path d="M1266.5,476.3516 C1266.5,486.3516 1284.5,486.3516 1284.5,486.3516 C1284.5,486.3516 1302.5,486.3516 1302.5,476.3516 " fill="none" style="stroke:#181818;stroke-width:1.5;"/><polygon fill="#181818" points="253.5,145.7266,263.5,149.7266,253.5,153.7266,257.5,149.7266" style="stroke:#181818;stroke-width:1.0;"/><line style="stroke:#181818;stroke-width:1.0;" x1="29.5" x2="259.5" y1="149.7266" y2="149.7266"/><text fill="#000000" font-family="sans-serif" font-size="13" lengthAdjust="spacing" textLength="184" x="36.5" y="144.6606">1. Choix de recherche d'alias</text><polygon fill="#181818" points="553.5,174.8594,563.5,178.8594,553.5,182.8594,557.5,178.8594" style="stroke:#181818;stroke-width:1.0;"/><line style="stroke:#181818;stroke-width:1.0;" x1="265.5" x2="559.5" y1="178.8594" y2="178.8594"/><text fill="#000000" font-family="sans-serif" font-size="13" lengthAdjust="spacing" textLength="266" x="272.5" y="173.7935">2. Lance la demande de recherche d'alias</text><polygon fill="#181818" points="848.5,203.9922,858.5,207.9922,848.5,211.9922,852.5,207.9922" style="stroke:#181818;stroke-width:1.0;"/><line style="stroke:#181818;stroke-width:1.0;stroke-dasharray:2.0,2.0;" x1="565.5" x2="854.5" y1="207.9922" y2="207.9922"/><text fill="#000000" font-family="sans-serif" font-size="13" lengthAdjust="spacing" textLength="194" x="572.5" y="202.9263">3. Transf&#232;re la demande &#224; AIP</text><polygon fill="#181818" points="1272.5,233.125,1282.5,237.125,1272.5,241.125,1276.5,237.125" style="stroke:#181818;stroke-width:1.0;"/><line style="stroke:#181818;stroke-width:1.0;stroke-dasharray:2.0,2.0;" x1="860.5" x2="1278.5" y1="237.125" y2="237.125"/><text fill="#000000" font-family="sans-serif" font-size="13" lengthAdjust="spacing" textLength="400" x="867.5" y="232.0591">4. Transf&#232;re &#224; PI RAC pour la recherche(message asynchrone)</text><polygon fill="#181818" points="576.5,277.3906,566.5,281.3906,576.5,285.3906,572.5,281.3906" style="stroke:#181818;stroke-width:1.0;"/><line style="stroke:#181818;stroke-width:1.0;stroke-dasharray:2.0,2.0;" x1="570.5" x2="1283.5" y1="281.3906" y2="281.3906"/><text fill="#000000" font-family="sans-serif" font-size="13" lengthAdjust="spacing" textLength="223" x="582.5" y="261.1919">3. Renvoie la r&#233;ponse de reception</text><text fill="#000000" font-family="sans-serif" font-size="13" lengthAdjust="spacing" textLength="34" x="582.5" y="276.3247">(202)</text><polygon fill="#181818" points="871.5,306.5234,861.5,310.5234,871.5,314.5234,867.5,310.5234" style="stroke:#181818;stroke-width:1.0;"/><line style="stroke:#181818;stroke-width:1.0;stroke-dasharray:2.0,2.0;" x1="865.5" x2="1283.5" y1="310.5234" y2="310.5234"/><text fill="#000000" font-family="sans-serif" font-size="13" lengthAdjust="spacing" textLength="219" x="877.5" y="305.4575">5. Renvoie les informations d'alias</text><polygon fill="#181818" points="576.5,335.6563,566.5,339.6563,576.5,343.6563,572.5,339.6563" style="stroke:#181818;stroke-width:1.0;"/><line style="stroke:#181818;stroke-width:1.0;stroke-dasharray:2.0,2.0;" x1="570.5" x2="859.5" y1="339.6563" y2="339.6563"/><text fill="#000000" font-family="sans-serif" font-size="13" lengthAdjust="spacing" textLength="271" x="582.5" y="334.5903">6. Transf&#232;re les informations &#224; FreeMoney</text><polygon fill="#181818" points="848.5,367.7891,858.5,371.7891,848.5,375.7891,852.5,371.7891" style="stroke:#181818;stroke-width:1.0;"/><line style="stroke:#181818;stroke-width:1.0;stroke-dasharray:2.0,2.0;" x1="565.5" x2="854.5" y1="371.7891" y2="371.7891"/><text fill="#000000" font-family="sans-serif" font-size="13" lengthAdjust="spacing" textLength="202" x="572.5" y="366.7231">8. Accus&#233; de r&#233;ception vers API</text><path d="M865,352.6563 L865,377.6563 L1219,377.6563 L1219,362.6563 L1209,352.6563 L865,352.6563 " fill="#FEFFDD" style="stroke:#181818;stroke-width:0.5;"/><path d="M1209,352.6563 L1209,362.6563 L1219,362.6563 L1209,352.6563 " fill="#FEFFDD" style="stroke:#181818;stroke-width:0.5;"/><text fill="#000000" font-family="sans-serif" font-size="13" lengthAdjust="spacing" textLength="333" x="871" y="369.7231">Accus&#233; de r&#233;ception en parall&#232;le avec la notification</text><polygon fill="#181818" points="276.5,399.9219,266.5,403.9219,276.5,407.9219,272.5,403.9219" style="stroke:#181818;stroke-width:1.0;"/><line style="stroke:#181818;stroke-width:1.0;stroke-dasharray:2.0,2.0;" x1="270.5" x2="564.5" y1="403.9219" y2="403.9219"/><text fill="#000000" font-family="sans-serif" font-size="13" lengthAdjust="spacing" textLength="276" x="282.5" y="398.856">7. Transf&#232;re les informations &#224; l'App Mobile</text><polygon fill="#181818" points="40.5,429.0547,30.5,433.0547,40.5,437.0547,36.5,433.0547" style="stroke:#181818;stroke-width:1.0;"/><line style="stroke:#181818;stroke-width:1.0;stroke-dasharray:2.0,2.0;" x1="34.5" x2="264.5" y1="433.0547" y2="433.0547"/><text fill="#000000" font-family="sans-serif" font-size="13" lengthAdjust="spacing" textLength="212" x="46.5" y="427.9888">8. Affiche les informations d'alias</text><!--SRC=[XL9BQiCm4Dth58CtJHS9RVh5Yu89508DXD1bDnDbKWiKIKXAQ6xJPN8ENwnZEH-xf7HXiENtrKnKKHDaCv8bUNu0jSAG2PJHUiX6Mf696M00cLw5Gn-LL0vDXAnmJYk9KLa34pjNcX8KdMk-kkXfw-FL4qsieMqYrB3JYLXWn3a6ZbMCfusWSgtJwHXcnQWXgXbA8Pfiq7yvM-TmEu1HQTKNB0ZygT_YAZKK9s3DwlZdC1p06nf9e979ApIiS56amuD-xQzS3dS3UFTemhBQ-Ov8zGrSIJ0eWLFw7EuxSCOq1S7PjQ_P9z_UYaB0JnvIs1fPUdQz5acaaUksu1GpCXkhKWHVxPqruLY4N3sq3zCRtWpR6Yd_Guj90PHPMhzAKmxd-pjsw9e-Tgl_PdEvyvmltXxay3o0GifrgFOfRBK_f8KD-G35T2oCZVn3VPQHuPUnPEfeg7MrundZXcHz2qnKoyF6Nl8_Ry_JlqNq5Q__OUtRwyGwpJusJPRiL_vzaJy0]--></g></svg>