<?xml version="1.0" encoding="us-ascii" standalone="no"?><svg xmlns="http://www.w3.org/2000/svg" xmlns:xlink="http://www.w3.org/1999/xlink" contentStyleType="text/css" height="450px" preserveAspectRatio="none" style="width:918px;height:450px;background:#FFFFFF;" version="1.1" viewBox="0 0 918 450" width="918px" zoomAndPan="magnify"><defs/><g><text fill="#000000" font-family="sans-serif" font-size="14" font-weight="bold" lengthAdjust="spacing" textLength="348" x="286.25" y="27.9951">Modification des informations li&#233;e &#224; l'alias</text><line style="stroke:#181818;stroke-width:0.5;stroke-dasharray:5.0,5.0;" x1="93" x2="93" y1="104.5938" y2="371.9219"/><line style="stroke:#181818;stroke-width:0.5;stroke-dasharray:5.0,5.0;" x1="372.5" x2="372.5" y1="104.5938" y2="371.9219"/><line style="stroke:#181818;stroke-width:0.5;stroke-dasharray:5.0,5.0;" x1="663" x2="663" y1="104.5938" y2="371.9219"/><rect fill="#E2E2F0" height="30.2969" rx="2.5" ry="2.5" style="stroke:#181818;stroke-width:0.5;" width="177" x="5" y="73.2969"/><text fill="#000000" font-family="sans-serif" font-size="14" lengthAdjust="spacing" textLength="163" x="12" y="93.292">Participant FreeMoney</text><rect fill="#E2E2F0" height="30.2969" rx="2.5" ry="2.5" style="stroke:#181818;stroke-width:0.5;" width="177" x="5" y="370.9219"/><text fill="#000000" font-family="sans-serif" font-size="14" lengthAdjust="spacing" textLength="163" x="12" y="390.917">Participant FreeMoney</text><text fill="#000000" font-family="sans-serif" font-size="14" lengthAdjust="spacing" textLength="23" x="358" y="101.292">AIP</text><path d="M354.5,52.2969 C354.5,42.2969 372.5,42.2969 372.5,42.2969 C372.5,42.2969 390.5,42.2969 390.5,52.2969 L390.5,78.2969 C390.5,88.2969 372.5,88.2969 372.5,88.2969 C372.5,88.2969 354.5,88.2969 354.5,78.2969 L354.5,52.2969 " fill="#E2E2F0" style="stroke:#181818;stroke-width:1.5;"/><path d="M354.5,52.2969 C354.5,62.2969 372.5,62.2969 372.5,62.2969 C372.5,62.2969 390.5,62.2969 390.5,52.2969 " fill="none" style="stroke:#181818;stroke-width:1.5;"/><text fill="#000000" font-family="sans-serif" font-size="14" lengthAdjust="spacing" textLength="23" x="358" y="383.917">AIP</text><path d="M354.5,397.2188 C354.5,387.2188 372.5,387.2188 372.5,387.2188 C372.5,387.2188 390.5,387.2188 390.5,397.2188 L390.5,423.2188 C390.5,433.2188 372.5,433.2188 372.5,433.2188 C372.5,433.2188 354.5,433.2188 354.5,423.2188 L354.5,397.2188 " fill="#E2E2F0" style="stroke:#181818;stroke-width:1.5;"/><path d="M354.5,397.2188 C354.5,407.2188 372.5,407.2188 372.5,407.2188 C372.5,407.2188 390.5,407.2188 390.5,397.2188 " fill="none" style="stroke:#181818;stroke-width:1.5;"/><text fill="#000000" font-family="sans-serif" font-size="14" lengthAdjust="spacing" textLength="47" x="637" y="101.292">PI RAC</text><path d="M645.5,52.2969 C645.5,42.2969 663.5,42.2969 663.5,42.2969 C663.5,42.2969 681.5,42.2969 681.5,52.2969 L681.5,78.2969 C681.5,88.2969 663.5,88.2969 663.5,88.2969 C663.5,88.2969 645.5,88.2969 645.5,78.2969 L645.5,52.2969 " fill="#E2E2F0" style="stroke:#181818;stroke-width:1.5;"/><path d="M645.5,52.2969 C645.5,62.2969 663.5,62.2969 663.5,62.2969 C663.5,62.2969 681.5,62.2969 681.5,52.2969 " fill="none" style="stroke:#181818;stroke-width:1.5;"/><text fill="#000000" font-family="sans-serif" font-size="14" lengthAdjust="spacing" textLength="47" x="637" y="383.917">PI RAC</text><path d="M645.5,397.2188 C645.5,387.2188 663.5,387.2188 663.5,387.2188 C663.5,387.2188 681.5,387.2188 681.5,397.2188 L681.5,423.2188 C681.5,433.2188 663.5,433.2188 663.5,433.2188 C663.5,433.2188 645.5,433.2188 645.5,423.2188 L645.5,397.2188 " fill="#E2E2F0" style="stroke:#181818;stroke-width:1.5;"/><path d="M645.5,397.2188 C645.5,407.2188 663.5,407.2188 663.5,407.2188 C663.5,407.2188 681.5,407.2188 681.5,397.2188 " fill="none" style="stroke:#181818;stroke-width:1.5;"/><polygon fill="#181818" points="360.5,146.8594,370.5,150.8594,360.5,154.8594,364.5,150.8594" style="stroke:#181818;stroke-width:1.0;"/><line style="stroke:#181818;stroke-width:1.0;" x1="93.5" x2="366.5" y1="150.8594" y2="150.8594"/><text fill="#000000" font-family="sans-serif" font-size="13" lengthAdjust="spacing" textLength="255" x="100.5" y="130.6606">1. Demande de modification alias  &#224; AIP</text><text fill="#000000" font-family="sans-serif" font-size="13" lengthAdjust="spacing" textLength="148" x="100.5" y="145.7935">(message asynchrone)</text><polygon fill="#181818" points="651.5,191.125,661.5,195.125,651.5,199.125,655.5,195.125" style="stroke:#181818;stroke-width:1.0;"/><line style="stroke:#181818;stroke-width:1.0;" x1="372.5" x2="657.5" y1="195.125" y2="195.125"/><text fill="#000000" font-family="sans-serif" font-size="13" lengthAdjust="spacing" textLength="267" x="379.5" y="174.9263">2. Transf&#232;re &#224; PI RAC pour la modification</text><text fill="#000000" font-family="sans-serif" font-size="13" lengthAdjust="spacing" textLength="148" x="379.5" y="190.0591">(message asynchrone)</text><polygon fill="#181818" points="104.5,238.3906,94.5,242.3906,104.5,246.3906,100.5,242.3906" style="stroke:#181818;stroke-width:1.0;"/><line style="stroke:#181818;stroke-width:1.0;stroke-dasharray:2.0,2.0;" x1="98.5" x2="662.5" y1="242.3906" y2="242.3906"/><text fill="#000000" font-family="sans-serif" font-size="13" lengthAdjust="spacing" textLength="223" x="110.5" y="222.1919">3. Renvoie la r&#233;ponse de r&#233;ception</text><text fill="#000000" font-family="sans-serif" font-size="13" lengthAdjust="spacing" textLength="34" x="110.5" y="237.3247">(202)</text><path d="M668,208.125 L668,248.125 L911,248.125 L911,218.125 L901,208.125 L668,208.125 " fill="#FEFFDD" style="stroke:#181818;stroke-width:0.5;"/><path d="M901,208.125 L901,218.125 L911,218.125 L901,208.125 " fill="#FEFFDD" style="stroke:#181818;stroke-width:0.5;"/><text fill="#000000" font-family="sans-serif" font-size="13" lengthAdjust="spacing" textLength="120" x="674" y="225.1919">Modification d'alias</text><text fill="#000000" font-family="sans-serif" font-size="13" lengthAdjust="spacing" textLength="222" x="674" y="240.3247">en attente de r&#233;ponse asynchrone</text><polygon fill="#181818" points="383.5,285.6563,373.5,289.6563,383.5,293.6563,379.5,289.6563" style="stroke:#181818;stroke-width:1.0;"/><line style="stroke:#181818;stroke-width:1.0;stroke-dasharray:2.0,2.0;" x1="377.5" x2="662.5" y1="289.6563" y2="289.6563"/><text fill="#000000" font-family="sans-serif" font-size="13" lengthAdjust="spacing" textLength="242" x="389.5" y="269.4575">4. Renvoie la r&#233;ponse de modification</text><text fill="#000000" font-family="sans-serif" font-size="13" lengthAdjust="spacing" textLength="160" x="389.5" y="284.5903">(notification asynchrone)</text><polygon fill="#181818" points="104.5,314.7891,94.5,318.7891,104.5,322.7891,100.5,318.7891" style="stroke:#181818;stroke-width:1.0;"/><line style="stroke:#181818;stroke-width:1.0;stroke-dasharray:2.0,2.0;" x1="98.5" x2="371.5" y1="318.7891" y2="318.7891"/><text fill="#000000" font-family="sans-serif" font-size="13" lengthAdjust="spacing" textLength="254" x="110.5" y="313.7231">5. Transf&#232;re la notification &#224; FreeMoney</text><polygon fill="#181818" points="360.5,346.9219,370.5,350.9219,360.5,354.9219,364.5,350.9219" style="stroke:#181818;stroke-width:1.0;"/><line style="stroke:#181818;stroke-width:1.0;stroke-dasharray:2.0,2.0;" x1="93.5" x2="366.5" y1="350.9219" y2="350.9219"/><text fill="#000000" font-family="sans-serif" font-size="13" lengthAdjust="spacing" textLength="202" x="100.5" y="345.856">6. Accus&#233; de r&#233;ception vers API</text><path d="M377,331.7891 L377,356.7891 L731,356.7891 L731,341.7891 L721,331.7891 L377,331.7891 " fill="#FEFFDD" style="stroke:#181818;stroke-width:0.5;"/><path d="M721,331.7891 L721,341.7891 L731,341.7891 L721,331.7891 " fill="#FEFFDD" style="stroke:#181818;stroke-width:0.5;"/><text fill="#000000" font-family="sans-serif" font-size="13" lengthAdjust="spacing" textLength="333" x="383" y="348.856">Accus&#233; de r&#233;ception en parall&#232;le avec la notification</text><!--SRC=[TPA_Ri8m4CRtFCKf2sLerD8_GuPAKQjA35GHwiXoE0TOSXpBDaYyJKTuZhnOBqvJahHijdNtk-_xpbvwHH0lga9kf40lAmq5EP1wKzaot1qeMPy9wYzG4rGINHnD35elXJIeFSIPCQfhNbHhgIW6T836jBTeK9ttBk-MQ55fEeQ6fkpt9IhGuneTgylcUGkKflUQps6PlRQDSeaYYg8106vVceuKxXDuen9rGMmDohxLO0SQQpnZfMzASWwtnCoZ5ZlBc6d4Z0OLPgGmI-3JedQR-cH39gqCCDNUWi81_WemaE2sOVRrfl2Gm9BqePBKa6nzDfn-4CrdGUQ7ERkRJIDTUNwMsvrFORYzTaShJMpFUzA-8xIqYvAUa93JuzNn8rCyknVXEAg_lfu6cJ5x0E0CBqiVRR2L1Yay9v09iNVrUHW77CWwoF9vBn0k_x-M4s4-AbMV-DFZWSHOJFknHmAwRnoCV8HgTa4WbEHqcncZlNSx-0O0]--></g></svg>