<?xml version="1.0" encoding="us-ascii" standalone="no"?><svg xmlns="http://www.w3.org/2000/svg" xmlns:xlink="http://www.w3.org/1999/xlink" contentStyleType="text/css" height="668px" preserveAspectRatio="none" style="width:1191px;height:668px;background:#FFFFFF;" version="1.1" viewBox="0 0 1191 668" width="1191px" zoomAndPan="magnify"><defs/><g><rect fill="none" height="20.9531" style="stroke:none;stroke-width:1.0;" width="1158" x="15" y="12.7451"/><ellipse cx="93.5" cy="48.6982" fill="#222222" rx="10" ry="10" style="stroke:#222222;stroke-width:1.0;"/><rect fill="#F1F1F1" height="33.9688" rx="12.5" ry="12.5" style="stroke:#181818;stroke-width:0.5;" width="145" x="21" y="78.6982"/><text fill="#000000" font-family="sans-serif" font-size="12" lengthAdjust="spacing" textLength="125" x="31" y="99.8369">Choix du type d'alias</text><line style="stroke:#000000;stroke-width:1.5;" x1="15" x2="15" y1="12.7451" y2="656.2607"/><rect fill="#F1F1F1" height="33.9688" rx="12.5" ry="12.5" style="stroke:#181818;stroke-width:0.5;" width="249" x="176" y="132.667"/><text fill="#000000" font-family="sans-serif" font-size="12" lengthAdjust="spacing" textLength="225" x="190" y="153.8057">Lance la demande de cr&#233;ation d'alias</text><line style="stroke:#000000;stroke-width:1.5;" x1="170" x2="170" y1="12.7451" y2="656.2607"/><rect fill="#F1F1F1" height="47.9375" rx="12.5" ry="12.5" style="stroke:#181818;stroke-width:0.5;" width="185" x="461.5" y="186.6357"/><text fill="#000000" font-family="sans-serif" font-size="12" lengthAdjust="spacing" textLength="165" x="471.5" y="207.7744">Transf&#232;re la demande &#224; AIP</text><text fill="#000000" font-family="sans-serif" font-size="12" lengthAdjust="spacing" textLength="140" x="471.5" y="221.7432">(message asynchrone)</text><rect fill="#F1F1F1" height="33.9688" rx="12.5" ry="12.5" style="stroke:#181818;stroke-width:0.5;" width="238" x="435" y="580.292"/><text fill="#000000" font-family="sans-serif" font-size="12" lengthAdjust="spacing" textLength="218" x="445" y="601.4307">Notifie le client de la cr&#233;ation d'alias</text><ellipse cx="554" cy="645.2607" fill="none" rx="11" ry="11" style="stroke:#222222;stroke-width:1.0;"/><ellipse cx="554" cy="645.2607" fill="#222222" rx="6" ry="6" style="stroke:#222222;stroke-width:1.0;"/><line style="stroke:#000000;stroke-width:1.5;" x1="429" x2="429" y1="12.7451" y2="656.2607"/><rect fill="#F1F1F1" height="47.9375" rx="12.5" ry="12.5" style="stroke:#181818;stroke-width:0.5;" width="228" x="691" y="254.5732"/><text fill="#000000" font-family="sans-serif" font-size="12" lengthAdjust="spacing" textLength="208" x="701" y="275.7119">Transf&#232;re &#224; PI RAC pour la cr&#233;ation</text><text fill="#000000" font-family="sans-serif" font-size="12" lengthAdjust="spacing" textLength="140" x="701" y="289.6807">(message asynchrone)</text><rect fill="#F1F1F1" height="33.9688" rx="12.5" ry="12.5" style="stroke:#181818;stroke-width:0.5;" width="244" x="683" y="526.3232"/><text fill="#000000" font-family="sans-serif" font-size="12" lengthAdjust="spacing" textLength="224" x="693" y="547.4619">Transf&#232;re la notification &#224; FreeMoney</text><line style="stroke:#000000;stroke-width:1.5;" x1="677" x2="677" y1="12.7451" y2="656.2607"/><rect fill="#F1F1F1" height="47.9375" rx="12.5" ry="12.5" style="stroke:#181818;stroke-width:0.5;" width="210" x="947" y="322.5107"/><text fill="#000000" font-family="sans-serif" font-size="12" lengthAdjust="spacing" textLength="190" x="957" y="343.6494">Renvoie la r&#233;ponse de cr&#233;ation</text><text fill="#000000" font-family="sans-serif" font-size="12" lengthAdjust="spacing" textLength="34" x="957" y="357.6182">(202)</text><rect fill="#F1F1F1" height="47.9375" rx="12.5" ry="12.5" style="stroke:#181818;stroke-width:0.5;" width="230" x="937" y="390.4482"/><text fill="#000000" font-family="sans-serif" font-size="12" lengthAdjust="spacing" textLength="92" x="951" y="411.5869">Cr&#233;ation d'alias</text><text fill="#000000" font-family="sans-serif" font-size="12" lengthAdjust="spacing" textLength="210" x="947" y="425.5557">en attente de r&#233;ponse asynchrone</text><rect fill="#F1F1F1" height="47.9375" rx="12.5" ry="12.5" style="stroke:#181818;stroke-width:0.5;" width="210" x="947" y="458.3857"/><text fill="#000000" font-family="sans-serif" font-size="12" lengthAdjust="spacing" textLength="190" x="957" y="479.5244">Renvoie la r&#233;ponse de cr&#233;ation</text><text fill="#000000" font-family="sans-serif" font-size="12" lengthAdjust="spacing" textLength="149" x="957" y="493.4932">(notification asynchrone)</text><line style="stroke:#000000;stroke-width:1.5;" x1="931" x2="931" y1="12.7451" y2="656.2607"/><line style="stroke:#000000;stroke-width:1.5;" x1="1171" x2="1171" y1="12.7451" y2="656.2607"/><line style="stroke:#181818;stroke-width:1.0;" x1="93.5" x2="93.5" y1="58.6982" y2="78.6982"/><polygon fill="#181818" points="89.5,68.6982,93.5,78.6982,97.5,68.6982,93.5,72.6982" style="stroke:#181818;stroke-width:1.0;"/><line style="stroke:#181818;stroke-width:1.0;" x1="554" x2="554" y1="614.2607" y2="634.2607"/><polygon fill="#181818" points="550,624.2607,554,634.2607,558,624.2607,554,628.2607" style="stroke:#181818;stroke-width:1.0;"/><line style="stroke:#181818;stroke-width:1.0;" x1="1052" x2="1052" y1="370.4482" y2="390.4482"/><polygon fill="#181818" points="1048,380.4482,1052,390.4482,1056,380.4482,1052,384.4482" style="stroke:#181818;stroke-width:1.0;"/><line style="stroke:#181818;stroke-width:1.0;" x1="1052" x2="1052" y1="438.3857" y2="458.3857"/><polygon fill="#181818" points="1048,448.3857,1052,458.3857,1056,448.3857,1052,452.3857" style="stroke:#181818;stroke-width:1.0;"/><line style="stroke:#181818;stroke-width:1.0;" x1="93.5" x2="93.5" y1="112.667" y2="117.667"/><line style="stroke:#181818;stroke-width:1.0;" x1="93.5" x2="300.5" y1="117.667" y2="117.667"/><line style="stroke:#181818;stroke-width:1.0;" x1="300.5" x2="300.5" y1="117.667" y2="132.667"/><polygon fill="#181818" points="296.5,122.667,300.5,132.667,304.5,122.667,300.5,126.667" style="stroke:#181818;stroke-width:1.0;"/><line style="stroke:#181818;stroke-width:1.0;" x1="300.5" x2="300.5" y1="166.6357" y2="171.6357"/><line style="stroke:#181818;stroke-width:1.0;" x1="300.5" x2="554" y1="171.6357" y2="171.6357"/><line style="stroke:#181818;stroke-width:1.0;" x1="554" x2="554" y1="171.6357" y2="186.6357"/><polygon fill="#181818" points="550,176.6357,554,186.6357,558,176.6357,554,180.6357" style="stroke:#181818;stroke-width:1.0;"/><line style="stroke:#181818;stroke-width:1.0;" x1="554" x2="554" y1="234.5732" y2="239.5732"/><line style="stroke:#181818;stroke-width:1.0;" x1="554" x2="805" y1="239.5732" y2="239.5732"/><line style="stroke:#181818;stroke-width:1.0;" x1="805" x2="805" y1="239.5732" y2="254.5732"/><polygon fill="#181818" points="801,244.5732,805,254.5732,809,244.5732,805,248.5732" style="stroke:#181818;stroke-width:1.0;"/><line style="stroke:#181818;stroke-width:1.0;" x1="805" x2="805" y1="302.5107" y2="307.5107"/><line style="stroke:#181818;stroke-width:1.0;" x1="805" x2="1052" y1="307.5107" y2="307.5107"/><line style="stroke:#181818;stroke-width:1.0;" x1="1052" x2="1052" y1="307.5107" y2="322.5107"/><polygon fill="#181818" points="1048,312.5107,1052,322.5107,1056,312.5107,1052,316.5107" style="stroke:#181818;stroke-width:1.0;"/><line style="stroke:#181818;stroke-width:1.0;" x1="1052" x2="1052" y1="506.3232" y2="511.3232"/><line style="stroke:#181818;stroke-width:1.0;" x1="1052" x2="805" y1="511.3232" y2="511.3232"/><line style="stroke:#181818;stroke-width:1.0;" x1="805" x2="805" y1="511.3232" y2="526.3232"/><polygon fill="#181818" points="801,516.3232,805,526.3232,809,516.3232,805,520.3232" style="stroke:#181818;stroke-width:1.0;"/><line style="stroke:#181818;stroke-width:1.0;" x1="805" x2="805" y1="560.292" y2="565.292"/><line style="stroke:#181818;stroke-width:1.0;" x1="805" x2="554" y1="565.292" y2="565.292"/><line style="stroke:#181818;stroke-width:1.0;" x1="554" x2="554" y1="565.292" y2="580.292"/><polygon fill="#181818" points="550,570.292,554,580.292,558,570.292,554,574.292" style="stroke:#181818;stroke-width:1.0;"/><text fill="#000000" font-family="sans-serif" font-size="18" lengthAdjust="spacing" textLength="53" x="66" y="29.4531">Client</text><text fill="#000000" font-family="sans-serif" font-size="18" lengthAdjust="spacing" textLength="169" x="215" y="29.4531">Application Mobile</text><text fill="#000000" font-family="sans-serif" font-size="18" lengthAdjust="spacing" textLength="211" x="447.5" y="29.4531">Participant FreeMoney</text><text fill="#000000" font-family="sans-serif" font-size="18" lengthAdjust="spacing" textLength="28" x="790" y="29.4531">AIP</text><text fill="#000000" font-family="sans-serif" font-size="18" lengthAdjust="spacing" textLength="59" x="1021.5" y="29.4531">PI RAC</text><!--SRC=[ZP5DQiD034RtFeLsRNSbIsTb30L34qpeCXjrh3G34yqmevGQV9WkstFuOfKTQjU5_kprtYTzwafdYQNBac2KB2-Fthv0SmPf0q5pXSvYMcTT4OAp1iLwXer_j8wwB8TxP4FW41ew8JSA49ZOlr_cPhfMjpKs80lSHQADPsfLy12Hqw5_Ymj9_mf5LU_v-aGfuHC1ffRDCIfqCwnIrKjKv-iATaK9mP_ZO9fs-55o0TIp8txsTinNA7XEoolKiBfTAP93-VsoFHC3YcY18pG9vgprlnBOYpryrll7jQfPZElrKwM_LBqT6SKrUNpviCFNgkPt9V7X0m00]--></g></svg>