<?xml version="1.0" encoding="us-ascii" standalone="no"?><svg xmlns="http://www.w3.org/2000/svg" xmlns:xlink="http://www.w3.org/1999/xlink" contentStyleType="text/css" height="464px" preserveAspectRatio="none" style="width:913px;height:464px;background:#FFFFFF;" version="1.1" viewBox="0 0 913 464" width="913px" zoomAndPan="magnify"><defs/><g><text fill="#000000" font-family="sans-serif" font-size="14" font-weight="bold" lengthAdjust="spacing" textLength="381" x="265.25" y="27.9951">Envoyer une demande de v&#233;rification d'identit&#233;</text><line style="stroke:#181818;stroke-width:0.5;stroke-dasharray:5.0,5.0;" x1="93" x2="93" y1="104.5938" y2="385.9219"/><line style="stroke:#181818;stroke-width:0.5;stroke-dasharray:5.0,5.0;" x1="371.5" x2="371.5" y1="104.5938" y2="385.9219"/><line style="stroke:#181818;stroke-width:0.5;stroke-dasharray:5.0,5.0;" x1="654" x2="654" y1="104.5938" y2="385.9219"/><line style="stroke:#181818;stroke-width:0.5;stroke-dasharray:5.0,5.0;" x1="853.5" x2="853.5" y1="104.5938" y2="385.9219"/><rect fill="#E2E2F0" height="30.2969" rx="2.5" ry="2.5" style="stroke:#181818;stroke-width:0.5;" width="177" x="5" y="73.2969"/><text fill="#000000" font-family="sans-serif" font-size="14" lengthAdjust="spacing" textLength="163" x="12" y="93.292">Participant FreeMoney</text><rect fill="#E2E2F0" height="30.2969" rx="2.5" ry="2.5" style="stroke:#181818;stroke-width:0.5;" width="177" x="5" y="384.9219"/><text fill="#000000" font-family="sans-serif" font-size="14" lengthAdjust="spacing" textLength="163" x="12" y="404.917">Participant FreeMoney</text><text fill="#000000" font-family="sans-serif" font-size="14" lengthAdjust="spacing" textLength="23" x="357" y="101.292">AIP</text><path d="M353.5,52.2969 C353.5,42.2969 371.5,42.2969 371.5,42.2969 C371.5,42.2969 389.5,42.2969 389.5,52.2969 L389.5,78.2969 C389.5,88.2969 371.5,88.2969 371.5,88.2969 C371.5,88.2969 353.5,88.2969 353.5,78.2969 L353.5,52.2969 " fill="#E2E2F0" style="stroke:#181818;stroke-width:1.5;"/><path d="M353.5,52.2969 C353.5,62.2969 371.5,62.2969 371.5,62.2969 C371.5,62.2969 389.5,62.2969 389.5,52.2969 " fill="none" style="stroke:#181818;stroke-width:1.5;"/><text fill="#000000" font-family="sans-serif" font-size="14" lengthAdjust="spacing" textLength="23" x="357" y="397.917">AIP</text><path d="M353.5,411.2188 C353.5,401.2188 371.5,401.2188 371.5,401.2188 C371.5,401.2188 389.5,401.2188 389.5,411.2188 L389.5,437.2188 C389.5,447.2188 371.5,447.2188 371.5,447.2188 C371.5,447.2188 353.5,447.2188 353.5,437.2188 L353.5,411.2188 " fill="#E2E2F0" style="stroke:#181818;stroke-width:1.5;"/><path d="M353.5,411.2188 C353.5,421.2188 371.5,421.2188 371.5,421.2188 C371.5,421.2188 389.5,421.2188 389.5,411.2188 " fill="none" style="stroke:#181818;stroke-width:1.5;"/><text fill="#000000" font-family="sans-serif" font-size="14" lengthAdjust="spacing" textLength="47" x="628" y="101.292">PI RAC</text><path d="M636.5,52.2969 C636.5,42.2969 654.5,42.2969 654.5,42.2969 C654.5,42.2969 672.5,42.2969 672.5,52.2969 L672.5,78.2969 C672.5,88.2969 654.5,88.2969 654.5,88.2969 C654.5,88.2969 636.5,88.2969 636.5,78.2969 L636.5,52.2969 " fill="#E2E2F0" style="stroke:#181818;stroke-width:1.5;"/><path d="M636.5,52.2969 C636.5,62.2969 654.5,62.2969 654.5,62.2969 C654.5,62.2969 672.5,62.2969 672.5,52.2969 " fill="none" style="stroke:#181818;stroke-width:1.5;"/><text fill="#000000" font-family="sans-serif" font-size="14" lengthAdjust="spacing" textLength="47" x="628" y="397.917">PI RAC</text><path d="M636.5,411.2188 C636.5,401.2188 654.5,401.2188 654.5,401.2188 C654.5,401.2188 672.5,401.2188 672.5,411.2188 L672.5,437.2188 C672.5,447.2188 654.5,447.2188 654.5,447.2188 C654.5,447.2188 636.5,447.2188 636.5,437.2188 L636.5,411.2188 " fill="#E2E2F0" style="stroke:#181818;stroke-width:1.5;"/><path d="M636.5,411.2188 C636.5,421.2188 654.5,421.2188 654.5,421.2188 C654.5,421.2188 672.5,421.2188 672.5,411.2188 " fill="none" style="stroke:#181818;stroke-width:1.5;"/><rect fill="#E2E2F0" height="30.2969" rx="2.5" ry="2.5" style="stroke:#181818;stroke-width:0.5;" width="108" x="799.5" y="73.2969"/><text fill="#000000" font-family="sans-serif" font-size="14" lengthAdjust="spacing" textLength="94" x="806.5" y="93.292">Participant B</text><rect fill="#E2E2F0" height="30.2969" rx="2.5" ry="2.5" style="stroke:#181818;stroke-width:0.5;" width="108" x="799.5" y="384.9219"/><text fill="#000000" font-family="sans-serif" font-size="14" lengthAdjust="spacing" textLength="94" x="806.5" y="404.917">Participant B</text><polygon fill="#181818" points="359.5,131.7266,369.5,135.7266,359.5,139.7266,363.5,135.7266" style="stroke:#181818;stroke-width:1.0;"/><line style="stroke:#181818;stroke-width:1.0;" x1="93.5" x2="365.5" y1="135.7266" y2="135.7266"/><text fill="#000000" font-family="sans-serif" font-size="13" lengthAdjust="spacing" textLength="131" x="100.5" y="130.6606">3. Demande identit&#233;</text><polygon fill="#181818" points="642.5,175.9922,652.5,179.9922,642.5,183.9922,646.5,179.9922" style="stroke:#181818;stroke-width:1.0;"/><line style="stroke:#181818;stroke-width:1.0;" x1="371.5" x2="648.5" y1="179.9922" y2="179.9922"/><text fill="#000000" font-family="sans-serif" font-size="13" lengthAdjust="spacing" textLength="259" x="378.5" y="159.7935">4. Transf&#232;re &#224; PI RAC pour la verification</text><text fill="#000000" font-family="sans-serif" font-size="13" lengthAdjust="spacing" textLength="148" x="378.5" y="174.9263">(message asynchrone)</text><polygon fill="#181818" points="104.5,223.2578,94.5,227.2578,104.5,231.2578,100.5,227.2578" style="stroke:#181818;stroke-width:1.0;"/><line style="stroke:#181818;stroke-width:1.0;stroke-dasharray:2.0,2.0;" x1="98.5" x2="653.5" y1="227.2578" y2="227.2578"/><text fill="#000000" font-family="sans-serif" font-size="13" lengthAdjust="spacing" textLength="215" x="110.5" y="207.0591">5. Renvoie la r&#233;ponse de cr&#233;ation</text><text fill="#000000" font-family="sans-serif" font-size="13" lengthAdjust="spacing" textLength="34" x="110.5" y="222.1919">(202)</text><path d="M659,192.9922 L659,232.9922 L902,232.9922 L902,202.9922 L892,192.9922 L659,192.9922 " fill="#FEFFDD" style="stroke:#181818;stroke-width:0.5;"/><path d="M892,192.9922 L892,202.9922 L902,202.9922 L892,192.9922 " fill="#FEFFDD" style="stroke:#181818;stroke-width:0.5;"/><text fill="#000000" font-family="sans-serif" font-size="13" lengthAdjust="spacing" textLength="126" x="665" y="210.0591">Demande d'identit&#233;</text><text fill="#000000" font-family="sans-serif" font-size="13" lengthAdjust="spacing" textLength="222" x="665" y="225.1919">en attente de r&#233;ponse asynchrone</text><polygon fill="#181818" points="841.5,255.3906,851.5,259.3906,841.5,263.3906,845.5,259.3906" style="stroke:#181818;stroke-width:1.0;"/><line style="stroke:#181818;stroke-width:1.0;stroke-dasharray:2.0,2.0;" x1="654.5" x2="847.5" y1="259.3906" y2="259.3906"/><text fill="#000000" font-family="sans-serif" font-size="13" lengthAdjust="spacing" textLength="115" x="661.5" y="254.3247">Demande identit&#233;</text><polygon fill="#181818" points="665.5,284.5234,655.5,288.5234,665.5,292.5234,661.5,288.5234" style="stroke:#181818;stroke-width:1.0;"/><line style="stroke:#181818;stroke-width:1.0;stroke-dasharray:2.0,2.0;" x1="659.5" x2="852.5" y1="288.5234" y2="288.5234"/><text fill="#000000" font-family="sans-serif" font-size="13" lengthAdjust="spacing" textLength="175" x="671.5" y="283.4575">R&#233;ponse Demande identit&#233;</text><polygon fill="#181818" points="382.5,328.7891,372.5,332.7891,382.5,336.7891,378.5,332.7891" style="stroke:#181818;stroke-width:1.0;"/><line style="stroke:#181818;stroke-width:1.0;stroke-dasharray:2.0,2.0;" x1="376.5" x2="653.5" y1="332.7891" y2="332.7891"/><text fill="#000000" font-family="sans-serif" font-size="13" lengthAdjust="spacing" textLength="239" x="388.5" y="312.5903">6. Renvoie la r&#233;ponse de la demande</text><text fill="#000000" font-family="sans-serif" font-size="13" lengthAdjust="spacing" textLength="160" x="388.5" y="327.7231">(notification asynchrone)</text><polygon fill="#181818" points="104.5,360.9219,94.5,364.9219,104.5,368.9219,100.5,364.9219" style="stroke:#181818;stroke-width:1.0;"/><line style="stroke:#181818;stroke-width:1.0;stroke-dasharray:2.0,2.0;" x1="98.5" x2="370.5" y1="364.9219" y2="364.9219"/><text fill="#000000" font-family="sans-serif" font-size="13" lengthAdjust="spacing" textLength="254" x="110.5" y="359.856">7. Transf&#232;re la notification &#224; FreeMoney</text><path d="M376,345.7891 L376,370.7891 L730,370.7891 L730,355.7891 L720,345.7891 L376,345.7891 " fill="#FEFFDD" style="stroke:#181818;stroke-width:0.5;"/><path d="M720,345.7891 L720,355.7891 L730,355.7891 L720,345.7891 " fill="#FEFFDD" style="stroke:#181818;stroke-width:0.5;"/><text fill="#000000" font-family="sans-serif" font-size="13" lengthAdjust="spacing" textLength="333" x="382" y="362.856">Accus&#233; de r&#233;ception en parall&#232;le avec la notification</text><!--SRC=[TP9DRi8m48NtFiKecvP5K4N_95HLedyIYweewfBDr1d0Kd0YsqJYDbt2ENAnJc9870ghQ9pnUsy-ZrCk8uZUTPbloS164wIqHftMNoYhlL4B9T6fN4DwfLBIJhbg7mbHe75AgWArWsWM51-6w3FNj8q0BTHjxOb8qU4FMdQSJ6VDVrH5S3gRGZ9vzHTLWlAooqlJzELMP89Z7wlrW_YvDe0nt0xXxJ1NEuIeVt57uyGzTqFuDgZjejePWkeNV1eeyes13A6a3iPSNw_9MbmInzXgkJBiDn1UAgv5Upd6S3-4X9YoebhALFiYrxQ1BBauQevkHWEXSqTWr7Bb-DunTG0Vvfeqe7DSDmgjMXT5-2YSv1HHeDcHyBcVulXCTt9K_tyjcDTZVhWu9PU7nU8nUS9khK9-pOkSeVVOUnhMwYdmKtKhrgCtaN9ZcPY79Abe-faU6s2MLJjUVYn9dah-0G00]--></g></svg>