<?xml version="1.0" encoding="us-ascii" standalone="no"?><svg xmlns="http://www.w3.org/2000/svg" xmlns:xlink="http://www.w3.org/1999/xlink" contentStyleType="text/css" height="1170px" preserveAspectRatio="none" style="width:641px;height:1170px;background:#FFFFFF;" version="1.1" viewBox="0 0 641 1170" width="641px" zoomAndPan="magnify"><defs/><g><!--cluster Paiement Marchand--><g id="cluster_Paiement Marchand"><rect fill="none" height="1157" rx="2.5" ry="2.5" style="stroke:#181818;stroke-width:1.0;" width="512" x="123" y="7"/><text fill="#000000" font-family="sans-serif" font-size="14" font-weight="bold" lengthAdjust="spacing" textLength="161" x="298.5" y="21.9951">Paiement Marchand</text></g><g id="elem_UC4_1"><ellipse cx="378.8717" cy="445.8743" fill="#F1F1F1" rx="112.3717" ry="24.8743" style="stroke:#181818;stroke-width:0.5;"/><text fill="#000000" font-family="sans-serif" font-size="14" lengthAdjust="spacing" textLength="191" x="283.3717" y="448.721">UC4_1 : Envoi de paiement</text></g><g id="elem_UC4_2"><ellipse cx="379.0217" cy="896.1043" fill="#F1F1F1" rx="133.5217" ry="29.1043" style="stroke:#181818;stroke-width:0.5;"/><text fill="#000000" font-family="sans-serif" font-size="14" lengthAdjust="spacing" textLength="236" x="261.0217" y="898.951">UC4_2 : Notification de paiement</text></g><g id="elem_UC4_3"><ellipse cx="379.2292" cy="993.0458" fill="#F1F1F1" rx="150.7292" ry="32.5458" style="stroke:#181818;stroke-width:0.5;"/><text fill="#000000" font-family="sans-serif" font-size="14" lengthAdjust="spacing" textLength="272" x="243.2292" y="995.8925">UC4_3 : Demande paiement imm&#233;diat</text></g><g id="elem_UC4_4"><ellipse cx="379.138" cy="1104.0276" fill="#F1F1F1" rx="205.638" ry="43.5276" style="stroke:#181818;stroke-width:0.5;"/><text fill="#000000" font-family="sans-serif" font-size="14" lengthAdjust="spacing" textLength="385" x="186.638" y="1106.8743">UC4_4 : Demande paiement avec date de p&#233;remption</text></g><g id="elem_UC4_5"><ellipse cx="379.1413" cy="545.2283" fill="#F1F1F1" rx="184.1413" ry="39.2283" style="stroke:#181818;stroke-width:0.5;"/><text fill="#000000" font-family="sans-serif" font-size="14" lengthAdjust="spacing" textLength="341" x="208.6413" y="548.0749">UC4_5 : Accepter demande paiement imm&#233;diat</text></g><g id="elem_UC4_6"><ellipse cx="378.8002" cy="657.06" fill="#F1F1F1" rx="178.3002" ry="38.06" style="stroke:#181818;stroke-width:0.5;"/><text fill="#000000" font-family="sans-serif" font-size="14" lengthAdjust="spacing" textLength="329" x="214.3002" y="659.9067">UC4_6 : Refuser demande paiement imm&#233;diat</text></g><g id="elem_UC4_7"><ellipse cx="379.0278" cy="780.9056" fill="#F1F1F1" rx="240.0278" ry="50.4056" style="stroke:#181818;stroke-width:0.5;"/><text fill="#000000" font-family="sans-serif" font-size="14" lengthAdjust="spacing" textLength="455" x="151.5278" y="783.7522">UC4_7 : Accepter demande paiement avec date de p&#233;remption</text></g><g id="elem_UC4_8"><ellipse cx="379.1272" cy="91.1254" fill="#F1F1F1" rx="233.6272" ry="49.1254" style="stroke:#181818;stroke-width:0.5;"/><text fill="#000000" font-family="sans-serif" font-size="14" lengthAdjust="spacing" textLength="442" x="158.1272" y="93.9721">UC4_8 : Refuser demande paiement avec date de p&#233;remption</text></g><g id="elem_UC4_9"><ellipse cx="378.8417" cy="212.7683" fill="#F1F1F1" rx="176.8417" ry="37.7683" style="stroke:#181818;stroke-width:0.5;"/><text fill="#000000" font-family="sans-serif" font-size="14" lengthAdjust="spacing" textLength="326" x="215.8417" y="215.615">UC4_9 : Ignorer demande paiement imm&#233;diat</text></g><g id="elem_UC4_10"><ellipse cx="379.073" cy="335.8146" fill="#F1F1F1" rx="237.073" ry="49.8146" style="stroke:#181818;stroke-width:0.5;"/><text fill="#000000" font-family="sans-serif" font-size="14" lengthAdjust="spacing" textLength="449" x="154.573" y="338.6613">UC4_10 : Ignorer demande paiement avec date de p&#233;remption</text></g><!--entity utilisateur--><g id="elem_utilisateur"><ellipse cx="42.5" cy="466.5" fill="#F1F1F1" rx="8" ry="8" style="stroke:#181818;stroke-width:0.5;"/><path d="M42.5,474.5 L42.5,501.5 M29.5,482.5 L55.5,482.5 M42.5,501.5 L29.5,516.5 M42.5,501.5 L55.5,516.5 " fill="none" style="stroke:#181818;stroke-width:0.5;"/><text fill="#000000" font-family="sans-serif" font-size="14" lengthAdjust="spacing" textLength="73" x="6" y="530.9951">Utilisateur</text></g><!--entity marchand--><g id="elem_marchand"><ellipse cx="42.5" cy="963.5" fill="#F1F1F1" rx="8" ry="8" style="stroke:#181818;stroke-width:0.5;"/><path d="M42.5,971.5 L42.5,998.5 M29.5,979.5 L55.5,979.5 M42.5,998.5 L29.5,1013.5 M42.5,998.5 L55.5,1013.5 " fill="none" style="stroke:#181818;stroke-width:0.5;"/><text fill="#000000" font-family="sans-serif" font-size="14" lengthAdjust="spacing" textLength="69" x="8" y="1027.9951">Marchand</text></g><!--link utilisateur to UC4_1--><g id="link_utilisateur_UC4_1"><path d="M79.2974,490.649 C128.005,483.368 216.895,470.081 285.087,459.888 " fill="none" id="utilisateur-UC4_1" style="stroke:#181818;stroke-width:1.0;"/></g><!--link utilisateur to UC4_2--><g id="link_utilisateur_UC4_2"><path d="M45.9376,534.24 C51.9802,616.331 70.5031,805.515 115,849 C149.914,883.12 200.575,897.129 248.132,901.796 " fill="none" id="utilisateur-UC4_2" style="stroke:#181818;stroke-width:1.0;"/></g><!--link marchand to UC4_2--><g id="link_marchand_UC4_2"><path d="M77.3614,964.833 C88.717,956.652 101.85,948.46 115,943 C158.801,924.813 209.57,913.657 254.752,906.816 " fill="none" id="marchand-UC4_2" style="stroke:#181818;stroke-width:1.0;"/></g><!--link marchand to UC4_3--><g id="link_marchand_UC4_3"><path d="M77.1047,993 C112.89,993 172.034,993 228.46,993 " fill="none" id="marchand-UC4_3" style="stroke:#181818;stroke-width:1.0;"/></g><!--link marchand to UC4_4--><g id="link_marchand_UC4_4"><path d="M77.1719,1020.506 C88.6202,1028.749 101.8554,1037.144 115,1043 C147.005,1057.257 182.742,1068.389 217.304,1077.006 " fill="none" id="marchand-UC4_4" style="stroke:#181818;stroke-width:1.0;"/></g><!--link utilisateur to UC4_5--><g id="link_utilisateur_UC4_5"><path d="M79.2974,501.244 C114.943,506.466 172.11,514.84 226.935,522.871 " fill="none" id="utilisateur-UC4_5" style="stroke:#181818;stroke-width:1.0;"/></g><!--link utilisateur to UC4_6--><g id="link_utilisateur_UC4_6"><path d="M60.2922,534.1 C72.3017,556.945 90.6493,584.647 115,601 C144.454,620.78 179.599,633.751 214.46,642.213 " fill="none" id="utilisateur-UC4_6" style="stroke:#181818;stroke-width:1.0;"/></g><!--link utilisateur to UC4_7--><g id="link_utilisateur_UC4_7"><path d="M45.4233,534.224 C49.954,582.552 65.0345,665.091 115,712 C133.67,729.528 156.238,742.726 180.213,752.641 " fill="none" id="utilisateur-UC4_7" style="stroke:#181818;stroke-width:1.0;"/></g><!--link utilisateur to UC4_8--><g id="link_utilisateur_UC4_8"><path d="M46.5144,457.988 C53.5658,378.778 73.7534,199.845 115,157 C132.386,138.94 153.918,125.54 177.119,115.64 " fill="none" id="utilisateur-UC4_8" style="stroke:#181818;stroke-width:1.0;"/></g><!--link utilisateur to UC4_9--><g id="link_utilisateur_UC4_9"><path d="M44.2106,457.922 C47.324,406.926 60.759,317.183 115,268 C140.485,244.891 173.114,230.532 206.655,221.8 " fill="none" id="utilisateur-UC4_9" style="stroke:#181818;stroke-width:1.0;"/></g><!--link utilisateur to UC4_10--><g id="link_utilisateur_UC4_10"><path d="M64.4035,457.934 C76.7565,438.786 94.0795,416.778 115,403 C138.217,387.709 164.701,375.908 191.715,366.8 " fill="none" id="utilisateur-UC4_10" style="stroke:#181818;stroke-width:1.0;"/></g><!--SRC=[ZP9DQiCm48NtEiMGVS3nlxiBRHTTj9H2raN8OqTWIKQMioazKCwHYrKsJbqKrSvIJ-zzUYEcmSg0KQ1vVJHGSetCS2K9eSme3Pk3uGtlgC5URu1sqC_dg-MLQdQaiXplnNGWP21HMJS8ctVAKQ0qC5k_207eEsIqiuR3O_ovWmTubYV5eKHefyJ876zTUsZjRyhmYZCwDFQcGZSLsTGJ2bjXTWCNud8kEPrpaPkBVJbwGWQb_OlnxSjPesY7Ah-OsCKa5hDd35k3sePMUoGk8BM03woiTbS-TVFPOe7LWJANbo_rMSNbBgwmk9TQAdtVUCND3WLBWDK-ku2GRqB-x3XijzFwUSIGNBVzVoMwKM8VAl69gK_CV6Bk4mll8C4F]--></g></svg>